<svg width="131" height="69" viewBox="0 0 131 69" fill="none" xmlns="http://www.w3.org/2000/svg">
<path d="M130.882 11.1296C130.882 11.1121 130.881 11.0939 130.88 11.0756C130.875 10.9959 130.866 10.9162 130.851 10.8372C130.848 10.8243 130.844 10.8114 130.841 10.7985C130.826 10.7264 130.806 10.6542 130.781 10.5821C130.776 10.5677 130.772 10.5525 130.766 10.5381C130.738 10.4591 130.703 10.3809 130.664 10.3034C130.656 10.286 130.646 10.2693 130.638 10.2518C130.598 10.1766 130.555 10.1015 130.505 10.027C130.501 10.021 130.498 10.0157 130.495 10.0103C130.442 9.93137 130.382 9.85241 130.319 9.7742C130.305 9.75673 130.29 9.73927 130.275 9.72105C130.211 9.6436 130.142 9.56691 130.067 9.48946C130.057 9.47959 130.046 9.46896 130.036 9.45833C129.966 9.38847 129.891 9.31861 129.813 9.24876C129.796 9.23281 129.779 9.21762 129.762 9.20168C129.675 9.12651 129.583 9.05058 129.487 8.97616C129.467 8.96022 129.446 8.94504 129.425 8.92909C129.333 8.85923 129.238 8.78938 129.138 8.71952C129.125 8.71117 129.112 8.70205 129.1 8.69294C128.991 8.61777 128.875 8.54336 128.755 8.46819C128.728 8.45149 128.701 8.43478 128.673 8.41807C128.552 8.3429 128.427 8.26925 128.295 8.1956C128.282 8.18876 128.27 8.18193 128.258 8.1751C128.134 8.106 128.006 8.03691 127.874 7.96857C127.843 7.95262 127.812 7.93667 127.782 7.92073C127.641 7.8486 127.495 7.77722 127.345 7.70585C127.316 7.69218 127.286 7.67775 127.257 7.66409C127.119 7.59878 126.977 7.53424 126.831 7.47046C126.805 7.45907 126.78 7.44768 126.754 7.43629C126.592 7.36568 126.425 7.29506 126.254 7.2252C126.215 7.20926 126.175 7.19332 126.136 7.17737C125.96 7.106 125.781 7.03538 125.596 6.96476C125.591 6.96324 125.586 6.96173 125.582 6.96021C125.4 6.89111 125.212 6.82201 125.022 6.75443C124.979 6.73849 124.935 6.7233 124.89 6.7066C124.699 6.63902 124.504 6.57144 124.304 6.50386C124.268 6.49172 124.231 6.48032 124.196 6.46817C124.015 6.40743 123.83 6.3482 123.642 6.28822C123.601 6.27531 123.561 6.26241 123.52 6.2495C123.501 6.24266 123.482 6.23659 123.461 6.23051C123.371 6.20242 123.275 6.17433 123.183 6.14547C123.04 6.10219 122.897 6.05815 122.75 6.01487C122.629 5.97918 122.503 5.94273 122.378 5.90781C122.238 5.8668 122.099 5.82656 121.955 5.78632C121.828 5.75139 121.698 5.7157 121.569 5.68078C121.421 5.64053 121.275 5.60105 121.125 5.56156C120.996 5.52739 120.865 5.49399 120.734 5.45982C120.576 5.41882 120.417 5.37781 120.256 5.33757C120.216 5.3277 120.179 5.31782 120.14 5.30795C119.992 5.27151 119.841 5.23506 119.69 5.19786C119.621 5.18115 119.554 5.16445 119.484 5.14774C119.209 5.08244 118.931 5.01714 118.647 4.9526C118.598 4.94121 118.547 4.93058 118.497 4.91919C118.267 4.86755 118.035 4.81517 117.801 4.76429C117.696 4.74151 117.59 4.71873 117.484 4.69671C117.379 4.67393 117.276 4.65116 117.17 4.62838C117.121 4.61851 117.069 4.60863 117.02 4.598C116.648 4.51979 116.272 4.44386 115.888 4.36717C115.852 4.36034 115.818 4.35275 115.782 4.34591C115.363 4.26391 114.935 4.18342 114.502 4.10294C114.46 4.09534 114.421 4.08775 114.379 4.0794C114.302 4.06573 114.221 4.05206 114.144 4.03764C113.859 3.986 113.571 3.93437 113.279 3.88349C113.145 3.85996 113.011 3.83642 112.875 3.81288C112.555 3.75745 112.231 3.70278 111.904 3.64963C111.827 3.63672 111.754 3.62457 111.678 3.61166C111.655 3.60786 111.632 3.60407 111.609 3.60103C111.205 3.53497 110.797 3.47043 110.383 3.40589C110.33 3.39754 110.275 3.38995 110.221 3.38235C109.855 3.32617 109.484 3.26998 109.108 3.21531C109.08 3.21151 109.051 3.2062 109.022 3.20164C108.901 3.18418 108.776 3.16747 108.656 3.15001C108.405 3.11432 108.154 3.07787 107.9 3.04218C107.733 3.01864 107.563 2.99587 107.394 2.97309C107.141 2.93816 106.887 2.90399 106.63 2.86982C106.577 2.86299 106.526 2.85539 106.473 2.84856C106.36 2.83337 106.244 2.81895 106.131 2.80452C105.887 2.77263 105.642 2.7415 105.395 2.70961C105.217 2.68759 105.037 2.66481 104.856 2.64279C104.606 2.61242 104.354 2.58129 104.101 2.55091C104.036 2.54256 103.971 2.53497 103.906 2.52662C103.797 2.51371 103.685 2.50156 103.576 2.48789C103.334 2.4598 103.091 2.4317 102.846 2.40361C102.646 2.38083 102.445 2.3588 102.243 2.33603C102.026 2.31249 101.809 2.28819 101.591 2.26466C101.505 2.25554 101.421 2.24567 101.335 2.23656C101.185 2.22061 101.034 2.20467 100.883 2.18948C100.685 2.16898 100.487 2.14772 100.288 2.12722C100.074 2.1052 99.8571 2.08318 99.6412 2.06268C99.4174 2.0399 99.1946 2.01712 98.9687 1.9951C98.9166 1.99054 98.8647 1.98447 98.8125 1.97992C98.6464 1.96397 98.4772 1.94802 98.3103 1.93284C98.0958 1.91233 97.8812 1.89183 97.6646 1.87133C97.436 1.85007 97.2053 1.82957 96.974 1.80907C96.756 1.78932 96.5377 1.76959 96.3176 1.7506C96.2974 1.74908 96.2768 1.7468 96.2558 1.74529C95.9984 1.72251 95.7382 1.70125 95.4793 1.67999C95.2408 1.65948 95.0018 1.63975 94.7619 1.62C94.4234 1.59191 94.0846 1.56457 93.7434 1.538C93.7307 1.53724 93.718 1.53648 93.7053 1.53496C92.9738 1.47801 92.233 1.4241 91.486 1.37095C91.4071 1.36488 91.3305 1.35956 91.2512 1.35348C91.1908 1.34893 91.1287 1.34513 91.0676 1.34134C90.3662 1.29274 89.6588 1.24642 88.9454 1.20087C88.9097 1.19859 88.8751 1.19631 88.8394 1.19403C88.7676 1.19023 88.6952 1.18644 88.6234 1.18188C88.0052 1.14392 87.3818 1.10671 86.755 1.07179C86.6826 1.06799 86.6129 1.06343 86.5412 1.05963C86.5075 1.05811 86.4728 1.05584 86.4385 1.05432C85.7969 1.01863 85.1519 0.98522 84.5014 0.953329C84.4753 0.952569 84.4506 0.950294 84.4242 0.949534C84.3476 0.945738 84.27 0.941941 84.1935 0.938904C83.6707 0.913088 83.1441 0.889548 82.6158 0.866769C82.5221 0.862213 82.4287 0.857659 82.3343 0.853103C82.2252 0.848547 82.1136 0.844753 82.0037 0.839437C81.6845 0.82577 81.3642 0.81286 81.0436 0.799952C80.9149 0.795396 80.7889 0.789318 80.6602 0.784763C80.5709 0.780966 80.4806 0.777928 80.3914 0.774891C80.0642 0.762742 79.735 0.750596 79.4051 0.739206C79.2596 0.73465 79.1147 0.728579 78.9692 0.723264C78.8889 0.720986 78.8082 0.718706 78.7279 0.715669C78.3945 0.704279 78.0602 0.694408 77.7248 0.683778C77.5875 0.679982 77.4512 0.675427 77.3132 0.670871C77.2408 0.668593 77.167 0.667072 77.0946 0.664794C76.8786 0.65872 76.6627 0.651884 76.4468 0.647328C76.3102 0.643532 76.1739 0.638976 76.0366 0.635939C75.891 0.632143 75.7441 0.628346 75.5975 0.625309C75.3796 0.619994 75.1616 0.614682 74.9426 0.609366C74.8787 0.607848 74.8159 0.606326 74.752 0.604807C74.5066 0.598733 74.2605 0.59418 74.014 0.588865C73.8376 0.585068 73.6621 0.581272 73.4857 0.577476C73.4771 0.577476 73.4675 0.577476 73.4589 0.577476C73.0333 0.568364 72.6069 0.561531 72.1785 0.554697C72.1335 0.553938 72.0886 0.553934 72.0436 0.552415C71.9255 0.550896 71.8064 0.54938 71.6876 0.547862C71.5067 0.545584 71.3255 0.541786 71.1432 0.539508C70.9506 0.53723 70.757 0.53495 70.5638 0.532672C70.4203 0.531154 70.2775 0.528878 70.1333 0.528119C70.1233 0.528119 70.113 0.528119 70.1031 0.528119C69.7557 0.524322 69.4079 0.520525 69.0592 0.518247C68.9782 0.517488 68.8968 0.517489 68.8165 0.51673C68.6617 0.51597 68.5075 0.514453 68.3517 0.513694C68.2377 0.513694 68.1244 0.51293 68.0098 0.511412C67.6912 0.509893 67.3716 0.508377 67.0517 0.507617C67.0081 0.507617 66.9645 0.506858 66.9202 0.506858C66.603 0.506099 66.2865 0.505341 65.9707 0.505341C65.807 0.505341 65.6443 0.505341 65.4798 0.505341C65.3525 0.505341 65.2244 0.505341 65.0971 0.505341C65.0621 0.505341 65.0267 0.505341 64.991 0.505341C64.6646 0.505341 64.3395 0.506858 64.0141 0.508376C63.9282 0.508376 63.8424 0.509135 63.7559 0.509135C63.6193 0.509894 63.4816 0.510652 63.3443 0.511412C63.2437 0.512171 63.1418 0.512176 63.0405 0.512935C62.7175 0.515213 62.3941 0.517487 62.0711 0.520524C62.055 0.520524 62.0388 0.520524 62.0227 0.521283C61.8933 0.522042 61.7639 0.523565 61.6352 0.525083C61.4234 0.527361 61.2116 0.528876 61.0001 0.531154C60.8412 0.533432 60.6822 0.535713 60.5233 0.537231C60.3771 0.53875 60.2315 0.541025 60.0856 0.543302C59.9984 0.544062 59.9112 0.545584 59.8247 0.546344C59.4331 0.552418 59.0438 0.558494 58.6548 0.565328C58.6507 0.565328 58.6469 0.565328 58.6428 0.565328C58.5886 0.566087 58.5344 0.566845 58.4798 0.567604C58.1499 0.573679 57.8193 0.580514 57.4908 0.586588C57.405 0.588107 57.3192 0.591141 57.2333 0.592659C57.0603 0.596456 56.8873 0.600251 56.7143 0.604807C56.5828 0.607085 56.45 0.610124 56.3182 0.613161C56.2282 0.615439 56.1393 0.618478 56.0487 0.619997C55.3714 0.636701 54.6969 0.654923 54.0265 0.675425C53.9815 0.676184 53.9352 0.676941 53.8905 0.67846C53.8778 0.67846 53.8658 0.679219 53.8531 0.679978C53.135 0.701998 52.4217 0.726297 51.7118 0.752113C51.6393 0.754391 51.5655 0.756671 51.4931 0.758949C51.2497 0.76806 51.007 0.777174 50.765 0.787045C49.9786 0.818177 49.1986 0.850824 48.4239 0.886512C48.2749 0.892586 48.1269 0.899421 47.978 0.906254C47.2612 0.939664 46.5486 0.974592 45.8418 1.0118C45.8297 1.0118 45.8177 1.01332 45.8057 1.01332C45.6945 1.01939 45.5843 1.02623 45.4731 1.03154C45.091 1.05204 44.7086 1.0733 44.3293 1.09456C44.2919 1.09608 44.2541 1.09836 44.2167 1.09988C44.0591 1.10899 43.9043 1.11886 43.7474 1.12873C43.421 1.14847 43.0952 1.1667 42.7712 1.18796C42.7296 1.18948 42.6874 1.19251 42.6459 1.19555C42.4811 1.20542 42.3187 1.21681 42.155 1.22744C41.8793 1.2449 41.604 1.26237 41.3304 1.28059C41.2834 1.28363 41.2367 1.28667 41.1904 1.2897C40.8543 1.31248 40.5213 1.33602 40.1887 1.3588C40.1056 1.36488 40.0219 1.37095 39.9385 1.37703C39.5797 1.40208 39.2224 1.4279 38.8671 1.45447C38.8149 1.45827 38.7624 1.46283 38.7102 1.46662C38.5633 1.47801 38.4184 1.48864 38.2725 1.50003C38.0896 1.51446 37.9059 1.52812 37.724 1.54255C37.6241 1.55014 37.5256 1.5585 37.4257 1.56685C37.2486 1.58128 37.0731 1.59495 36.8974 1.60937C36.7882 1.61849 36.6787 1.62684 36.5702 1.63595C36.414 1.64961 36.2606 1.66252 36.1054 1.67543C35.9276 1.69062 35.7502 1.70504 35.573 1.72023C35.504 1.7263 35.4337 1.73238 35.3647 1.7377C35.1508 1.75592 34.939 1.77566 34.7265 1.79464C34.5761 1.80831 34.4254 1.82122 34.2765 1.83413C34.2421 1.83716 34.2082 1.8402 34.1738 1.84324C33.8258 1.87513 33.4804 1.90778 33.1368 1.94043C32.1478 2.03458 31.1757 2.13329 30.2203 2.2358C30.2035 2.23732 30.186 2.23959 30.1695 2.24035C30.0858 2.25022 30.0041 2.25934 29.92 2.26845C29.5551 2.30793 29.1919 2.34742 28.8318 2.38918C28.793 2.39297 28.7532 2.39753 28.7151 2.40133C28.6447 2.41044 28.5771 2.41803 28.5067 2.42639C28.0481 2.47878 27.5943 2.53269 27.1449 2.58736C27.0584 2.59799 26.9692 2.6071 26.8827 2.61773C26.8047 2.6276 26.7278 2.63747 26.6492 2.64734C26.5185 2.66329 26.3884 2.68 26.2576 2.69594C25.9994 2.72859 25.7433 2.76048 25.4886 2.79389C25.3678 2.80984 25.248 2.82578 25.1278 2.84172C25.0582 2.85084 24.9864 2.85919 24.916 2.86906C24.7537 2.89032 24.5947 2.9131 24.4334 2.93436C24.2546 2.95866 24.0747 2.9822 23.8969 3.00725C23.6864 3.03687 23.4777 3.06572 23.2694 3.09533C23.0836 3.12191 22.8972 3.14773 22.7136 3.1743C22.6621 3.1819 22.6089 3.18873 22.5574 3.19632C22.4372 3.21303 22.3212 3.23125 22.2028 3.24947C21.9567 3.28516 21.7105 3.32236 21.4678 3.35957C21.3024 3.38463 21.1386 3.41045 20.9742 3.43626C20.7288 3.47423 20.4847 3.51296 20.242 3.55168C20.1675 3.56383 20.0913 3.57522 20.0175 3.58737C19.9478 3.59875 19.8809 3.61014 19.8115 3.62229C19.5132 3.67089 19.218 3.72024 18.9259 3.7696C18.7958 3.79162 18.6657 3.81364 18.537 3.83566C18.158 3.90172 17.7842 3.96778 17.4151 4.0346C17.3911 4.03916 17.3654 4.04371 17.3406 4.04827C17.3365 4.04827 17.3321 4.04978 17.3279 4.05054C16.937 4.12192 16.5535 4.19405 16.1742 4.26771C16.0568 4.29049 15.9421 4.31402 15.8254 4.33604C15.5608 4.38843 15.2978 4.44083 15.0383 4.49322C14.9827 4.50461 14.925 4.51524 14.8701 4.52663C14.7915 4.54333 14.7166 4.55928 14.6387 4.57522C14.4228 4.62078 14.2089 4.66558 13.9971 4.71114C13.855 4.74151 13.7136 4.77264 13.5735 4.80377C13.3624 4.85009 13.1544 4.89641 12.9481 4.94349C12.8588 4.96399 12.7672 4.98297 12.6786 5.00423C12.6426 5.01258 12.6069 5.02094 12.5701 5.02929C12.3704 5.07637 12.1754 5.12344 11.9794 5.16976C11.862 5.19785 11.7429 5.22595 11.6275 5.2548C11.3982 5.31099 11.1751 5.36718 10.9523 5.42489C10.8819 5.44235 10.8095 5.45981 10.7405 5.47804C10.7336 5.47956 10.7278 5.48108 10.7202 5.48336C10.5129 5.53727 10.3107 5.59193 10.1089 5.6466C10.0251 5.66862 9.93929 5.69141 9.85621 5.71419C9.59326 5.78708 9.33513 5.85921 9.08179 5.93287C9.07699 5.93363 9.07184 5.9359 9.06703 5.93742C8.90398 5.9845 8.74641 6.03233 8.58781 6.08017C8.50062 6.10674 8.41 6.13256 8.32418 6.15914C8.20816 6.19407 8.09831 6.23051 7.98502 6.2662C7.85492 6.30796 7.72139 6.34821 7.59404 6.38997C7.59404 6.38997 7.59404 6.38997 7.59335 6.38997C7.36336 6.46514 7.13816 6.54031 6.91812 6.617C6.85187 6.64054 6.78803 6.66332 6.72177 6.68686C6.57485 6.73925 6.42621 6.79088 6.2841 6.84327C6.27723 6.84555 6.2714 6.84859 6.26385 6.85087C6.21682 6.86833 6.17185 6.8858 6.12516 6.90402C5.96691 6.96325 5.81004 7.02247 5.65865 7.08246C5.59412 7.10827 5.53267 7.13333 5.46882 7.15915C5.36275 7.20167 5.25496 7.24419 5.15232 7.28747C5.12966 7.29734 5.10804 7.30645 5.08538 7.31632C5.0157 7.34594 4.94944 7.37555 4.88079 7.4044C4.76957 7.453 4.65835 7.50159 4.5509 7.55019C4.47984 7.58208 4.41153 7.61397 4.34254 7.64662C4.278 7.67699 4.21037 7.70737 4.14824 7.73774C4.11219 7.75444 4.07856 7.77267 4.04286 7.79013C3.9766 7.82202 3.91206 7.85467 3.84787 7.88732C3.75519 7.93364 3.66491 7.98071 3.57703 8.02779C3.51318 8.0612 3.45036 8.09537 3.38857 8.1303C3.35287 8.14928 3.31477 8.16902 3.28078 8.18876C3.23101 8.2161 3.1857 8.24419 3.1373 8.27229C3.08031 8.30494 3.02264 8.33835 2.96772 8.37176C2.88533 8.42111 2.80672 8.47123 2.72914 8.52058C2.67937 8.55247 2.62856 8.58436 2.57947 8.61625C2.56471 8.62613 2.54858 8.636 2.53382 8.64587C2.46551 8.69143 2.40303 8.73774 2.33884 8.78406C2.30279 8.80988 2.26435 8.83493 2.22968 8.86227C2.11846 8.94427 2.01238 9.02628 1.91317 9.10905C1.91249 9.10905 1.9118 9.1098 1.91111 9.11056C1.91111 9.11056 1.91043 9.11056 1.90974 9.11056C1.80985 9.19409 1.71648 9.27837 1.62894 9.36265C1.60148 9.38771 1.57882 9.41428 1.55239 9.4401C1.50262 9.48946 1.45113 9.53957 1.40547 9.58968C1.39758 9.5988 1.39071 9.60715 1.38281 9.61626C1.35329 9.64891 1.32789 9.68232 1.30043 9.71421C1.25615 9.7666 1.21255 9.81975 1.17307 9.87291C1.1463 9.90783 1.12296 9.94428 1.09859 9.97921C1.07593 10.0119 1.05018 10.0445 1.02959 10.0779C1.01894 10.0946 1.01139 10.1121 1.00144 10.1288C0.977408 10.169 0.955779 10.2093 0.934496 10.2495C0.909094 10.2974 0.884721 10.3452 0.863438 10.3938C0.845244 10.4348 0.829114 10.475 0.813667 10.516C0.803712 10.5419 0.79032 10.5684 0.782082 10.5943C0.772813 10.6223 0.766637 10.6512 0.758741 10.6793C0.751876 10.7028 0.745351 10.7271 0.739172 10.7507C0.718919 10.8327 0.702443 10.9154 0.693518 10.9974C0.688712 11.0415 0.685625 11.0848 0.684938 11.128C0.683565 11.1675 0.687682 11.2078 0.689055 11.2472C0.689742 11.2761 0.68974 11.3042 0.6918 11.3323C0.699695 11.4257 0.712054 11.5183 0.734023 11.611C1.08519 13.084 1.45079 14.6178 1.82358 16.1812L2.29902 18.1736C2.56711 19.3005 2.84002 20.4447 3.11635 21.6034L4.1757 26.0446C4.57184 27.7083 4.97347 29.3909 5.37648 31.0819L6.51306 35.848C6.89238 37.4403 7.27136 39.0303 7.64896 40.615L10.7271 53.5232C10.8867 54.1944 11.045 54.8573 11.2019 55.5156L12.2914 60.0859C12.3103 60.1633 12.3357 60.24 12.3666 60.3174C12.3765 60.3425 12.3899 60.3676 12.4009 60.3926C12.425 60.445 12.4493 60.4966 12.4781 60.5483C12.495 60.5786 12.5142 60.6075 12.5324 60.6364C12.5612 60.6842 12.5921 60.7313 12.6254 60.7784C12.6481 60.8095 12.6718 60.8398 12.6958 60.8702C12.7318 60.9165 12.7703 60.9621 12.8104 61.0077C12.8372 61.038 12.8647 61.0684 12.8942 61.0988C12.9378 61.1451 12.9848 61.1906 13.0322 61.237C13.0631 61.2666 13.0933 61.2954 13.1259 61.325C13.1802 61.3736 13.2392 61.4222 13.2989 61.4716C13.3298 61.4974 13.3593 61.5217 13.3916 61.5475C13.4726 61.6106 13.5578 61.6743 13.647 61.7366C13.6625 61.7472 13.6752 61.7579 13.6906 61.7685C13.7967 61.8414 13.9086 61.9143 14.0253 61.9872C14.0589 62.0077 14.0957 62.0289 14.13 62.0494C14.2158 62.1003 14.303 62.1527 14.3947 62.2043C14.441 62.2309 14.4904 62.2567 14.5395 62.2833C14.6233 62.3296 14.7077 62.3744 14.7956 62.4192C14.8505 62.4473 14.9075 62.4754 14.9638 62.5035C15.051 62.5468 15.1396 62.5893 15.2305 62.6318C15.2909 62.6607 15.3524 62.6888 15.4142 62.7169C15.5086 62.7601 15.6054 62.8027 15.7032 62.8444C15.7657 62.8718 15.8278 62.8991 15.8924 62.9257C15.9984 62.9712 16.1083 63.0145 16.2188 63.0593C16.2799 63.0836 16.339 63.1079 16.4004 63.1322C16.534 63.1838 16.6699 63.2355 16.8086 63.2871C16.8529 63.3038 16.8944 63.3198 16.9387 63.3357C17.1237 63.4025 17.3135 63.4701 17.5078 63.5369C17.5528 63.5521 17.5998 63.5673 17.6444 63.5825C17.7958 63.6333 17.9496 63.6835 18.1072 63.7343C18.1796 63.7579 18.2548 63.7807 18.3286 63.8042C18.4628 63.846 18.5981 63.8877 18.7368 63.9302C18.8205 63.9553 18.9056 63.9804 18.9901 64.0054C19.1243 64.0449 19.2589 64.0844 19.3965 64.1231C19.4865 64.1489 19.5767 64.174 19.6687 64.1998C19.8081 64.2385 19.9495 64.2765 20.0923 64.3152C20.1843 64.3395 20.2753 64.3638 20.368 64.3881C20.5194 64.4283 20.6739 64.4671 20.8287 64.5073C20.9172 64.5293 21.0044 64.5513 21.094 64.5734C21.2725 64.6182 21.4548 64.6614 21.6378 64.7055C21.7068 64.7214 21.7744 64.7389 21.8444 64.7548C22.1005 64.8148 22.3607 64.8748 22.6254 64.934C22.6628 64.9424 22.7019 64.95 22.7393 64.9591C22.9652 65.0092 23.1945 65.0586 23.4266 65.1079C23.521 65.1277 23.6171 65.1474 23.7122 65.1671C23.8938 65.2051 24.0764 65.2431 24.2614 65.2795C24.3675 65.3015 24.4753 65.3228 24.5827 65.3433C24.7612 65.379 24.9408 65.4139 25.1224 65.4489C25.237 65.4709 25.3523 65.4929 25.4684 65.5142C25.6479 65.5476 25.8298 65.581 26.0128 65.6144C26.1295 65.6356 26.2462 65.6569 26.364 65.6774C26.5559 65.7116 26.7488 65.7457 26.9438 65.7791C27.0557 65.7989 27.1669 65.8179 27.2798 65.8376C27.5013 65.8756 27.7251 65.9128 27.9503 65.9485C28.0395 65.9637 28.1281 65.9781 28.2177 65.9933C28.8544 66.0965 29.5077 66.1968 30.176 66.294C30.2704 66.3076 30.3673 66.3213 30.4623 66.335C30.7009 66.3691 30.9412 66.4033 31.1832 66.4375C31.3058 66.4542 31.4293 66.4709 31.5526 66.4883C31.7743 66.5179 31.9964 66.5483 32.2209 66.5779C32.2772 66.5855 32.3315 66.5931 32.3878 66.6007C32.4533 66.6098 32.5206 66.6174 32.5862 66.6265C32.8543 66.6615 33.1244 66.6949 33.396 66.729C33.5079 66.7435 33.6198 66.7579 33.732 66.7716C34.0551 66.811 34.3812 66.8505 34.7097 66.8885C34.768 66.8953 34.8264 66.9029 34.8848 66.909C35.2751 66.9545 35.6691 66.9986 36.0666 67.0419C36.161 67.0525 36.2572 67.0624 36.3523 67.073C36.6533 67.1057 36.9557 67.1375 37.2612 67.1694C37.3175 67.1748 37.3718 67.1808 37.4281 67.1869C37.5359 67.1983 37.6454 67.2082 37.7538 67.2188C37.9269 67.237 38.0992 67.2537 38.2736 67.2712C38.4613 67.2902 38.6498 67.3076 38.8383 67.3258C39.0071 67.3418 39.1754 67.3577 39.3453 67.3737C39.5379 67.3919 39.7321 67.4101 39.9264 67.4276C40.0953 67.4428 40.2649 67.4587 40.4359 67.4732C40.6336 67.4906 40.8334 67.5081 41.0325 67.5248C41.2 67.5392 41.3665 67.5536 41.5347 67.5673C41.6126 67.5734 41.6895 67.5802 41.7674 67.5871C41.8299 67.5916 41.8941 67.5962 41.9566 67.6007C42.5412 67.6486 43.1306 67.6956 43.7279 67.7397C43.7996 67.7458 43.8727 67.7503 43.9445 67.7556C44.5613 67.8012 45.1827 67.8445 45.8115 67.8862C45.8304 67.8877 45.849 67.8893 45.8685 67.89C45.8747 67.8908 45.8812 67.8908 45.8881 67.8915C46.4655 67.9295 47.0487 67.9652 47.6361 68.0001C47.7668 68.0077 47.8969 68.0153 48.0284 68.0229C48.5934 68.0555 49.1643 68.0867 49.7379 68.1163C49.7894 68.1193 49.8399 68.1216 49.8907 68.1246C49.9696 68.1284 50.0517 68.1315 50.1313 68.136C50.6905 68.1641 51.2531 68.1915 51.8202 68.2158C51.857 68.2173 51.8934 68.2196 51.9301 68.2203C52.5267 68.2469 53.1295 68.2712 53.7343 68.294C53.8081 68.2962 53.8813 68.3 53.9557 68.3023C54.0107 68.3046 54.0677 68.3069 54.1233 68.3084C54.7199 68.3297 55.3199 68.3509 55.9241 68.3691C56.0442 68.3729 56.1647 68.376 56.2856 68.3798C56.8849 68.3972 57.4877 68.4139 58.0939 68.4284C58.1248 68.4291 58.155 68.4299 58.1859 68.4306C58.1945 68.4306 58.2041 68.4306 58.2134 68.4306C58.879 68.4466 59.5504 68.4595 60.224 68.4709C60.3472 68.4724 60.4708 68.4747 60.594 68.477C61.239 68.4868 61.8868 68.4952 62.5376 68.5013C62.6025 68.502 62.667 68.5035 62.7326 68.5035C62.8184 68.5043 62.9056 68.5043 62.9921 68.5051C63.609 68.5104 64.2272 68.5149 64.8499 68.5164C65.8193 68.5195 66.7829 68.5172 67.741 68.5119C67.7671 68.5119 67.7945 68.5119 67.8206 68.5119C67.8684 68.5119 67.9143 68.5111 67.9621 68.5111C68.8693 68.5051 69.7698 68.4952 70.664 68.4823C70.7759 68.4808 70.8878 68.4785 71 68.477C71.8785 68.4625 72.7507 68.4451 73.6168 68.4246C73.6683 68.4238 73.7222 68.423 73.7751 68.4223C73.8201 68.4208 73.8636 68.4193 73.9086 68.4185C74.634 68.4003 75.3542 68.3798 76.0695 68.3562C76.1808 68.3524 76.2909 68.3494 76.4022 68.3456C77.1134 68.3221 77.8202 68.297 78.5216 68.2682C78.6307 68.2636 78.7409 68.259 78.8501 68.2545C79.5521 68.2256 80.2472 68.1945 80.9379 68.1611C81.0405 68.1565 81.1431 68.1505 81.2451 68.1459C81.9409 68.1117 82.6309 68.0745 83.3147 68.0358C83.3483 68.0335 83.3837 68.032 83.418 68.0305C83.5368 68.0237 83.6528 68.0161 83.7706 68.0092C84.0373 67.9933 84.3037 67.9773 84.5683 67.9614C84.7462 67.95 84.9229 67.9401 85.1001 67.9287C85.3562 67.9128 85.6116 67.8961 85.8663 67.8794C86.0427 67.8672 86.2181 67.8551 86.3939 67.8437C86.6507 67.8262 86.9054 67.8088 87.1601 67.7906C87.3276 67.7776 87.4954 67.7663 87.6616 67.7541C87.9283 67.7344 88.1926 67.7139 88.4566 67.6941C88.6101 67.682 88.7642 67.6706 88.9173 67.6592C89.2424 67.6334 89.565 67.6068 89.8874 67.5802C89.9718 67.5734 90.0576 67.5666 90.1414 67.5597C90.5492 67.5256 90.9533 67.4906 91.3542 67.4542C91.462 67.4443 91.5681 67.4344 91.6762 67.4246C91.9687 67.398 92.2601 67.3714 92.5491 67.3441C92.6913 67.3304 92.8313 67.3167 92.9721 67.3031C93.2268 67.2788 93.4808 67.2537 93.7324 67.2287C93.788 67.2226 93.8457 67.2173 93.9013 67.212C94.0132 67.2013 94.122 67.1892 94.2333 67.1778C94.4162 67.1596 94.5985 67.1406 94.7797 67.1208C94.948 67.1034 95.1158 67.0844 95.2826 67.0669C95.4656 67.0472 95.6479 67.0274 95.8291 67.0069C95.9936 66.9887 96.1563 66.9697 96.3193 66.9508C96.4995 66.9303 96.6808 66.9098 96.8603 66.8885C97.0206 66.8695 97.181 66.8505 97.3402 66.8308C97.5167 66.8103 97.6935 66.7883 97.8685 66.767C98.0309 66.7473 98.1915 66.7268 98.3525 66.7063C98.5235 66.685 98.6938 66.6637 98.862 66.6417C99.0195 66.622 99.175 66.6007 99.3312 66.5802C99.5008 66.5574 99.6704 66.5354 99.8382 66.5126C99.9937 66.4914 100.148 66.4693 100.302 66.4488C100.468 66.4261 100.634 66.4033 100.796 66.3805C100.942 66.3593 101.086 66.3388 101.23 66.3182C101.401 66.2924 101.572 66.2689 101.741 66.2431C101.763 66.24 101.786 66.237 101.808 66.234C101.871 66.2241 101.933 66.2142 101.996 66.2044C102.265 66.1641 102.532 66.1231 102.795 66.0813C102.906 66.0646 103.016 66.0472 103.125 66.029C103.363 65.991 103.598 65.9523 103.831 65.9143C103.941 65.8961 104.051 65.8771 104.16 65.8589C104.407 65.8171 104.65 65.7753 104.892 65.7328C104.977 65.7176 105.063 65.7032 105.148 65.688C105.472 65.6303 105.793 65.5719 106.109 65.5126C106.112 65.5119 106.116 65.5111 106.119 65.5111C106.241 65.4883 106.359 65.4648 106.48 65.4412C106.629 65.4132 106.78 65.3843 106.926 65.3562C107.731 65.1975 108.502 65.035 109.238 64.8672C109.477 64.8125 109.712 64.7571 109.944 64.7025C110.01 64.6865 110.075 64.6706 110.142 64.6546C110.301 64.6159 110.46 64.5772 110.614 64.5384C110.697 64.5172 110.777 64.4967 110.858 64.4762C110.996 64.4412 111.135 64.4056 111.271 64.3691C111.35 64.3486 111.429 64.3274 111.506 64.3061C111.583 64.2856 111.661 64.2651 111.736 64.2453C111.799 64.2279 111.859 64.2104 111.921 64.1937C111.987 64.1755 112.053 64.1565 112.119 64.1383C112.256 64.0996 112.391 64.0601 112.524 64.0214C112.589 64.0031 112.654 63.9841 112.718 63.9644C112.868 63.9196 113.015 63.8748 113.16 63.8292C113.2 63.8163 113.242 63.8042 113.282 63.7928C113.455 63.7374 113.627 63.6827 113.794 63.6265C113.804 63.6227 113.815 63.6197 113.825 63.6159C113.86 63.6045 113.892 63.5931 113.927 63.5817C114.064 63.5354 114.199 63.4891 114.332 63.4428C114.391 63.4222 114.448 63.401 114.507 63.3797C114.614 63.341 114.719 63.3023 114.823 63.2636C114.883 63.2415 114.943 63.2188 115.002 63.196C115.107 63.1565 115.209 63.1163 115.31 63.0753C115.36 63.0555 115.411 63.0358 115.46 63.016C115.477 63.0092 115.495 63.0024 115.511 62.9955C115.636 62.9439 115.757 62.893 115.875 62.8414C115.882 62.8391 115.887 62.8368 115.892 62.8338C116.034 62.7723 116.17 62.71 116.302 62.6485C116.342 62.6303 116.379 62.6121 116.418 62.5931C116.509 62.5498 116.599 62.5058 116.686 62.4625C116.732 62.4389 116.777 62.4154 116.822 62.3919C116.86 62.3729 116.899 62.3539 116.935 62.3342C116.972 62.3144 117.008 62.2939 117.044 62.2734C117.091 62.2484 117.138 62.2226 117.184 62.1967C117.257 62.155 117.328 62.1132 117.399 62.0714C117.437 62.0487 117.477 62.0259 117.513 62.0031C117.595 61.953 117.674 61.9021 117.751 61.8512C117.772 61.8361 117.796 61.8224 117.817 61.808C117.909 61.7457 117.997 61.6827 118.081 61.6197C118.085 61.6174 118.088 61.6143 118.091 61.6113C118.125 61.5863 118.154 61.5612 118.186 61.5361C118.241 61.4921 118.298 61.4488 118.349 61.4048C118.382 61.3767 118.412 61.3486 118.442 61.3213C118.489 61.2795 118.535 61.2385 118.577 61.1975C118.608 61.1671 118.636 61.1367 118.664 61.1071C118.702 61.0669 118.74 61.0282 118.775 60.9879C118.802 60.9568 118.826 60.9257 118.852 60.8938C118.874 60.8664 118.899 60.8383 118.919 60.811C118.929 60.7981 118.936 60.7852 118.945 60.773C118.963 60.7487 118.979 60.7252 118.995 60.7001C119.025 60.6561 119.052 60.6121 119.077 60.5673C119.092 60.5422 119.106 60.5171 119.119 60.4921C119.143 60.445 119.165 60.3987 119.184 60.3531C119.193 60.3311 119.204 60.3091 119.212 60.2863C119.238 60.218 119.26 60.1496 119.277 60.0813L130.833 11.6064C130.852 11.5282 130.865 11.4492 130.874 11.3703C130.884 11.2928 130.885 11.2108 130.882 11.1296Z" fill="#B9A6FC"/>
<path d="M130.875 11.3742C130.247 17.2733 100.597 21.9711 64.648 21.8686C28.6999 21.7653 0.0666036 16.9005 0.694111 11.0014C1.32162 5.10234 30.972 0.403742 66.9208 0.507767C102.869 0.611033 131.502 5.47592 130.875 11.3742Z" fill="#B9A6FC"/>
<path d="M130.875 11.3742C130.247 17.2733 100.597 21.9711 64.648 21.8686C28.6999 21.7653 0.0666036 16.9005 0.694111 11.0014C1.32162 5.10234 30.972 0.403742 66.9208 0.507767C102.869 0.611033 131.502 5.47592 130.875 11.3742Z" fill="#3600F0" fill-opacity="0.25"/>
</svg>