<svg width="25" height="54" viewBox="0 0 25 54" fill="none" xmlns="http://www.w3.org/2000/svg">
<path d="M24.318 3.0615C24.3146 3.05086 24.3102 3.03797 24.306 3.02734C24.2968 3.00228 24.2844 2.97569 24.2686 2.94987C24.2614 2.93621 24.2532 2.92482 24.2439 2.91115C24.225 2.8861 24.2024 2.86105 24.177 2.83371C24.167 2.82308 24.1574 2.8132 24.1461 2.80257C24.1073 2.76688 24.063 2.73119 24.0118 2.69702C24.0064 2.69246 23.9998 2.68792 23.9937 2.68488C23.9473 2.65375 23.8958 2.62413 23.8402 2.593C23.8193 2.58237 23.7966 2.57099 23.7747 2.55884C23.7297 2.53531 23.682 2.51253 23.6318 2.49051C23.6051 2.47836 23.5783 2.46543 23.5501 2.4548C23.4966 2.43278 23.4396 2.41002 23.3806 2.388C23.3531 2.37585 23.327 2.36598 23.2982 2.35535C23.2117 2.32421 23.1211 2.29459 23.026 2.26497C23.0212 2.26194 23.0181 2.26043 23.014 2.26043C22.9669 2.24449 22.9154 2.23235 22.8663 2.21564C22.8276 2.20501 22.7891 2.19361 22.7489 2.18146C22.7026 2.16779 22.6539 2.15641 22.6055 2.14274C22.5526 2.12907 22.5001 2.11465 22.4451 2.10099C22.4379 2.09795 22.4318 2.09793 22.4242 2.09489C22.4101 2.09185 22.3933 2.08882 22.3792 2.08578C22.2464 2.05313 22.1077 2.0205 21.9628 1.98937C21.9402 1.98481 21.9199 1.97872 21.8973 1.97416C21.8846 1.97113 21.8705 1.96962 21.8578 1.96659C21.7184 1.93697 21.5743 1.90886 21.426 1.88229C21.4181 1.87925 21.4105 1.87925 21.4033 1.87622C21.3731 1.87166 21.3408 1.86711 21.3106 1.86104C21.2107 1.84357 21.1095 1.82534 21.0048 1.80788C20.9773 1.80332 20.9519 1.79726 20.9237 1.7927C20.8836 1.78663 20.84 1.78056 20.7991 1.77372C20.7288 1.76309 20.657 1.75171 20.5846 1.74108C20.5403 1.73348 20.4981 1.72739 20.4531 1.72207C20.4202 1.716 20.3862 1.71145 20.3539 1.7069C20.2781 1.69627 20.2012 1.6864 20.1239 1.67425C20.0824 1.67121 20.0429 1.66362 20.0014 1.6583C19.9797 1.65527 19.9571 1.65374 19.9358 1.6507C19.8641 1.64159 19.7909 1.63324 19.7185 1.62413C19.6602 1.61501 19.6045 1.60895 19.5455 1.60211C19.5146 1.59756 19.481 1.59453 19.4497 1.58997C19.3982 1.58541 19.345 1.57933 19.2929 1.5725C19.2259 1.56642 19.1593 1.55732 19.0903 1.55048C19.0587 1.54745 19.0265 1.5444 18.9952 1.53985C18.9496 1.53529 18.9032 1.53073 18.8572 1.52618C18.7862 1.51858 18.7158 1.511 18.6427 1.50416C18.6012 1.49961 18.5582 1.49658 18.516 1.49202C18.4662 1.48898 18.4161 1.48291 18.3653 1.47835C18.3063 1.47227 18.2493 1.4677 18.1896 1.46315C18.148 1.45859 18.1051 1.45556 18.0629 1.45101C18.0032 1.44645 17.9434 1.44038 17.8834 1.43583C17.8363 1.43127 17.7914 1.42823 17.7447 1.42519C17.6743 1.41912 17.6019 1.41305 17.5315 1.40925C17.4979 1.40621 17.4653 1.40469 17.4309 1.40165C17.388 1.39861 17.3465 1.39407 17.3029 1.39104C17.2099 1.38496 17.1151 1.37888 17.0214 1.37356C16.9847 1.37053 16.9476 1.369 16.9109 1.36596C16.8988 1.36596 16.8875 1.36446 16.8752 1.36446C16.7403 1.35535 16.6043 1.34851 16.4674 1.34092C16.4574 1.3394 16.4478 1.3394 16.4378 1.33788C16.3997 1.33636 16.3613 1.33485 16.3232 1.33181C16.2459 1.32877 16.1697 1.3242 16.0925 1.31964C16.0523 1.31812 16.0115 1.31662 15.971 1.3151C15.9071 1.31206 15.8429 1.30903 15.7777 1.30599C15.7588 1.30448 15.7403 1.30445 15.7214 1.30294C15.6229 1.29838 15.5237 1.29384 15.4245 1.28929C15.3929 1.28929 15.3613 1.28929 15.3301 1.28625C15.3081 1.28625 15.2858 1.28624 15.2645 1.28472C15.2175 1.28169 15.1715 1.28169 15.1251 1.27865C15.0273 1.27561 14.9295 1.27258 14.8317 1.26954C14.7565 1.26803 14.681 1.26497 14.6051 1.26345C14.5292 1.26041 14.4537 1.26042 14.3772 1.25738C14.3188 1.25586 14.2584 1.25434 14.1993 1.25434C14.1739 1.25434 14.1485 1.25284 14.1228 1.25284C14.0559 1.2498 13.9886 1.24979 13.9209 1.24827C13.8592 1.24827 13.7984 1.24676 13.7373 1.24524C13.6951 1.24524 13.6522 1.24524 13.6099 1.24524C13.589 1.24524 13.5691 1.24373 13.5481 1.24373C13.4877 1.24221 13.428 1.2422 13.3679 1.2422C13.3055 1.2422 13.244 1.24067 13.1815 1.24067C13.1191 1.24067 13.0576 1.23917 12.9944 1.23917C12.9931 1.23917 12.9903 1.23917 12.9876 1.23917C12.932 1.23917 12.8757 1.23917 12.8201 1.23917C12.7617 1.23917 12.704 1.23917 12.6464 1.23917C12.588 1.23917 12.531 1.23915 12.4727 1.24067C12.462 1.24067 12.4507 1.24067 12.4397 1.24067C12.4061 1.24067 12.3728 1.24068 12.3398 1.2422C12.3264 1.2422 12.313 1.2422 12.3003 1.2422C12.2427 1.2422 12.1857 1.2422 12.1287 1.2422C12.0649 1.24372 12.0013 1.24372 11.9382 1.24524C11.9186 1.24524 11.8994 1.24524 11.8798 1.24524C11.8455 1.24524 11.8122 1.24677 11.7779 1.24677C11.7617 1.24677 11.7456 1.24827 11.7302 1.24827C11.6605 1.24827 11.5915 1.2498 11.5225 1.2498C11.4535 1.25132 11.3845 1.25434 11.3158 1.25434C11.2949 1.25586 11.275 1.25587 11.254 1.25587C11.2379 1.25587 11.2225 1.25586 11.207 1.25738C11.1734 1.25738 11.1408 1.2589 11.1078 1.26042C10.9993 1.26193 10.8912 1.2665 10.7834 1.26802C10.6948 1.27105 10.6077 1.27409 10.5198 1.27712C10.4305 1.28016 10.3409 1.28321 10.2524 1.28625C10.2194 1.28777 10.1868 1.28929 10.1538 1.28929C9.86755 1.30144 9.58745 1.31434 9.30974 1.32801C9.28811 1.32953 9.26545 1.32953 9.24417 1.33104C9.18512 1.33408 9.12676 1.33864 9.06909 1.34168C9.04026 1.3432 9.01211 1.34471 8.98397 1.34775C8.97676 1.34775 8.96921 1.34775 8.962 1.34775C8.86897 1.35231 8.77628 1.35837 8.6836 1.3652C8.63657 1.36824 8.59058 1.36976 8.54492 1.3728C8.51609 1.37432 8.48725 1.37735 8.4591 1.37887C8.44777 1.37887 8.43644 1.3804 8.42545 1.3804C8.35577 1.38648 8.28746 1.3895 8.21811 1.39558C8.15323 1.40013 8.0887 1.4062 8.02451 1.41076C7.9816 1.41227 7.93938 1.41685 7.89647 1.41989C7.86832 1.42292 7.83949 1.42443 7.81065 1.42746C7.74234 1.43202 7.67403 1.43811 7.60606 1.44343C7.56658 1.44647 7.5271 1.4495 7.48728 1.45254C7.47458 1.45405 7.46188 1.45556 7.44918 1.45708C7.42962 1.4586 7.41108 1.46012 7.3922 1.46164C7.32183 1.46772 7.25145 1.47379 7.18108 1.48062C7.1114 1.48669 7.04171 1.49278 6.97272 1.49809C6.89308 1.5072 6.81309 1.51403 6.73414 1.52314C6.69912 1.52618 6.66515 1.53074 6.63013 1.53378C6.55358 1.54137 6.47875 1.54897 6.40357 1.55732C6.33972 1.56491 6.27621 1.57097 6.21374 1.5778C6.18696 1.58084 6.16087 1.58388 6.13478 1.58844C6.07574 1.59451 6.01807 1.60211 5.9604 1.60895C5.93637 1.61047 5.912 1.61351 5.88866 1.61655C5.83236 1.62414 5.77812 1.63172 5.72251 1.63703C5.67102 1.64463 5.6185 1.65071 5.567 1.65754C5.55842 1.65906 5.54881 1.65906 5.54023 1.66058C5.49663 1.66665 5.4551 1.67273 5.41219 1.67805C5.31848 1.6902 5.22373 1.70462 5.13208 1.71677C5.12864 1.71829 5.12521 1.71828 5.12212 1.7198C5.10599 1.72132 5.09123 1.72437 5.07578 1.7274C4.94842 1.74487 4.82382 1.76461 4.70161 1.7836C4.69234 1.78511 4.68204 1.78662 4.67209 1.78814C4.64943 1.79118 4.62918 1.79574 4.60756 1.79877C4.48672 1.81928 4.36829 1.84054 4.25295 1.86104C4.23475 1.86407 4.21485 1.86711 4.19734 1.87014C4.17709 1.8747 4.15923 1.87774 4.13898 1.88078C4.03771 1.89976 3.93919 1.92102 3.84273 1.93848C3.81596 1.94455 3.78575 1.95063 3.75898 1.95442C3.7449 1.95746 3.73151 1.96051 3.71744 1.96355C3.62476 1.98405 3.53585 2.00377 3.44797 2.02276C3.42257 2.02883 3.39579 2.03341 3.37073 2.03872C3.36455 2.04024 3.36009 2.04175 3.3546 2.04326C2.87779 2.15336 2.47444 2.27333 2.14902 2.39937C2.11091 2.41456 2.0711 2.42899 2.03574 2.44569C2.03299 2.44569 2.03024 2.44721 2.02784 2.44873C2.00175 2.45936 1.97806 2.47228 1.95335 2.48291C1.92108 2.49658 1.88779 2.50949 1.85758 2.52619C1.8514 2.52923 1.84694 2.53073 1.84076 2.53377C1.81673 2.54744 1.79441 2.55884 1.77176 2.57099C1.7491 2.58314 1.72473 2.59302 1.70344 2.60517C1.69658 2.60972 1.69143 2.61275 1.68457 2.61731C1.66122 2.63098 1.6396 2.64388 1.61832 2.65906C1.60287 2.66818 1.58537 2.67652 1.57129 2.68715C1.5634 2.69322 1.55653 2.69779 1.54863 2.70462C1.52838 2.71829 1.50984 2.73272 1.49164 2.74791C1.48169 2.7555 1.47002 2.76157 1.46075 2.76992C1.45217 2.77599 1.4453 2.7851 1.43741 2.79193C1.42127 2.8056 1.40583 2.82005 1.39175 2.83371C1.38558 2.84131 1.37768 2.84888 1.3715 2.8542C1.36292 2.86331 1.35674 2.87318 1.34885 2.88381C1.33752 2.89748 1.32619 2.9104 1.31658 2.92559C1.31315 2.93015 1.308 2.93621 1.30456 2.94077C1.2977 2.95292 1.29392 2.9628 1.28843 2.97495C1.28122 2.99013 1.27229 3.00455 1.2668 3.01974C1.26543 3.02429 1.262 3.02885 1.26063 3.03341C1.25273 3.05695 1.24724 3.08124 1.24449 3.10478C1.24381 3.11237 1.24311 3.11997 1.24311 3.12832C1.24174 3.15794 1.24518 3.18449 1.2517 3.21411L12.7871 51.6009L24.3218 3.2126C24.3246 3.19893 24.3273 3.18451 24.3287 3.17084C24.3314 3.13592 24.3273 3.0987 24.318 3.0615Z" fill="#07046B" stroke="white" stroke-miterlimit="10"/>
<path d="M24.3262 3.17574C24.2149 4.22283 18.9577 5.05504 12.5831 5.0353C6.20845 5.01936 1.13107 4.156 1.24229 3.10891C1.35351 2.06334 6.61146 1.22963 12.9854 1.24785C19.3604 1.26759 24.4377 2.13017 24.3262 3.17574Z" fill="#07046B"/>
<path d="M24.3262 3.17574C24.2149 4.22283 18.9577 5.05504 12.5831 5.0353C6.20845 5.01936 1.13107 4.156 1.24229 3.10891C1.35351 2.06334 6.61146 1.22963 12.9854 1.24785C19.3604 1.26759 24.4377 2.13017 24.3262 3.17574Z" fill="#011145" fill-opacity="0.85"/>
</svg>