<svg width="78" height="62" viewBox="0 0 78 62" fill="none" xmlns="http://www.w3.org/2000/svg">
<path d="M77.3687 6.5701C77.3667 6.5496 77.3632 6.52985 77.3615 6.51087C77.3553 6.46683 77.3481 6.42432 77.3375 6.38104C77.332 6.35978 77.3261 6.337 77.3186 6.31574C77.3052 6.27246 77.2884 6.22916 77.2695 6.18588C77.2616 6.16766 77.2541 6.14791 77.2448 6.12969C77.2153 6.06894 77.1809 6.00821 77.1408 5.94746C77.1346 5.93987 77.1281 5.93151 77.1219 5.92315C77.0859 5.87076 77.0453 5.81913 77.0011 5.76674C76.9836 5.74624 76.9643 5.72574 76.9461 5.70524C76.9094 5.665 76.8703 5.62476 76.8287 5.58452C76.8068 5.5625 76.7838 5.54124 76.7604 5.51998C76.7148 5.47746 76.666 5.43645 76.6149 5.39469C76.5929 5.37722 76.572 5.359 76.5493 5.34153C76.4748 5.28306 76.3966 5.22535 76.3128 5.16765C76.2953 5.15474 76.2761 5.14411 76.2579 5.13196C76.1889 5.08489 76.1164 5.03857 76.0413 4.99226C76.0076 4.97327 75.9729 4.95201 75.9386 4.93226C75.8724 4.8943 75.8051 4.85557 75.7347 4.81761C75.6973 4.79711 75.6595 4.77662 75.6207 4.75687C75.5428 4.71511 75.4618 4.67562 75.3794 4.63462C75.3458 4.61867 75.3145 4.60274 75.2809 4.58679C75.1649 4.53212 75.0447 4.47668 74.9201 4.42201C74.8885 4.40759 74.8546 4.39392 74.8216 4.38026C74.7252 4.33849 74.6259 4.2975 74.524 4.25649C74.4749 4.23675 74.4248 4.21701 74.375 4.19803C74.283 4.16158 74.1886 4.1259 74.0922 4.09021C74.0407 4.07047 73.9881 4.05071 73.9353 4.03249C73.8254 3.99224 73.7121 3.95351 73.5975 3.91403C73.5573 3.8996 73.5185 3.8867 73.4773 3.87151C73.3218 3.81988 73.1629 3.76824 72.9992 3.71737C72.9899 3.71433 72.981 3.7113 72.9717 3.70826C72.9106 3.68928 72.8464 3.66953 72.7846 3.65207C72.7074 3.62853 72.6318 3.60424 72.5526 3.58146C72.4753 3.55868 72.3957 3.53514 72.3164 3.51236C72.2385 3.49034 72.1616 3.46756 72.0823 3.44554C71.9992 3.42276 71.9141 3.39924 71.8289 3.37646C71.751 3.3552 71.6741 3.33393 71.5948 3.31343C71.5049 3.28913 71.4132 3.2656 71.3212 3.24206C71.2433 3.22308 71.1664 3.20181 71.0878 3.18283C71.059 3.17524 71.0308 3.16763 71.002 3.16079C70.9677 3.15244 70.9309 3.14486 70.8959 3.13575C70.6714 3.08108 70.4421 3.02565 70.2066 2.9725C70.1792 2.9649 70.1524 2.95883 70.1256 2.95352C69.8688 2.89429 69.6045 2.83658 69.3364 2.77964C69.3041 2.77204 69.2739 2.76444 69.242 2.75913C69.2084 2.75229 69.1737 2.74545 69.1407 2.73862C68.9317 2.69534 68.7189 2.65207 68.5026 2.60879C68.4731 2.60271 68.4442 2.59739 68.4147 2.59208C68.1727 2.54424 67.9259 2.49716 67.676 2.45085C67.6465 2.44477 67.6176 2.43872 67.5881 2.43416C67.5325 2.42353 67.4735 2.41441 67.4178 2.40378C67.2675 2.37721 67.1175 2.34986 66.9647 2.32328C66.8683 2.30658 66.7715 2.28912 66.6729 2.27242C66.5167 2.24584 66.3578 2.21926 66.1982 2.19345C66.1271 2.1813 66.0581 2.16915 65.9871 2.15776C65.9764 2.15624 65.9654 2.15398 65.9555 2.15246C65.7135 2.11297 65.4687 2.07348 65.2198 2.03627C65.1838 2.03096 65.1467 2.02488 65.11 2.01956C64.8996 1.98767 64.6871 1.95578 64.4725 1.92465C64.4523 1.92161 64.4331 1.91858 64.4128 1.91478C64.3277 1.90263 64.2398 1.89124 64.154 1.87833C64.0239 1.85935 63.8945 1.84112 63.7623 1.82214C63.6398 1.80619 63.5141 1.78874 63.3895 1.77204C63.2694 1.75609 63.1496 1.73939 63.0287 1.72345C62.9858 1.71737 62.9443 1.71205 62.9014 1.70597C62.8183 1.69534 62.7332 1.68548 62.6494 1.67409C62.5227 1.65814 62.3961 1.64218 62.2687 1.62624C62.1541 1.61105 62.038 1.5974 61.9213 1.58298C61.7919 1.56703 61.6618 1.55031 61.531 1.53513C61.4809 1.52981 61.4311 1.52299 61.3803 1.51691C61.3436 1.51236 61.3051 1.50854 61.2684 1.50475C60.8266 1.45311 60.3786 1.40149 59.9235 1.35213C59.9008 1.35062 59.8792 1.34758 59.8565 1.3453C59.8263 1.3415 59.7954 1.33846 59.7652 1.33543C59.3193 1.28759 58.8675 1.24203 58.4089 1.19723C58.3928 1.19571 58.3773 1.19345 58.3605 1.19269C58.3331 1.18965 58.3042 1.1866 58.2768 1.18432C57.812 1.13952 57.342 1.09625 56.8656 1.05449C56.8587 1.05373 56.8522 1.05298 56.8453 1.05222C56.8278 1.05146 56.8096 1.04994 56.7924 1.04842C56.3438 1.00893 55.89 0.970959 55.4307 0.936031C55.406 0.934513 55.3816 0.931479 55.3562 0.92996C55.3469 0.929201 55.3366 0.928443 55.3267 0.926925C54.8869 0.892756 54.441 0.860867 53.9924 0.828976C53.9542 0.825939 53.9172 0.822906 53.8791 0.819869C53.8502 0.81835 53.8207 0.816817 53.7912 0.814539C53.3755 0.785686 52.957 0.758362 52.5341 0.731027C52.5053 0.729508 52.4778 0.727998 52.4497 0.72572C52.3948 0.721924 52.3378 0.718886 52.2828 0.715849C51.9262 0.693829 51.5675 0.672568 51.2053 0.653585C51.1658 0.650548 51.1274 0.648263 51.0879 0.645985C51.0697 0.644466 51.0512 0.642949 51.033 0.642949C50.6495 0.622448 50.264 0.601174 49.8751 0.582192C49.861 0.582192 49.847 0.581445 49.8329 0.580686C49.79 0.578408 49.7457 0.576133 49.7014 0.574614C49.3942 0.559428 49.0859 0.544996 48.7756 0.531329C48.7145 0.529051 48.6555 0.525242 48.5947 0.522964C48.5216 0.519167 48.4471 0.516894 48.3733 0.513857C48.2078 0.507023 48.042 0.499429 47.8759 0.494114C47.7846 0.490318 47.6943 0.485768 47.6023 0.481972C47.5374 0.479694 47.4722 0.477419 47.408 0.475901C47.2405 0.469067 47.0719 0.462238 46.903 0.456923C46.8018 0.453886 46.7012 0.449324 46.5992 0.446287C46.5436 0.444009 46.488 0.442494 46.4324 0.440216C46.2676 0.43566 46.1005 0.42957 45.9343 0.425015C45.8289 0.421218 45.7246 0.417439 45.6185 0.414402C45.5622 0.412883 45.5059 0.41135 45.4503 0.409072C45.3497 0.406794 45.2485 0.403767 45.1479 0.40073C45.0528 0.398452 44.9573 0.396167 44.8616 0.39313C44.7637 0.390092 44.6652 0.388566 44.5674 0.385529C44.4562 0.382492 44.3449 0.379471 44.2341 0.377952C44.1891 0.376433 44.1448 0.374916 44.0998 0.374916C43.874 0.368842 43.6474 0.364271 43.4202 0.359715C43.4123 0.359715 43.404 0.358968 43.3961 0.358209C43.3752 0.358209 43.3546 0.358209 43.3337 0.358209C43.0817 0.352135 42.8287 0.347569 42.5747 0.343773C42.5263 0.343014 42.4782 0.343021 42.4298 0.341502C42.4243 0.341502 42.4192 0.341502 42.413 0.341502C42.2626 0.339224 42.1119 0.33695 41.9612 0.335431C41.756 0.332394 41.5503 0.329361 41.3451 0.326324C41.1391 0.324806 40.9328 0.323278 40.7255 0.321759C40.651 0.320241 40.5758 0.320248 40.5016 0.319488C40.4721 0.318729 40.4426 0.318724 40.4131 0.318724C40.3104 0.317964 40.2071 0.317194 40.1041 0.317194C39.8964 0.315676 39.6884 0.314159 39.48 0.314159C39.4728 0.314159 39.4653 0.314159 39.4581 0.314159C39.271 0.3134 39.0825 0.312653 38.8954 0.312653C38.7018 0.312653 38.5079 0.312635 38.315 0.313394C38.1214 0.314153 37.9288 0.31417 37.7355 0.315688C37.5429 0.315688 37.3507 0.3172 37.1588 0.317959C36.9662 0.320237 36.7754 0.321747 36.5842 0.323265C36.5581 0.323265 36.5327 0.32403 36.5069 0.32403C36.4815 0.324789 36.4568 0.324795 36.4318 0.324795C36.2708 0.326313 36.1094 0.327823 35.9491 0.330101C35.8345 0.330861 35.7205 0.333153 35.6065 0.335431C35.555 0.335431 35.5032 0.335418 35.4517 0.336937C35.3862 0.337696 35.3189 0.338454 35.2519 0.339973C35.0206 0.34301 34.7892 0.346818 34.5585 0.351373C34.5537 0.351373 34.5492 0.352138 34.5438 0.352138C34.5352 0.352138 34.5262 0.352138 34.517 0.352138C34.3004 0.356694 34.0844 0.35973 33.8685 0.365045C33.7899 0.367323 33.7123 0.368833 33.6337 0.370351C33.5836 0.371111 33.5331 0.372628 33.4823 0.373387C33.3797 0.376424 33.2764 0.37795 33.1741 0.380987C33.1116 0.382506 33.0508 0.384016 32.9884 0.386294C32.6324 0.394646 32.2778 0.404531 31.9249 0.414402C31.8617 0.41668 31.7982 0.41819 31.7344 0.419708C31.7169 0.419708 31.6987 0.421238 31.6808 0.421238C31.2692 0.434905 30.8608 0.447808 30.4547 0.462994C30.4076 0.464513 30.3603 0.466022 30.3139 0.4683C30.1351 0.475134 29.9566 0.481209 29.7787 0.488043C29.7386 0.489562 29.6991 0.491089 29.6579 0.492608C29.2731 0.508553 28.8904 0.52526 28.5093 0.541965C28.4122 0.546521 28.3157 0.551063 28.2189 0.556378C27.8087 0.573842 27.3995 0.595105 26.9955 0.615606C26.9773 0.617125 26.9598 0.617882 26.9419 0.618642C26.8019 0.626235 26.6635 0.634581 26.5248 0.640655C26.3779 0.649767 26.2317 0.656616 26.0865 0.665728C26.0583 0.667246 26.0288 0.668751 26.0007 0.670269C25.8572 0.678622 25.7157 0.686989 25.5729 0.695342C25.449 0.703694 25.3241 0.710521 25.2001 0.717355C25.1565 0.720392 25.1123 0.723425 25.0694 0.726462C24.9327 0.734055 24.7971 0.743182 24.6612 0.751534C24.5373 0.760646 24.413 0.767472 24.2898 0.776583C24.2623 0.778102 24.2342 0.779612 24.2067 0.78189C23.9747 0.797835 23.744 0.81303 23.5147 0.828976C23.2854 0.844921 23.0574 0.862392 22.8302 0.879097C22.7928 0.882134 22.7557 0.885167 22.7183 0.888204C22.6633 0.892 22.6091 0.89655 22.5538 0.900346C22.4196 0.910976 22.285 0.920859 22.1522 0.93149C22.0993 0.936045 22.0475 0.940582 21.9946 0.945138C21.8779 0.95425 21.7605 0.962616 21.6445 0.973246C21.5855 0.977802 21.5264 0.982344 21.4681 0.987659C21.3836 0.994493 21.3005 1.0021 21.2168 1.00893C21.0994 1.01804 20.982 1.02791 20.8656 1.03855C20.8289 1.04158 20.7904 1.04461 20.7537 1.04765C20.6109 1.0598 20.4702 1.07272 20.3287 1.08563C20.2632 1.09095 20.1959 1.09776 20.1296 1.10308C20.1028 1.10536 20.0747 1.1084 20.0479 1.11068C19.8138 1.13194 19.5821 1.15395 19.3507 1.17521C19.0826 1.20103 18.8163 1.22761 18.5523 1.25419C18.5121 1.25798 18.4726 1.26254 18.4321 1.26709C18.1936 1.29063 17.956 1.31568 17.7209 1.3415C17.7054 1.34302 17.69 1.34454 17.6745 1.34606C17.5993 1.35442 17.5262 1.362 17.4521 1.37111C17.265 1.39161 17.0779 1.41137 16.8936 1.43187C16.8668 1.43567 16.8393 1.43946 16.8126 1.44174C16.7662 1.44706 16.7206 1.45313 16.6746 1.45768C16.4017 1.48882 16.1315 1.52071 15.8648 1.55336C15.8191 1.55944 15.7721 1.56399 15.7268 1.5693C15.7021 1.57234 15.6784 1.57537 15.6537 1.57841C15.3104 1.62169 14.9712 1.66345 14.6372 1.70825C14.6125 1.71204 14.5864 1.71508 14.5614 1.71812C14.5277 1.72267 14.4968 1.72723 14.4642 1.73179C14.0379 1.7895 13.6187 1.84721 13.2078 1.90644C13.1931 1.90796 13.1776 1.91099 13.1629 1.91251C13.1045 1.92162 13.0482 1.92998 12.9899 1.93909C12.8275 1.96263 12.6655 1.98691 12.5058 2.01196C12.4128 2.02563 12.3208 2.04008 12.2281 2.05451C12.0887 2.07577 11.949 2.09853 11.8117 2.12055C11.7609 2.1289 11.7084 2.1365 11.6576 2.14409C11.6085 2.1532 11.5625 2.16004 11.5134 2.16763C11.3459 2.19573 11.1794 2.22306 11.0146 2.25191C10.9374 2.26482 10.8598 2.27696 10.7833 2.29063C10.2986 2.37492 9.82656 2.46147 9.37001 2.54879C9.31234 2.56094 9.25604 2.57158 9.19974 2.58297C9.02948 2.61562 8.86128 2.64979 8.69547 2.68396C8.66595 2.69003 8.63574 2.69611 8.60622 2.70143C8.56468 2.70978 8.52589 2.71737 8.4847 2.72648C8.34533 2.75533 8.20837 2.7842 8.07243 2.81381C7.99725 2.82976 7.92173 2.84646 7.84656 2.86241C7.72401 2.88898 7.60248 2.91631 7.48165 2.94365C7.42398 2.95732 7.36425 2.96946 7.30727 2.98237C7.28255 2.98844 7.25887 2.99453 7.23416 2.99984C7.12877 3.02414 7.02579 3.04843 6.92177 3.07425C6.84076 3.09323 6.75803 3.11297 6.67839 3.13271C6.56717 3.16005 6.45904 3.18738 6.35056 3.21472C6.28671 3.23066 6.22115 3.24736 6.15798 3.26331C6.15181 3.26483 6.14597 3.26636 6.13911 3.26787C6.10959 3.27547 6.08144 3.28382 6.05192 3.29142C5.80304 3.35672 5.56171 3.42201 5.32725 3.48959C5.27748 3.50325 5.22668 3.51692 5.17828 3.53211C5.17416 3.53287 5.17038 3.53362 5.16626 3.53514C5.07049 3.56324 4.9778 3.59133 4.88477 3.61942C4.83122 3.63536 4.7763 3.65132 4.72378 3.66727C4.67297 3.68322 4.62389 3.69991 4.57343 3.7151C4.47491 3.74623 4.37638 3.77737 4.28095 3.8085C4.1481 3.85178 4.01801 3.89506 3.89134 3.9391C3.86525 3.94821 3.83985 3.95732 3.81273 3.96719C3.71284 4.00288 3.61226 4.03706 3.5158 4.0735C3.51099 4.07578 3.50653 4.07729 3.50104 4.07881C3.48147 4.0864 3.46293 4.09399 3.44337 4.10082C3.3421 4.13803 3.24289 4.17675 3.14643 4.21471C3.10421 4.23066 3.06404 4.24737 3.02251 4.26407C2.96346 4.28761 2.90305 4.31191 2.84538 4.33621C2.83268 4.34152 2.82134 4.34683 2.80864 4.35215C2.76573 4.36961 2.72489 4.38784 2.68267 4.4053C2.6171 4.43492 2.55119 4.46302 2.48768 4.49188C2.44614 4.5101 2.40599 4.52985 2.36582 4.54807C2.32772 4.56553 2.28722 4.5845 2.25048 4.60197C2.22886 4.6126 2.20963 4.62248 2.18869 4.63235C2.14921 4.65133 2.11008 4.67183 2.07198 4.69081C2.01774 4.71814 1.96351 4.74549 1.91167 4.77358C1.87357 4.79408 1.83649 4.81381 1.79976 4.83355C1.77882 4.84494 1.75616 4.85635 1.73591 4.86849C1.70639 4.88444 1.67962 4.9019 1.65147 4.91709C1.61714 4.93759 1.58247 4.95734 1.5502 4.97708C1.50043 5.00745 1.45305 5.03705 1.40602 5.06666C1.37787 5.08489 1.34904 5.10312 1.32227 5.12058C1.313 5.12666 1.30201 5.13348 1.29274 5.1388L1.29344 5.14033L1.29274 5.1388C1.25258 5.16537 1.21482 5.19347 1.17671 5.2208C1.15509 5.23675 1.13243 5.25119 1.11184 5.26789C1.05073 5.31269 0.992377 5.35824 0.937453 5.40456C0.932647 5.40836 0.927498 5.41216 0.922693 5.4152C0.863649 5.46531 0.808041 5.51542 0.755863 5.56477C0.741103 5.57996 0.728401 5.59287 0.714326 5.60729C0.683432 5.63767 0.652539 5.66803 0.62439 5.69841C0.618898 5.70448 0.615808 5.7098 0.611002 5.71511C0.593495 5.73334 0.578727 5.75309 0.562593 5.77207C0.535818 5.8032 0.509731 5.83509 0.486045 5.86698C0.470598 5.88749 0.456529 5.90875 0.442455 5.92925C0.429067 5.94823 0.413619 5.96798 0.400918 5.98848C0.394739 5.99911 0.390273 6.0082 0.384094 6.01883C0.370019 6.04313 0.357322 6.06592 0.34462 6.08946C0.32986 6.11831 0.315098 6.14716 0.303083 6.17601C0.291755 6.19955 0.282139 6.22385 0.272871 6.24814C0.267378 6.26409 0.259486 6.27928 0.253993 6.29447C0.251247 6.30358 0.25125 6.31193 0.248504 6.32028C0.226877 6.39165 0.20971 6.46227 0.202158 6.53288C0.198726 6.5587 0.197355 6.58453 0.196669 6.61035C0.195296 6.63389 0.198036 6.65818 0.198722 6.68095C0.199409 6.69842 0.198726 6.71587 0.200786 6.73182C0.204905 6.78725 0.212797 6.84193 0.225499 6.8966C4.25418 23.801 8.28389 40.7002 12.3133 57.6039C12.3167 57.6191 12.3225 57.6335 12.3273 57.6502C12.3321 57.6669 12.3366 57.6828 12.3435 57.6988C12.3462 57.7079 12.3483 57.7125 12.3503 57.7193C12.3558 57.7314 12.3623 57.7428 12.3678 57.7565C12.3678 57.7565 12.3685 57.7565 12.3685 57.758C12.3764 57.7755 12.3833 57.7906 12.3919 57.8081C12.3967 57.8157 12.4011 57.8241 12.4059 57.8317C12.4131 57.8453 12.4221 57.8597 12.4307 57.8734C12.4386 57.8871 12.4468 57.9015 12.4567 57.9152C12.4629 57.9258 12.4715 57.9357 12.4784 57.9448C12.489 57.9608 12.5 57.9744 12.5113 57.9881C12.5199 58.0002 12.5275 58.0116 12.5367 58.0222C12.5467 58.0344 12.5587 58.0458 12.5697 58.0595C12.5824 58.0746 12.5958 58.0876 12.6092 58.1043C12.6171 58.1118 12.6246 58.1202 12.6325 58.1293C12.6473 58.143 12.6634 58.1589 12.6788 58.1726C12.6943 58.1878 12.7097 58.2022 12.7259 58.2174C12.732 58.2219 12.7372 58.2295 12.7441 58.2349C12.7643 58.2523 12.787 58.269 12.8089 58.2865C12.8258 58.3017 12.8419 58.3146 12.8591 58.3298C12.8625 58.3328 12.8659 58.3358 12.8697 58.3374C12.8858 58.351 12.9033 58.3624 12.9198 58.3746C12.9363 58.3867 12.9535 58.3996 12.9713 58.4118C12.9833 58.4209 12.994 58.4292 13.007 58.4384C13.0084 58.4399 13.0098 58.4399 13.0111 58.4399C13.0331 58.4573 13.0582 58.4725 13.0815 58.4877C13.1103 58.5067 13.1378 58.5249 13.168 58.5439C13.1708 58.5454 13.1735 58.5469 13.1759 58.5484C13.19 58.5576 13.2047 58.5644 13.2188 58.575C13.2281 58.5796 13.2377 58.5856 13.2476 58.5902C13.2779 58.6077 13.3074 58.6274 13.3396 58.6449C13.3465 58.6494 13.3537 58.654 13.3606 58.6586C13.3846 58.6707 13.4104 58.6836 13.4351 58.6988C13.4653 58.714 13.4948 58.7299 13.5257 58.7466C13.5377 58.7527 13.5497 58.7588 13.5617 58.7641C13.5878 58.7778 13.6153 58.7922 13.6421 58.8043C13.6702 58.818 13.697 58.8324 13.7258 58.8461C13.7433 58.8552 13.7615 58.862 13.7794 58.8712C13.8068 58.8848 13.8357 58.8977 13.8638 58.9099C13.8892 58.9205 13.9146 58.9334 13.9404 58.944C13.9637 58.9562 13.9881 58.9646 14.0114 58.9752C14.041 58.9888 14.0712 59.0002 14.1014 59.0154C14.1233 59.023 14.1463 59.0329 14.169 59.042C14.1992 59.0541 14.2301 59.0671 14.261 59.0792C14.2912 59.0914 14.3214 59.1043 14.3523 59.1164C14.3719 59.1225 14.3918 59.1316 14.4114 59.1384C14.4488 59.1536 14.4865 59.1665 14.5239 59.1802C14.5555 59.1939 14.5864 59.2053 14.6183 59.2174C14.6345 59.222 14.652 59.2295 14.6681 59.2333C14.7083 59.2485 14.7498 59.2614 14.7907 59.2781C14.8236 59.2888 14.8552 59.3017 14.8885 59.3123C14.9081 59.3184 14.9287 59.326 14.9489 59.3328C14.9877 59.345 15.0275 59.3579 15.0663 59.3715C15.1058 59.3837 15.1442 59.3966 15.1837 59.4087C15.2057 59.4178 15.2287 59.4239 15.2513 59.4308C15.285 59.4414 15.3197 59.4513 15.354 59.4619C15.4003 59.4771 15.4467 59.4915 15.4934 59.5052C15.5188 59.5143 15.5435 59.5211 15.5692 59.5287C15.5967 59.5363 15.6255 59.5439 15.653 59.5523C15.7072 59.5682 15.7621 59.5834 15.8177 59.6009C15.8699 59.6145 15.9238 59.6289 15.9767 59.6441C16.0316 59.6593 16.0872 59.6768 16.1435 59.692C16.1723 59.6996 16.2005 59.7071 16.23 59.714C16.2602 59.7231 16.2918 59.7299 16.323 59.739C16.3745 59.7512 16.4271 59.7656 16.4792 59.7793C16.5153 59.7884 16.5517 59.7983 16.5884 59.8059C16.6172 59.8135 16.6474 59.821 16.677 59.8294C16.7267 59.8416 16.7775 59.8529 16.8277 59.8651C16.8719 59.8772 16.9162 59.8871 16.9612 59.8977C16.99 59.9053 17.0196 59.9129 17.0491 59.9182C17.092 59.9289 17.1369 59.9387 17.1805 59.9479C17.2355 59.9615 17.2897 59.9744 17.3453 59.9866C17.3694 59.9927 17.3937 59.9987 17.4178 60.0025C17.4634 60.0132 17.5104 60.0215 17.5564 60.0336C17.6093 60.0443 17.6632 60.0557 17.7174 60.0678C17.7497 60.0754 17.7813 60.0815 17.8139 60.0883C17.863 60.099 17.9124 60.1088 17.9622 60.1194C18.0085 60.1301 18.0542 60.1384 18.1009 60.1476C18.1438 60.1567 18.186 60.165 18.2289 60.1741C18.279 60.1848 18.3295 60.1931 18.3796 60.2037C18.4184 60.2113 18.4569 60.2197 18.4956 60.2258C18.5478 60.2379 18.601 60.2463 18.6546 60.2569C18.7054 60.2675 18.7572 60.2759 18.8087 60.2865C18.8417 60.2926 18.8743 60.2986 18.9072 60.3055C18.9676 60.3176 19.0287 60.3275 19.0895 60.3381C19.1444 60.3488 19.1993 60.3586 19.255 60.3677C19.2776 60.3723 19.3013 60.3769 19.324 60.3814C19.3978 60.3951 19.4736 60.408 19.5485 60.4201C19.602 60.4308 19.6559 60.4391 19.7101 60.4482C19.7242 60.4513 19.7383 60.4528 19.7524 60.4558C19.8488 60.4718 19.9467 60.4885 20.0442 60.5044C20.095 60.512 20.1447 60.5204 20.1955 60.5295C20.3068 60.5469 20.42 60.5636 20.5333 60.5811C20.5694 60.5872 20.6058 60.5933 20.6425 60.5986C20.6518 60.6001 20.662 60.6016 20.6713 60.6031C20.6741 60.6046 20.6768 60.6047 20.6799 60.6047C20.7952 60.6206 20.9126 60.6403 21.03 60.6563C21.0554 60.6608 21.0798 60.6639 21.1045 60.6684C21.1241 60.6715 21.144 60.673 21.1643 60.6776C21.2044 60.6836 21.2453 60.6882 21.2858 60.695C21.4124 60.7125 21.5405 60.7307 21.6692 60.7482C21.72 60.7557 21.7725 60.7633 21.824 60.7702C21.9037 60.7808 21.9837 60.7922 22.0647 60.8028C22.0781 60.8043 22.0928 60.8043 22.1062 60.8074C22.1323 60.8119 22.1584 60.815 22.1841 60.818C22.2082 60.8226 22.2318 60.8256 22.2566 60.8271C22.27 60.8302 22.2833 60.8317 22.2967 60.8332C22.3832 60.8453 22.4697 60.8567 22.5569 60.8674C22.5913 60.8719 22.6259 60.8765 22.6603 60.8811C22.7917 60.897 22.9239 60.9137 23.0571 60.9296C23.1062 60.9357 23.1556 60.9418 23.2054 60.9471C23.3242 60.9608 23.4433 60.9752 23.5641 60.9889C23.6245 60.9965 23.686 61.004 23.7471 61.0094C23.8583 61.023 23.9695 61.0344 24.0824 61.0481C24.1487 61.0557 24.216 61.0633 24.2822 61.0686C24.39 61.0807 24.4975 61.0921 24.6059 61.1043C24.6416 61.1058 24.6763 61.1103 24.712 61.1149C24.7254 61.1164 24.7374 61.118 24.7501 61.1195C24.7796 61.1225 24.8092 61.124 24.838 61.127C24.9399 61.1392 25.0426 61.1476 25.1452 61.1582C25.2163 61.1643 25.288 61.1719 25.3591 61.1787C25.4682 61.1893 25.5784 61.1992 25.6883 61.2098C25.7199 61.2144 25.7508 61.2174 25.782 61.2205C25.8129 61.222 25.8445 61.225 25.875 61.2281C25.8843 61.2281 25.8939 61.2296 25.9039 61.2311C26.0171 61.2417 26.1311 61.2501 26.2458 61.2622C26.3182 61.2683 26.3913 61.2744 26.4644 61.2812C26.5743 61.2903 26.6852 61.3002 26.7971 61.3078C26.8245 61.3108 26.8527 61.3138 26.8801 61.3154C26.8863 61.3169 26.8915 61.3169 26.8976 61.3184C26.9158 61.3184 26.9351 61.3214 26.9533 61.323C26.9821 61.323 27.0109 61.326 27.0398 61.329C27.1489 61.3382 27.2584 61.3465 27.3676 61.3541C27.4472 61.3617 27.5272 61.3678 27.6068 61.3731C27.6988 61.3807 27.7919 61.3867 27.8846 61.3936C27.9014 61.3951 27.9182 61.3966 27.9347 61.3981C27.9381 61.3981 27.9415 61.3981 27.9446 61.3981C28.025 61.4027 28.1063 61.4103 28.1873 61.4156C28.2992 61.4232 28.4118 61.4315 28.5244 61.4391C28.6089 61.4452 28.6926 61.4513 28.7778 61.4566C28.8897 61.4642 29.0023 61.4718 29.1149 61.4786C29.2007 61.4832 29.2865 61.4892 29.3723 61.4946C29.4828 61.5006 29.5941 61.5082 29.7063 61.5135C29.7719 61.5181 29.8378 61.5211 29.9034 61.5257C29.9147 61.5272 29.926 61.5272 29.9377 61.5272C29.9518 61.5287 29.9658 61.5302 29.9799 61.5302C30.0891 61.5378 30.1986 61.5424 30.3084 61.5492C30.3997 61.5538 30.4907 61.5599 30.582 61.5629C30.6771 61.569 30.7725 61.575 30.8683 61.5788C30.8844 61.5804 30.9006 61.5804 30.9167 61.5804C30.9335 61.5819 30.9503 61.5819 30.9668 61.5834C31.0434 61.588 31.1196 61.5925 31.1961 61.5955C31.3122 61.6016 31.4282 61.6062 31.5442 61.6115C31.6335 61.616 31.722 61.6206 31.8109 61.6236C31.9318 61.6297 32.0529 61.6343 32.1745 61.6396C32.263 61.6426 32.3516 61.6472 32.4398 61.6502C32.56 61.6548 32.6805 61.6608 32.8013 61.6639C32.8912 61.6684 32.9808 61.6715 33.0708 61.676C33.194 61.6806 33.3183 61.6836 33.4422 61.6882C33.5307 61.6912 33.6193 61.6943 33.7075 61.6973C33.7927 61.7003 33.8785 61.7019 33.9643 61.7049C33.9664 61.7049 33.9698 61.7049 33.9722 61.7049C34.0089 61.7064 34.0467 61.7079 34.0834 61.7094C34.174 61.7125 34.2643 61.7155 34.3549 61.7186C34.4765 61.7216 34.5977 61.7231 34.7199 61.7261C34.807 61.7292 34.8936 61.7322 34.9801 61.7337C34.9941 61.7337 35.0068 61.7338 35.0202 61.7353C35.0264 61.7353 35.0322 61.7353 35.0384 61.7353C35.1531 61.7383 35.2691 61.7413 35.3837 61.7428C35.4751 61.7444 35.5653 61.7459 35.6566 61.7474C35.7826 61.752 35.9093 61.7535 36.0356 61.7565C36.13 61.7565 36.2248 61.758 36.3192 61.7611C36.4534 61.7626 36.588 61.7641 36.7229 61.7656C36.808 61.7671 36.8931 61.7671 36.979 61.7687C37.0668 61.7702 37.1561 61.7702 37.2436 61.7717C37.2529 61.7717 37.2618 61.7717 37.2704 61.7717C37.2937 61.7717 37.3174 61.7717 37.3408 61.7732C37.3634 61.7732 37.3857 61.7732 37.4084 61.7732C37.4887 61.7747 37.5694 61.7747 37.6497 61.7747C37.8721 61.7778 38.0956 61.7778 38.3194 61.7793C38.7732 61.7793 39.2247 61.7793 39.6737 61.7778C39.7094 61.7778 39.7447 61.7763 39.7804 61.7763C39.7832 61.7763 39.7859 61.7763 39.7876 61.7763C39.7924 61.7763 39.7969 61.7763 39.8017 61.7763C39.8367 61.7763 39.8714 61.7763 39.9064 61.7747C40.0547 61.7747 40.2033 61.7732 40.3516 61.7717C40.412 61.7702 40.4725 61.7702 40.5325 61.7702C40.6928 61.7672 40.8545 61.7656 41.0145 61.7641C41.0904 61.7626 41.1648 61.7626 41.2397 61.7611C41.263 61.7596 41.2867 61.7596 41.3094 61.7596C41.4326 61.758 41.5569 61.7565 41.6794 61.7535C41.7553 61.752 41.8301 61.7505 41.9053 61.7474C42.0495 61.7444 42.1943 61.7428 42.3378 61.7398C42.4181 61.7383 42.4981 61.7368 42.5784 61.7337C42.6093 61.7337 42.6402 61.7322 42.6711 61.7307C42.6914 61.7307 42.7127 61.7307 42.7329 61.7307C42.7511 61.7307 42.769 61.7292 42.7872 61.7292C42.8548 61.7261 42.9228 61.7246 42.9897 61.7231C43.0769 61.7216 43.1634 61.7201 43.2506 61.7155C43.3786 61.7125 43.5074 61.7079 43.6354 61.7034C43.7212 61.7018 43.807 61.7003 43.8929 61.6973C43.9316 61.6958 43.9708 61.6943 44.0089 61.6927C44.1009 61.6897 44.1918 61.6867 44.2832 61.6836C44.3576 61.6806 44.4314 61.6776 44.5049 61.676C44.645 61.67 44.785 61.6639 44.9247 61.6601C44.9903 61.6571 45.0555 61.654 45.1204 61.651C45.1472 61.6495 45.174 61.6495 45.2007 61.6479C45.3174 61.6434 45.4355 61.6388 45.5512 61.6343C45.6322 61.6297 45.7122 61.6252 45.7925 61.6221C45.9199 61.6176 46.0472 61.61 46.1739 61.6046C46.2282 61.6031 46.2814 61.6001 46.3356 61.5971C46.3397 61.5971 46.3435 61.5971 46.3476 61.5971C46.3696 61.5956 46.3912 61.594 46.4139 61.5925C46.5419 61.5864 46.67 61.5803 46.798 61.575C46.8739 61.5705 46.9487 61.5659 47.0239 61.5614C47.1519 61.5553 47.2806 61.5477 47.4087 61.5409C47.4866 61.5363 47.5642 61.5318 47.6428 61.5272C47.7667 61.5211 47.891 61.512 48.0135 61.5052C48.0925 61.5006 48.1704 61.4961 48.249 61.49C48.3709 61.4809 48.4938 61.4748 48.615 61.468C48.6867 61.4619 48.7578 61.4574 48.8295 61.4528C48.847 61.4513 48.8645 61.4498 48.8824 61.4482C48.9915 61.4422 49.101 61.4331 49.2095 61.4262C49.2826 61.4217 49.355 61.4171 49.4282 61.4103C49.55 61.4012 49.6716 61.3943 49.7924 61.3837C49.8662 61.3791 49.94 61.3731 50.0131 61.3678C50.0632 61.3632 50.113 61.3602 50.1635 61.3571C50.1707 61.3556 50.1782 61.3556 50.1854 61.3541C50.2465 61.348 50.308 61.345 50.3684 61.3404C50.4443 61.3343 50.5187 61.3268 50.5936 61.3214C50.7096 61.3123 50.8256 61.3025 50.9417 61.2918C51.012 61.2857 51.0824 61.2797 51.1521 61.2744C51.2695 61.2637 51.3862 61.2539 51.5022 61.2432C51.574 61.2387 51.645 61.2311 51.7168 61.2243C51.8307 61.2136 51.9447 61.2038 52.0587 61.1916C52.1249 61.1855 52.1908 61.1794 52.2571 61.1741C52.3745 61.1605 52.4919 61.1506 52.6076 61.1384C52.6725 61.1324 52.7363 61.1263 52.8012 61.1195C52.9145 61.1073 53.0277 61.0959 53.1403 61.0838C53.2073 61.0777 53.2753 61.0686 53.3422 61.0633C53.4507 61.0496 53.5588 61.0397 53.6666 61.0261C53.7356 61.02 53.8046 61.0109 53.8739 61.004C53.9772 60.9919 54.0806 60.9805 54.1822 60.9684C54.2512 60.9608 54.3195 60.9524 54.3882 60.9433C54.4922 60.9312 54.5955 60.9182 54.6978 60.9061C54.7105 60.9046 54.7239 60.9031 54.7373 60.9015C54.787 60.8955 54.8358 60.8879 54.8862 60.8826C54.9923 60.8689 55.0974 60.856 55.2014 60.8423C55.2625 60.8347 55.3222 60.8264 55.3823 60.8188C55.4729 60.8051 55.5632 60.7952 55.6531 60.7831C55.6751 60.78 55.6981 60.7755 55.7201 60.7725C55.7702 60.7664 55.8193 60.7603 55.869 60.752C55.9717 60.7383 56.0743 60.7239 56.1756 60.7087C56.2339 60.7011 56.2923 60.6927 56.35 60.6836C56.4279 60.673 56.5055 60.6616 56.5827 60.651C56.5913 60.6495 56.6002 60.6479 56.6095 60.6464C56.6297 60.6419 56.6503 60.6403 56.6713 60.6373C56.7211 60.6282 56.7698 60.6214 56.8196 60.6138C56.9167 60.5986 57.0139 60.5842 57.1107 60.569C57.1148 60.5674 57.1179 60.5674 57.1213 60.5674C57.1374 60.5644 57.1543 60.5614 57.1697 60.5599C57.2054 60.5538 57.2401 60.5477 57.2751 60.5424C57.3709 60.5272 57.467 60.5128 57.5614 60.4961C57.6002 60.4885 57.6393 60.4824 57.6781 60.4771C57.7049 60.4725 57.7317 60.4665 57.7584 60.4619C57.8408 60.4498 57.9222 60.4353 58.0039 60.4201C58.054 60.4125 58.1044 60.4042 58.1546 60.3966C58.1889 60.3875 58.2236 60.3829 58.2579 60.3761C58.3183 60.367 58.378 60.3556 58.4374 60.345C58.4865 60.3358 58.5346 60.3275 58.5837 60.3184C58.6314 60.3078 58.6801 60.2994 58.7278 60.2918C58.7326 60.2903 58.7371 60.2903 58.7419 60.2888C58.7512 60.2873 58.7594 60.2857 58.7687 60.2827C58.7968 60.2781 58.8243 60.2736 58.8524 60.2668C58.9022 60.2592 58.951 60.2493 59.0001 60.2402C59.0872 60.2227 59.1738 60.206 59.2596 60.1885C59.3087 60.1794 59.3581 60.1696 59.4065 60.1589C59.4487 60.1513 59.4923 60.143 59.5338 60.1339C59.5359 60.1339 59.538 60.1324 59.54 60.1324C59.5788 60.1248 59.6159 60.1172 59.6533 60.1088C59.7024 60.0982 59.7498 60.0883 59.7975 60.0777C59.8806 60.0602 59.9629 60.042 60.0443 60.0245C60.0879 60.0154 60.1308 60.0056 60.1737 59.998C60.2087 59.9888 60.2448 59.9805 60.2791 59.9729C60.2818 59.9729 60.2839 59.9729 60.2853 59.9729C60.2866 59.9729 60.2866 59.9714 60.288 59.9714C60.3316 59.9607 60.3738 59.9524 60.4174 59.9418C60.4597 59.9312 60.5019 59.9228 60.5441 59.9122C60.6227 59.8932 60.7003 59.875 60.7775 59.856C60.8136 59.8469 60.8493 59.8385 60.8853 59.8294C60.9069 59.8233 60.9275 59.8188 60.9485 59.8135C61.0089 59.7998 61.0673 59.7838 61.1263 59.7686C61.1658 59.758 61.2049 59.7481 61.2444 59.739C61.3175 59.7185 61.3893 59.7003 61.461 59.6798C61.4806 59.6753 61.5018 59.6692 61.5214 59.6646C61.5396 59.6586 61.555 59.6555 61.5729 59.6494C61.5743 59.6494 61.5756 59.6479 61.577 59.6479C61.6467 59.6289 61.7157 59.6092 61.7837 59.5902C61.8211 59.5796 61.8595 59.5697 61.8969 59.5576C61.9371 59.5454 61.9787 59.534 62.0188 59.5219C62.0456 59.5128 62.0724 59.5044 62.0991 59.4968C62.1335 59.4862 62.1681 59.4763 62.2018 59.4657C62.2663 59.4467 62.3284 59.4255 62.3916 59.405C62.4259 59.3943 62.4606 59.3829 62.4942 59.3723C62.5004 59.3708 62.5056 59.3677 62.5111 59.3662C62.5203 59.3632 62.5313 59.3601 62.5399 59.3571C62.5433 59.3571 62.5461 59.3556 62.5485 59.3541C62.5921 59.3404 62.6336 59.3245 62.6758 59.3108C62.7088 59.3002 62.7414 59.2888 62.773 59.2781C62.8327 59.2576 62.8904 59.2349 62.9481 59.2144C62.9481 59.2144 62.9487 59.2144 62.9494 59.2144C62.9635 59.2098 62.9783 59.2037 62.993 59.1984C63.0078 59.1939 63.0226 59.1878 63.038 59.1825C63.0943 59.1605 63.1499 59.1392 63.2048 59.1187C63.2337 59.1065 63.2625 59.0967 63.29 59.0845C63.3188 59.0739 63.3476 59.061 63.3758 59.0504C63.3806 59.0488 63.3851 59.0458 63.3892 59.0458C63.3984 59.0412 63.4067 59.0382 63.416 59.0336C63.4259 59.0291 63.4355 59.0245 63.4455 59.02C63.4736 59.0093 63.5018 58.998 63.5285 58.9858C63.5776 58.9638 63.6257 58.9425 63.6727 58.922C63.6967 58.9114 63.7211 58.9 63.7445 58.8894C63.7537 58.8848 63.7627 58.8818 63.7719 58.8772C63.8121 58.8598 63.8505 58.8385 63.8893 58.8195C63.9127 58.8089 63.9377 58.7975 63.9604 58.7854C63.9961 58.7679 64.0301 58.7497 64.0637 58.7337C64.0737 58.7277 64.0846 58.7231 64.0939 58.7185C64.1008 58.714 64.1059 58.7109 64.1128 58.7064C64.1276 58.6973 64.1423 58.6904 64.1564 58.6828C64.1959 58.6608 64.2336 58.6396 64.2717 58.6175C64.2934 58.6054 64.3153 58.594 64.3366 58.5803C64.3534 58.5682 64.3709 58.5598 64.3881 58.5477C64.3987 58.5416 64.409 58.5355 64.4197 58.5287C64.4269 58.5226 64.4344 58.5181 64.4417 58.515C64.4612 58.5014 64.4811 58.49 64.5 58.4763C64.5337 58.4543 64.5656 58.4315 64.5972 58.408C64.6133 58.3958 64.6308 58.386 64.6469 58.3738C64.6517 58.3708 64.6569 58.3677 64.661 58.3632C64.6631 58.3617 64.6644 58.3601 64.6665 58.3586C64.6905 58.3396 64.7128 58.3214 64.7355 58.304C64.7516 58.2903 64.7684 58.2774 64.7839 58.2637C64.8107 58.2417 64.8347 58.2189 64.8591 58.1969C64.8697 58.1878 64.881 58.1794 64.8913 58.1688C64.8955 58.1642 64.8986 58.1612 64.9027 58.1566C64.926 58.1346 64.9463 58.1118 64.9672 58.0898C64.9799 58.0762 64.9926 58.0633 65.0039 58.0496C65.0235 58.0291 65.0414 58.0048 65.0589 57.9828C65.0609 57.9797 65.063 57.9767 65.065 57.9737C65.0678 57.9691 65.0729 57.9646 65.0764 57.9615C65.077 57.96 65.0784 57.9569 65.0798 57.9554C65.0832 57.9509 65.087 57.9448 65.0904 57.9402C65.1066 57.9182 65.1206 57.8954 65.134 57.8734C65.1426 57.8582 65.1522 57.8438 65.1601 57.8302C65.1673 57.818 65.1728 57.8066 65.179 57.7929C65.1845 57.7838 65.1883 57.774 65.1931 57.7633C65.1931 57.7633 65.1931 57.7633 65.1938 57.7633C65.2006 57.7481 65.2072 57.7352 65.2133 57.72C65.2226 57.6965 65.2295 57.6737 65.2367 57.6517C65.2408 57.638 65.2459 57.6236 65.2501 57.6084C65.2507 57.6054 65.2521 57.6023 65.2528 57.5993L73.2494 24.0531C73.317 23.7699 73.3836 23.489 73.4513 23.2065L73.973 21.0189C74.4303 19.1017 74.881 17.211 75.3221 15.3614L75.6983 13.7828C76.1212 12.009 76.5339 10.277 76.9341 8.59896L77.3412 6.89203C77.3519 6.84495 77.3608 6.79864 77.3653 6.75156C77.3735 6.69461 77.3728 6.63236 77.3687 6.5701Z" fill="#3600F0"/>
<path d="M77.3661 6.75563C76.9939 10.2522 59.4193 13.0374 38.1111 12.9759C16.8027 12.9151 -0.169558 10.0313 0.202552 6.53466C0.574663 3.03881 18.15 0.25444 39.4578 0.315184C60.7656 0.375929 77.7382 3.25978 77.3661 6.75563Z" fill="#3600F0"/>
<path d="M77.3661 6.75563C76.9939 10.2522 59.4193 13.0374 38.1111 12.9759C16.8027 12.9151 -0.169558 10.0313 0.202552 6.53466C0.574663 3.03881 18.15 0.25444 39.4578 0.315184C60.7656 0.375929 77.7382 3.25978 77.3661 6.75563Z" fill="#1C0370" fill-opacity="0.5"/>
</svg>