<svg width="74" height="73" viewBox="0 0 74 73" fill="none" xmlns="http://www.w3.org/2000/svg">
<path d="M72.9633 3.09579C72.9526 3.08076 72.9387 3.06253 72.9258 3.0475C72.8968 3.01208 72.8581 2.97449 72.8087 2.93799C72.7862 2.91867 72.7604 2.90257 72.7314 2.88325C72.6724 2.84783 72.6015 2.81242 72.522 2.77377C72.4909 2.75874 72.4608 2.74477 72.4254 2.72974C72.304 2.67929 72.1655 2.62883 72.0055 2.58053C71.9883 2.57409 71.968 2.56765 71.9486 2.56336C71.8037 2.51935 71.6426 2.47748 71.4686 2.43347C71.4031 2.41844 71.3323 2.40236 71.2636 2.38518C71.1229 2.35191 70.9736 2.31971 70.8168 2.28858C70.7331 2.2714 70.6493 2.25313 70.5613 2.2381C70.3938 2.20697 70.2155 2.17478 70.0309 2.14365C69.945 2.12648 69.8634 2.11252 69.7732 2.0975C69.5026 2.05348 69.2191 2.0116 68.9217 1.96974C68.9066 1.96544 68.897 1.96332 68.8841 1.96332C68.737 1.94077 68.5759 1.92361 68.4224 1.89999C68.301 1.88496 68.1807 1.86885 68.0551 1.85167C67.9102 1.83235 67.7577 1.81625 67.6063 1.79693C67.4409 1.77761 67.2766 1.75722 67.1048 1.7379C67.0823 1.73361 67.0629 1.73358 67.0393 1.72929C66.9953 1.72499 66.9427 1.72071 66.8987 1.71641C66.4831 1.67025 66.0493 1.62411 65.5962 1.5801C65.5253 1.57366 65.4619 1.56505 65.3911 1.55861C65.3513 1.55432 65.3073 1.55219 65.2676 1.5479C64.8316 1.50604 64.3807 1.46629 63.9168 1.42872C63.8921 1.42443 63.8685 1.42443 63.8459 1.42014C63.7514 1.4137 63.6505 1.40727 63.556 1.39868C63.2435 1.37399 62.9268 1.34822 62.5993 1.32353C62.5134 1.31709 62.4339 1.30852 62.3458 1.30208C62.2202 1.29349 62.0839 1.28491 61.9561 1.27525C61.736 1.26022 61.5115 1.24412 61.285 1.22909C61.1465 1.21836 61.0144 1.20974 60.8737 1.20223C60.7706 1.19364 60.6643 1.18721 60.5634 1.18077C60.3261 1.16574 60.0856 1.15179 59.844 1.13461C59.714 1.13032 59.5905 1.11959 59.4606 1.11207C59.393 1.10778 59.3221 1.10562 59.2555 1.10133C59.0311 1.08845 58.8024 1.07664 58.5758 1.06376C58.3933 1.05087 58.2193 1.0423 58.0346 1.03263C57.938 1.02619 57.8328 1.02191 57.7351 1.01547C57.574 1.00903 57.4076 1.00043 57.2444 0.990768C57.035 0.982181 56.8267 0.969308 56.6108 0.959647C56.512 0.955354 56.4111 0.951052 56.3134 0.944611C56.1706 0.93817 56.0256 0.931724 55.8817 0.925283C55.6595 0.914549 55.4393 0.903823 55.2106 0.894162C55.0807 0.887722 54.9465 0.883437 54.8144 0.876997C54.6587 0.872703 54.5019 0.86411 54.343 0.857669C54.1583 0.849081 53.9801 0.84262 53.7932 0.836179C53.6633 0.829738 53.5291 0.825454 53.397 0.819013C53.2102 0.812573 53.0233 0.803997 52.8354 0.797556C52.6883 0.791116 52.5477 0.786814 52.4016 0.78252C52.1815 0.773932 51.9549 0.765349 51.7348 0.759982C51.6296 0.755688 51.5276 0.753531 51.4202 0.749237C51.286 0.744943 51.1561 0.738527 51.0197 0.734233C50.7287 0.725646 50.4323 0.717047 50.1392 0.709533C50.0243 0.705239 49.9083 0.703082 49.7934 0.698788C49.7558 0.698788 49.7204 0.696659 49.6818 0.696659C49.2598 0.683777 48.8345 0.67411 48.4061 0.663376C48.375 0.661229 48.3449 0.661231 48.3138 0.659084C48.1946 0.656937 48.0743 0.654795 47.9551 0.650501C47.7135 0.646208 47.4752 0.639744 47.2336 0.633303C47.1079 0.631156 46.9801 0.629029 46.8534 0.626882C46.6537 0.622588 46.4529 0.618302 46.2489 0.614008C46.1898 0.611861 46.1318 0.611831 46.0728 0.609684C45.7646 0.603243 45.4543 0.596829 45.144 0.590389C45.0452 0.590389 44.9464 0.590391 44.8487 0.586097C44.78 0.586097 44.7102 0.586082 44.6436 0.583935C44.4965 0.579642 44.3526 0.579646 44.2076 0.575352C43.9016 0.571059 43.5956 0.566772 43.2896 0.562478C43.0544 0.560331 42.8182 0.556009 42.5809 0.553863C42.3436 0.549569 42.1074 0.549574 41.8679 0.54528C41.6854 0.543133 41.4964 0.540988 41.3117 0.540988C41.2322 0.540988 41.1528 0.538859 41.0722 0.538859C40.8629 0.534565 40.6524 0.534552 40.4408 0.532406C40.2476 0.532406 40.0575 0.530261 39.8664 0.528114C39.7343 0.528114 39.6001 0.528114 39.468 0.528114C39.4025 0.528114 39.3402 0.525985 39.2747 0.525985C39.0857 0.523838 38.8989 0.523823 38.711 0.523823C38.5156 0.523823 38.3234 0.521661 38.1279 0.521661C37.9325 0.521661 37.7403 0.519531 37.5427 0.519531C37.5384 0.519531 37.5298 0.519531 37.5213 0.519531C37.3473 0.519531 37.1712 0.519531 36.9972 0.519531C36.8147 0.519531 36.6343 0.519531 36.4539 0.519531C36.2714 0.519531 36.0931 0.519514 35.9106 0.521661C35.8773 0.521661 35.8419 0.521661 35.8075 0.521661C35.7023 0.521661 35.5981 0.521676 35.4951 0.523823C35.4532 0.523823 35.4113 0.523823 35.3715 0.523823C35.1912 0.523823 35.0129 0.523823 34.8347 0.523823C34.6349 0.52597 34.4363 0.525967 34.2387 0.528114C34.1775 0.528114 34.1174 0.528114 34.0562 0.528114C33.9488 0.528114 33.8447 0.530276 33.7373 0.530276C33.6868 0.530276 33.6363 0.532406 33.588 0.532406C33.3701 0.532406 33.1542 0.534568 32.9384 0.534568C32.7226 0.536714 32.5067 0.540988 32.292 0.540988C32.2265 0.543135 32.1642 0.54315 32.0987 0.54315C32.0482 0.54315 31.9999 0.543133 31.9516 0.54528C31.8463 0.54528 31.7443 0.547424 31.6413 0.549571C31.3019 0.551718 30.9637 0.558169 30.6266 0.560316C30.3495 0.56461 30.0768 0.568897 29.8019 0.57319C29.5227 0.577484 29.2425 0.581804 28.9654 0.586097C28.8624 0.588244 28.7603 0.590389 28.6572 0.590389C27.7617 0.607564 26.8855 0.625807 26.0169 0.645129C25.9492 0.647276 25.8783 0.647274 25.8118 0.64942C25.6271 0.653714 25.4445 0.660163 25.2641 0.664457C25.1739 0.666604 25.0859 0.668746 24.9978 0.67304C24.9753 0.67304 24.9517 0.67304 24.9291 0.67304C24.6381 0.67948 24.3482 0.688046 24.0583 0.697707C23.9112 0.702001 23.7673 0.704158 23.6245 0.708452C23.5343 0.710599 23.4441 0.714888 23.356 0.717035C23.3206 0.717035 23.2851 0.719197 23.2508 0.719197C23.0328 0.727784 22.8191 0.732066 22.6022 0.740654C22.3993 0.747095 22.1974 0.75567 21.9966 0.762111C21.8624 0.764258 21.7303 0.770724 21.5961 0.775018C21.5081 0.779312 21.4179 0.781437 21.3277 0.78573C21.114 0.792171 20.9003 0.800787 20.6877 0.808301C20.5642 0.812595 20.4407 0.816882 20.3162 0.821175C20.2764 0.823322 20.2367 0.825449 20.197 0.827596C20.1358 0.829743 20.0778 0.831903 20.0187 0.83405C19.7986 0.842637 19.5785 0.851218 19.3584 0.860879C19.1404 0.869467 18.9224 0.878065 18.7066 0.885579C18.4575 0.898461 18.2073 0.908111 17.9603 0.920992C17.8508 0.925286 17.7445 0.931734 17.635 0.936028C17.3955 0.946763 17.1614 0.957503 16.9263 0.969311C16.7266 0.980046 16.5279 0.988609 16.3325 0.99827C16.2487 1.00256 16.1671 1.00687 16.0855 1.01331C15.9008 1.02189 15.7204 1.03264 15.54 1.0423C15.4648 1.04445 15.3886 1.04875 15.3156 1.05304C15.1395 1.06378 14.9698 1.07449 14.7959 1.082C14.6348 1.09274 14.4705 1.10133 14.3095 1.11099C14.2826 1.11314 14.2526 1.11314 14.2257 1.11529C14.0893 1.12387 13.9594 1.13247 13.8252 1.13999C13.5321 1.15716 13.2357 1.17755 12.949 1.19473C12.9383 1.19687 12.9275 1.19687 12.9179 1.19902C12.8674 1.20116 12.8212 1.20547 12.7729 1.20976C12.3745 1.23445 11.9848 1.26237 11.6025 1.2892C11.5735 1.29135 11.5413 1.29348 11.5101 1.29562C11.4393 1.29992 11.3759 1.30637 11.3083 1.31066C10.9303 1.33964 10.5598 1.3697 10.1991 1.39868C10.1421 1.40298 10.0799 1.40726 10.0251 1.41156C9.96177 1.418 9.90592 1.4223 9.84257 1.42659C9.5258 1.45343 9.21762 1.48347 8.91589 1.50816C8.83214 1.51675 8.73766 1.52533 8.6539 1.5307C8.60988 1.53499 8.568 1.53931 8.52397 1.54361C8.23405 1.57259 7.95594 1.60047 7.68106 1.62731C7.6016 1.63589 7.51784 1.64236 7.43945 1.64988C7.42012 1.65202 7.40617 1.65415 7.38899 1.6563C5.89751 1.81195 4.63584 1.98155 3.6179 2.15974C3.49871 2.18121 3.37417 2.20161 3.26357 2.22522C3.25498 2.22522 3.24638 2.22737 3.23886 2.22951C3.15725 2.24454 3.08315 2.26281 3.00584 2.27783C2.9049 2.29716 2.80076 2.31541 2.70626 2.33903C2.68694 2.34332 2.673 2.34545 2.65367 2.34974C2.57851 2.36906 2.50869 2.38518 2.43782 2.40235C2.36695 2.41953 2.29071 2.43349 2.22413 2.45067C2.20266 2.45711 2.18656 2.46139 2.16508 2.46784C2.09207 2.48716 2.02443 2.5054 1.95785 2.52687C1.90953 2.53975 1.85478 2.55154 1.81075 2.56657C1.78606 2.57516 1.76457 2.58161 1.73987 2.59127C1.67652 2.61059 1.61852 2.631 1.56161 2.65246C1.53047 2.6632 1.49397 2.67178 1.46498 2.68359C1.43813 2.69217 1.41666 2.70505 1.39197 2.71471C1.3415 2.73403 1.29318 2.75445 1.24916 2.77377C1.22983 2.78451 1.20514 2.79522 1.18582 2.80273C1.15897 2.81561 1.13963 2.82957 1.11494 2.8446C1.0795 2.86392 1.04407 2.88219 1.01401 2.90366C1.00327 2.9101 0.98716 2.91868 0.976422 2.92512C0.954947 2.94229 0.943138 2.95626 0.925958 2.97344C0.903409 2.99491 0.87547 3.01529 0.85829 3.03676C0.853995 3.0432 0.843284 3.04965 0.838989 3.05609C0.814292 3.08936 0.797115 3.12371 0.788525 3.15699C0.786377 3.16772 0.784199 3.17846 0.784199 3.19027C0.779904 3.23213 0.790668 3.26968 0.81107 3.31154L36.8942 71.7168L72.9752 3.30941C72.9837 3.29009 72.9923 3.2697 72.9966 3.25038C73.0052 3.201 72.9923 3.14839 72.9633 3.09579Z" fill="#07046B" stroke="white" stroke-miterlimit="10"/>
<path d="M72.9926 3.25531C72.6447 4.73559 56.1998 5.9121 36.2599 5.88419C16.3199 5.86165 0.437643 4.64112 0.785546 3.16084C1.13345 1.6827 17.5805 0.504071 37.5183 0.529833C57.4594 0.557743 73.3416 1.77718 72.9926 3.25531Z" fill="#07046B"/>
<path d="M72.9926 3.25531C72.6447 4.73559 56.1998 5.9121 36.2599 5.88419C16.3199 5.86165 0.437643 4.64112 0.785546 3.16084C1.13345 1.6827 17.5805 0.504071 37.5183 0.529833C57.4594 0.557743 73.3416 1.77718 72.9926 3.25531Z" fill="#011145" fill-opacity="0.85"/>
</svg>