<svg width="51" height="58" viewBox="0 0 51 58" fill="none" xmlns="http://www.w3.org/2000/svg">
<path d="M50.844 4.44519C50.8399 4.4171 50.8354 4.38899 50.8286 4.36089C50.8244 4.34722 50.8207 4.3328 50.8159 4.31913C50.808 4.29104 50.797 4.26143 50.785 4.23486C50.7795 4.22271 50.7743 4.20979 50.7681 4.19764C50.7493 4.15892 50.7266 4.11868 50.7005 4.08072C50.6971 4.07464 50.6919 4.06857 50.6878 4.06174C50.6645 4.02909 50.6387 3.99643 50.6106 3.96226C50.5992 3.95011 50.5859 3.93569 50.5738 3.9205C50.5505 3.89545 50.5254 3.87038 50.4994 3.84457C50.4846 3.82938 50.4691 3.81648 50.453 3.79978C50.4242 3.77472 50.3933 3.74814 50.3617 3.7208C50.3463 3.70866 50.3315 3.69574 50.3154 3.68359C50.2676 3.64638 50.2175 3.60919 50.164 3.5735C50.1506 3.56287 50.1351 3.553 50.1217 3.54389C50.0788 3.51579 50.0346 3.4877 49.9875 3.45961C49.9649 3.44442 49.9398 3.42999 49.9158 3.41632C49.8756 3.3943 49.8341 3.37 49.7912 3.34646C49.7644 3.33051 49.7376 3.31837 49.7102 3.30167C49.6638 3.27813 49.6158 3.25383 49.566 3.2303C49.5406 3.21663 49.5159 3.20372 49.4894 3.19157C49.4156 3.15589 49.3405 3.1217 49.2615 3.08753C49.2347 3.07538 49.2059 3.06401 49.1777 3.05338C49.1214 3.02832 49.0645 3.00326 49.0054 2.98048C48.9697 2.96529 48.9323 2.95239 48.8956 2.93568C48.842 2.91518 48.7871 2.89543 48.7311 2.87493C48.691 2.85898 48.6508 2.8438 48.6096 2.83013C48.5499 2.80811 48.4881 2.78534 48.426 2.76484C48.3885 2.75117 48.3515 2.73826 48.3141 2.72611C48.2183 2.69498 48.1198 2.66232 48.0192 2.62967C48.0106 2.62663 48.0017 2.6236 47.9924 2.62056C47.9797 2.61601 47.965 2.61298 47.9516 2.60842C47.7751 2.55375 47.5928 2.49983 47.4023 2.44668C47.3807 2.44061 47.358 2.43455 47.3361 2.42923C47.1462 2.3776 46.9492 2.32519 46.746 2.27356C46.7347 2.27204 46.725 2.26748 46.7137 2.26596C46.6911 2.25989 46.666 2.25533 46.6427 2.25002C46.5054 2.21433 46.3649 2.18168 46.2208 2.14903C46.1919 2.14144 46.1638 2.13384 46.1343 2.12853C45.9788 2.09284 45.8191 2.05717 45.6568 2.023C45.6273 2.01693 45.5991 2.01086 45.5696 2.00402C45.5407 1.99795 45.5098 1.99187 45.4803 1.98655C45.3461 1.95846 45.2088 1.93187 45.0701 1.90378C45.0595 1.90226 45.0492 1.89923 45.0378 1.89771C44.8782 1.86506 44.7155 1.83546 44.5497 1.80432C44.5315 1.80129 44.5137 1.79671 44.4955 1.79216C44.4594 1.7876 44.4217 1.78001 44.3849 1.77318C44.2899 1.75723 44.1937 1.739 44.0973 1.72306C44.0296 1.71091 43.9617 1.69952 43.8927 1.68737C43.8027 1.67219 43.7125 1.65624 43.6212 1.64105C43.5655 1.63194 43.5113 1.62209 43.4557 1.6145C43.4451 1.61146 43.433 1.60992 43.422 1.6084C43.1138 1.55981 42.7973 1.51046 42.4732 1.46186C42.4592 1.46034 42.4465 1.45883 42.4324 1.45579C42.4056 1.45275 42.3768 1.4482 42.3493 1.44365C42.0757 1.40492 41.797 1.36619 41.5131 1.32823C41.4915 1.32671 41.4723 1.32216 41.4506 1.31912C41.4211 1.31608 41.3895 1.31304 41.36 1.30848C41.085 1.2728 40.807 1.23711 40.5231 1.20446C40.5022 1.19991 40.4829 1.1984 40.462 1.19536C40.4366 1.19232 40.4091 1.18927 40.3834 1.18623C40.0971 1.15358 39.8067 1.11941 39.5125 1.08828C39.4984 1.08676 39.4857 1.08526 39.4723 1.08374C39.4534 1.08222 39.4342 1.07918 39.4153 1.07767C39.129 1.04805 38.8393 1.01692 38.5445 0.988824C38.5297 0.987305 38.5149 0.985778 38.5002 0.984259C38.4734 0.98274 38.4452 0.979696 38.4178 0.976659C38.1384 0.950083 37.8558 0.923527 37.5696 0.897711C37.5514 0.896192 37.5339 0.894665 37.516 0.893146C37.4717 0.88859 37.4254 0.885547 37.3804 0.88251C37.1329 0.86049 36.8837 0.839229 36.6314 0.820246C36.6032 0.817209 36.5765 0.815706 36.5483 0.812669C36.539 0.812669 36.5287 0.811139 36.5195 0.811139C36.2304 0.78912 35.9383 0.766329 35.6431 0.747346C35.6249 0.744309 35.6074 0.742805 35.5895 0.742805C35.5762 0.741286 35.5628 0.739769 35.5501 0.739769C35.2658 0.719268 34.9789 0.70104 34.6884 0.683576C34.6792 0.683576 34.6702 0.682059 34.661 0.680541C34.6421 0.680541 34.6236 0.679024 34.6054 0.677505C34.3325 0.66156 34.0575 0.644841 33.7808 0.629655C33.7788 0.628136 33.7767 0.628148 33.7753 0.628148C33.7746 0.628148 33.7733 0.628148 33.7726 0.628148C33.5265 0.614481 33.279 0.601577 33.0297 0.589428C33.0064 0.587909 32.9827 0.586381 32.9594 0.584863C32.8897 0.583344 32.82 0.578793 32.7503 0.575756C32.5982 0.568163 32.4458 0.562082 32.2931 0.555249C32.2467 0.55373 32.2004 0.550685 32.1544 0.547648C32.1115 0.54613 32.0679 0.546144 32.025 0.543106C31.8743 0.537032 31.7219 0.53095 31.5698 0.525635C31.5495 0.525635 31.5303 0.524118 31.5101 0.522599C31.4953 0.522599 31.4805 0.521093 31.4658 0.521093C31.3398 0.516537 31.2138 0.510458 31.0875 0.507421C31.0116 0.504384 30.9361 0.501352 30.8596 0.498315C30.8053 0.495277 30.7504 0.495257 30.6958 0.49222C30.6381 0.490702 30.5818 0.489197 30.5249 0.487679C30.4236 0.484641 30.3237 0.481609 30.2224 0.478572C30.1809 0.477053 30.1387 0.475526 30.0971 0.474007C30.034 0.472488 29.9712 0.470961 29.908 0.469442C29.849 0.466405 29.7899 0.4649 29.7309 0.4649C29.6831 0.461863 29.6344 0.461854 29.5867 0.460335C29.4861 0.458817 29.3855 0.455772 29.2843 0.452735C29.2681 0.452735 29.252 0.452735 29.2359 0.452735C29.1727 0.449698 29.1092 0.448193 29.046 0.448193C28.9321 0.445156 28.8181 0.44363 28.7041 0.440593C28.5514 0.437555 28.3983 0.434523 28.2448 0.431486C28.2174 0.431486 28.1899 0.431475 28.1624 0.429957C28.1175 0.429957 28.0711 0.429969 28.0265 0.42845C27.9661 0.426932 27.9064 0.426921 27.847 0.426921C27.812 0.425402 27.778 0.425404 27.7436 0.423885C27.6458 0.423885 27.5487 0.423898 27.4505 0.422379C27.4491 0.422379 27.4477 0.422379 27.4457 0.422379C27.3121 0.419342 27.1783 0.419333 27.044 0.417814C27.0059 0.416296 26.9675 0.416308 26.9294 0.416308C26.8577 0.416308 26.7852 0.416308 26.7135 0.416308C26.6894 0.416308 26.6644 0.414779 26.6397 0.414779C26.5048 0.41326 26.3695 0.413262 26.2339 0.411743C26.2291 0.411743 26.2246 0.411743 26.2198 0.411743C26.098 0.411743 25.9761 0.411743 25.8549 0.411743C25.729 0.411743 25.6033 0.411743 25.4773 0.411743C25.3514 0.411743 25.2264 0.413273 25.1011 0.413273C25.0833 0.413273 25.0654 0.41326 25.0479 0.414779C24.9738 0.414779 24.9006 0.414789 24.8272 0.416308C24.7935 0.416308 24.7599 0.416308 24.7263 0.416308C24.6016 0.416308 24.477 0.417825 24.3531 0.419344C24.3473 0.419344 24.3421 0.419344 24.3366 0.419344C24.2594 0.419344 24.1832 0.420861 24.1066 0.422379C24.051 0.423898 23.9961 0.423885 23.9405 0.423885C23.9093 0.423885 23.878 0.423885 23.8468 0.423885C23.7472 0.425404 23.6477 0.426932 23.5485 0.42845C23.5282 0.42845 23.5083 0.428438 23.4881 0.429957C23.4101 0.429957 23.3329 0.431484 23.2546 0.434521C23.1218 0.43604 22.9886 0.437555 22.8564 0.440593C22.7672 0.442111 22.6779 0.443639 22.5897 0.445157C22.5399 0.446676 22.4905 0.448193 22.4407 0.448193C22.4133 0.449712 22.3858 0.44971 22.3583 0.451229C22.2849 0.452747 22.2114 0.454275 22.138 0.455794C22.0813 0.457312 22.0254 0.460335 21.9684 0.460335C21.7621 0.46641 21.5571 0.470973 21.3525 0.477807C21.3028 0.479326 21.2527 0.480843 21.2032 0.480843H21.2029C21.1898 0.482361 21.1768 0.482349 21.1631 0.482349C20.9173 0.489942 20.6732 0.498299 20.4302 0.505892C20.38 0.508929 20.3296 0.508926 20.2798 0.511963C20.1703 0.516519 20.0608 0.521079 19.9516 0.525635C19.9461 0.525635 19.941 0.525635 19.9362 0.525635C19.9345 0.525635 19.9334 0.525635 19.9321 0.525635C19.9307 0.525635 19.9304 0.525635 19.9297 0.525635C19.3145 0.549173 18.7083 0.577262 18.1117 0.609912C18.1045 0.609912 18.0966 0.609912 18.0894 0.609912C18.0053 0.614468 17.9219 0.620557 17.8377 0.625113C17.733 0.629669 17.6287 0.63574 17.5247 0.641055C17.5092 0.642574 17.4931 0.644102 17.4777 0.64562C17.4148 0.647139 17.3537 0.651677 17.2913 0.656233C17.1673 0.662308 17.0438 0.671436 16.9212 0.67827C16.9051 0.67827 16.8889 0.679787 16.8728 0.681306C16.8223 0.682824 16.7722 0.687375 16.7224 0.690412C16.5927 0.699524 16.464 0.70635 16.3356 0.715461C16.328 0.715461 16.3198 0.715472 16.3126 0.716991C16.2099 0.724584 16.1087 0.73216 16.0067 0.737475C15.9367 0.743549 15.8663 0.748125 15.7966 0.753441C15.6703 0.761034 15.5436 0.769366 15.418 0.779996C15.4022 0.781515 15.3861 0.781536 15.3696 0.783055C15.3267 0.786092 15.2831 0.789112 15.2402 0.793668C15.1527 0.799742 15.0644 0.805823 14.9776 0.814175C14.8283 0.824805 14.6806 0.836205 14.5334 0.848354C14.4349 0.857466 14.337 0.864292 14.2392 0.873403C14.2292 0.874922 14.2189 0.87492 14.209 0.876439C14.1626 0.880995 14.116 0.884025 14.0689 0.888581C13.9155 0.903767 13.7624 0.915164 13.611 0.928831C13.4589 0.944017 13.3079 0.956931 13.1579 0.972117C12.9838 0.989581 12.8105 1.00628 12.6392 1.02374C12.447 1.04273 12.2571 1.06247 12.0687 1.08297C11.977 1.09208 11.8878 1.10196 11.7968 1.11259C11.7196 1.1217 11.6427 1.12852 11.5661 1.13764C11.5472 1.14067 11.5277 1.1422 11.5088 1.14524C11.4776 1.14827 11.4473 1.15284 11.4164 1.15587C11.2517 1.17486 11.0872 1.19458 10.9245 1.21204C10.8844 1.21812 10.8432 1.22421 10.803 1.22801C10.7807 1.22953 10.7591 1.23255 10.7371 1.23558C10.5164 1.26368 10.2991 1.29027 10.0842 1.31989C10.0715 1.3214 10.0584 1.32291 10.0461 1.32443C10.0286 1.32595 10.0124 1.32899 9.99562 1.33203C9.72409 1.36772 9.45703 1.40491 9.19511 1.44212C9.17588 1.44516 9.15666 1.4482 9.13778 1.44972C9.11032 1.45579 9.08492 1.45884 9.05745 1.46339C8.77665 1.50515 8.50101 1.54614 8.23154 1.58942C8.2082 1.59398 8.18314 1.59701 8.16014 1.60157C8.11826 1.60916 8.07741 1.61524 8.03553 1.62207C7.95932 1.63422 7.88449 1.64714 7.80931 1.65929C7.72486 1.67448 7.64042 1.68891 7.55734 1.70257C7.48114 1.71624 7.40665 1.73066 7.33147 1.74433C7.26453 1.75648 7.19588 1.76786 7.12997 1.77849H7.12962C7.06165 1.79215 6.99541 1.80508 6.92778 1.81723C6.85226 1.83242 6.77639 1.84683 6.7019 1.86049C6.62741 1.87416 6.55429 1.89011 6.48117 1.90378C6.41286 1.91745 6.34386 1.93187 6.2759 1.94554C6.24363 1.95161 6.21033 1.9577 6.17806 1.96454C6.13446 1.97365 6.09259 1.9835 6.04933 1.99109C5.98892 2.00476 5.92851 2.01617 5.86981 2.02984C5.79944 2.04502 5.72906 2.05943 5.66006 2.07613C5.60136 2.0898 5.54335 2.10121 5.48499 2.11488C5.43522 2.12703 5.38372 2.13688 5.33463 2.14903C5.32228 2.15207 5.31129 2.1551 5.29893 2.15814C4.81972 2.269 4.37244 2.38519 3.9612 2.50364C3.95536 2.50516 3.94952 2.50666 3.94368 2.50818C3.93235 2.51274 3.92206 2.51427 3.91039 2.51731C3.73841 2.56894 3.57261 2.61982 3.41333 2.67145C3.40166 2.67449 3.38827 2.67903 3.37625 2.68206C3.36252 2.68814 3.35085 2.69271 3.33712 2.69727C3.18676 2.74738 3.04224 2.79673 2.9039 2.84684C2.89395 2.8514 2.88228 2.85444 2.87198 2.85748C2.86821 2.859 2.86511 2.8605 2.86202 2.86202C2.72952 2.91062 2.60457 2.96149 2.48339 3.01009C2.46829 3.01616 2.45147 3.02375 2.43602 3.02907C2.42881 3.03059 2.42229 3.03516 2.4144 3.0382C2.29631 3.08831 2.18577 3.13765 2.07935 3.18928C2.06974 3.19384 2.05842 3.1984 2.04915 3.20295C2.04194 3.20599 2.03611 3.21055 2.0289 3.21359C1.92695 3.26218 1.83083 3.31306 1.74021 3.36166C1.73231 3.36773 1.7227 3.37228 1.7148 3.37684C1.70553 3.38139 1.69764 3.38746 1.68837 3.39278C1.60084 3.44137 1.5181 3.49377 1.44189 3.54389C1.43743 3.54692 1.43194 3.54844 1.42713 3.55299C1.41889 3.55907 1.41238 3.56363 1.40414 3.57046C1.32587 3.62362 1.2531 3.67752 1.18787 3.73068C1.18787 3.73068 1.18753 3.73218 1.18718 3.73218C1.1865 3.73218 1.1865 3.73218 1.18581 3.73218C1.11956 3.78837 1.0612 3.84458 1.00868 3.90153C1.00388 3.90608 0.997356 3.91215 0.99255 3.9167C0.99049 3.91822 0.989118 3.92127 0.986715 3.9243C0.937627 3.97897 0.89643 4.03439 0.860386 4.08906C0.856953 4.09513 0.851811 4.09971 0.848035 4.10502C0.845632 4.10806 0.844259 4.1126 0.8422 4.11564C0.807186 4.17334 0.779716 4.22954 0.759806 4.28952C0.757747 4.29408 0.753972 4.29864 0.752599 4.30319C0.750539 4.30927 0.750542 4.31686 0.748482 4.32217C0.734408 4.36849 0.723421 4.41252 0.718615 4.45884C0.716899 4.4763 0.71553 4.49303 0.714844 4.51049C0.714844 4.51657 0.716897 4.52262 0.716897 4.52794C0.716897 4.58413 0.721023 4.6388 0.734067 4.69575L12.8242 55.4015C12.827 55.4121 12.8335 55.422 12.8373 55.4342C12.8455 55.4577 12.8544 55.4828 12.8685 55.5101C12.8692 55.5116 12.8692 55.5131 12.8699 55.5147C12.8771 55.5268 12.887 55.5382 12.8946 55.5504C12.8953 55.5504 12.8963 55.5519 12.8973 55.5534C12.9128 55.5769 12.9286 55.5997 12.9481 55.6233C12.9488 55.6233 12.9495 55.6232 12.9502 55.6248C12.9588 55.6354 12.9698 55.6437 12.9797 55.6544C13.0051 55.6794 13.0322 55.706 13.0638 55.7333C13.0642 55.7333 13.0642 55.7333 13.0649 55.7333C13.0827 55.7493 13.1023 55.763 13.1225 55.7781C13.1232 55.7797 13.1236 55.7797 13.1239 55.7797C13.1599 55.8062 13.1998 55.8328 13.2423 55.8594C13.2564 55.8685 13.2694 55.8768 13.2842 55.886C13.2856 55.886 13.2876 55.8875 13.289 55.8875C13.3391 55.9171 13.3934 55.9467 13.4507 55.9748C13.4593 55.9809 13.4682 55.9854 13.4775 55.99C13.4782 55.9915 13.4788 55.9915 13.4795 55.9915C13.5252 56.0135 13.5739 56.0363 13.6237 56.0583C13.6491 56.0705 13.6738 56.0803 13.7013 56.0925C13.7057 56.0925 13.7095 56.0955 13.7143 56.0971C13.7607 56.116 13.8108 56.1373 13.8606 56.1548C13.8681 56.1578 13.8746 56.1608 13.8822 56.1624C13.9062 56.1715 13.9285 56.1813 13.9536 56.192C13.9574 56.192 13.9611 56.192 13.9649 56.195C14.0353 56.2201 14.1098 56.2451 14.1856 56.2694C14.2004 56.2755 14.2131 56.2801 14.2282 56.2846C14.2313 56.2861 14.2347 56.2876 14.2375 56.2876C14.4781 56.3651 14.7476 56.4387 15.0414 56.5101C15.0445 56.5101 15.0469 56.5116 15.0497 56.5132C15.0538 56.5132 15.0582 56.5147 15.0631 56.5162C15.1736 56.5428 15.2876 56.5678 15.4053 56.5952C15.4125 56.5952 15.4197 56.5982 15.4273 56.5997C15.4362 56.6027 15.4462 56.6027 15.4551 56.6058C15.569 56.6293 15.6858 56.6544 15.8059 56.6787C15.8135 56.6802 15.8217 56.6817 15.8296 56.6832C15.8413 56.6848 15.8536 56.6878 15.8653 56.6893C15.9587 56.7068 16.0527 56.725 16.1492 56.744C16.1842 56.7485 16.2175 56.7576 16.2532 56.763C16.2834 56.769 16.3146 56.7736 16.3459 56.7789C16.7101 56.8427 17.098 56.9019 17.5072 56.9566C17.5456 56.9627 17.5841 56.9672 17.6232 56.9725C17.6465 56.9756 17.6689 56.9786 17.6922 56.9817C17.7131 56.9847 17.7341 56.9862 17.7554 56.9892C18.1203 57.0371 18.4999 57.0811 18.895 57.1229C18.9012 57.1229 18.907 57.1229 18.9132 57.1244C18.9452 57.1274 18.9778 57.1305 19.0093 57.1335C19.0766 57.1411 19.1453 57.1457 19.2139 57.154C19.2211 57.154 19.2277 57.1555 19.2349 57.1555C19.3248 57.1646 19.4144 57.1715 19.5057 57.1821C19.514 57.1821 19.5229 57.1821 19.5315 57.1836C19.5957 57.1882 19.6605 57.1958 19.7254 57.1996C19.8051 57.2072 19.8837 57.2148 19.9643 57.2201C19.9836 57.2216 20.0031 57.2231 20.0227 57.2246C20.3018 57.2466 20.5874 57.2679 20.8768 57.2884C20.8809 57.2884 20.8843 57.2884 20.8881 57.2884C20.9114 57.2899 20.9341 57.293 20.9578 57.2945C20.9684 57.2945 20.9797 57.296 20.9914 57.296C21.2781 57.3135 21.5702 57.3317 21.8664 57.3461C21.8791 57.3476 21.8918 57.3491 21.9045 57.3491C21.9138 57.3491 21.9227 57.3492 21.932 57.3507C21.954 57.3522 21.9766 57.3537 21.9989 57.3537C22.2883 57.3674 22.5801 57.3818 22.8781 57.3924C22.8908 57.3924 22.9035 57.394 22.9165 57.394C22.9196 57.394 22.923 57.3939 22.9261 57.3955C23.2182 57.4046 23.5155 57.4144 23.8145 57.4205C23.8228 57.422 23.8306 57.422 23.8392 57.422C23.8736 57.4236 23.9065 57.4236 23.9412 57.4251C23.9652 57.4251 23.9903 57.4251 24.015 57.4251C24.3342 57.4327 24.6566 57.4403 24.9823 57.441C24.983 57.441 24.9837 57.441 24.9837 57.441C25.004 57.441 25.0225 57.4426 25.0428 57.4426C25.2123 57.4441 25.3833 57.4456 25.5546 57.4456C25.7829 57.4456 26.0094 57.4456 26.2349 57.4441C26.2483 57.4441 26.2624 57.4441 26.2751 57.4441C26.294 57.4441 26.3125 57.4441 26.3307 57.4441C26.7873 57.441 27.238 57.4334 27.6819 57.4236C27.6832 57.4236 27.6839 57.4236 27.6853 57.4236C27.6959 57.4236 27.7073 57.4236 27.7182 57.4236C27.7364 57.4221 27.7533 57.4205 27.7711 57.4205C27.7879 57.4205 27.8034 57.4205 27.8202 57.4205C28.5864 57.4 29.3313 57.3689 30.0467 57.3287C30.0501 57.3287 30.0535 57.3287 30.0559 57.3287C30.0995 57.3256 30.1418 57.3226 30.1847 57.3195C30.2029 57.3195 30.2207 57.318 30.2389 57.3165C30.4126 57.3059 30.5856 57.296 30.7559 57.2838C30.7799 57.2808 30.8043 57.2808 30.829 57.2778C30.8606 57.2763 30.8928 57.2732 30.9241 57.2702C31.0641 57.2611 31.2035 57.2512 31.3412 57.2406C31.3793 57.2375 31.4177 57.2345 31.4558 57.2315C31.4853 57.2284 31.5155 57.2254 31.5451 57.2239C31.6652 57.2132 31.7843 57.2034 31.9024 57.1927C31.956 57.1882 32.0092 57.1836 32.062 57.1791C32.0861 57.176 32.1104 57.1745 32.1352 57.1715C32.2429 57.1624 32.3504 57.1525 32.4572 57.1419C32.4626 57.1419 32.4685 57.1403 32.4747 57.1403C32.5121 57.1358 32.5519 57.1328 32.5893 57.1282C32.6127 57.1252 32.635 57.1236 32.6576 57.1206C32.6717 57.1191 32.6858 57.1175 32.6999 57.116C32.7809 57.1069 32.8622 57.1001 32.9425 57.0895C32.9446 57.0895 32.9473 57.0895 32.9494 57.0895C33.0225 57.0819 33.095 57.0735 33.1667 57.0644C33.2003 57.0629 33.2323 57.0583 33.2652 57.0538C33.3208 57.0462 33.3764 57.0416 33.4314 57.0348C33.4386 57.0333 33.4468 57.0333 33.454 57.0318C33.5196 57.0226 33.5855 57.0158 33.6504 57.0082C33.6665 57.0052 33.6826 57.0037 33.6981 57.0021C33.7908 56.99 33.8824 56.9786 33.9737 56.9649C34.0235 56.9589 34.0736 56.9513 34.1234 56.9444C34.1334 56.9429 34.1437 56.9429 34.1543 56.9414C34.2422 56.9293 34.3294 56.9163 34.4152 56.9042C34.4454 56.8996 34.477 56.8951 34.5058 56.8905C34.5292 56.886 34.5501 56.8829 34.5728 56.8799C34.5944 56.8769 34.6136 56.8738 34.6345 56.8708C34.7324 56.8548 34.8288 56.8397 34.9243 56.8245C34.9322 56.8214 34.9404 56.8199 34.9476 56.8199C34.9898 56.8138 35.0334 56.8062 35.075 56.7994C35.0884 56.7964 35.1004 56.7949 35.1138 56.7918C35.225 56.7744 35.3338 56.7531 35.4402 56.7341C35.4759 56.728 35.5133 56.7205 35.5477 56.7167C35.549 56.7167 35.5497 56.7151 35.5511 56.7151C35.57 56.7121 35.5878 56.7075 35.6053 56.703C35.9338 56.6422 36.239 56.5769 36.5212 56.5071C36.5607 56.4995 36.6008 56.4881 36.6393 56.4805C36.6595 56.4744 36.6787 56.4684 36.6983 56.4646C36.7385 56.4539 36.7786 56.4441 36.8185 56.4334C36.85 56.4243 36.8823 56.4175 36.9122 56.4084C36.9256 56.4038 36.9383 56.4008 36.9517 56.3977C36.9726 56.3917 36.9918 56.3841 37.0121 56.3803C37.0677 56.3643 37.1212 56.3476 37.1751 56.3317C37.1947 56.3256 37.2146 56.321 37.2335 56.3157C37.2603 56.3066 37.287 56.2998 37.3131 56.2907C37.3372 56.2816 37.3629 56.2747 37.3856 56.2686C37.3941 56.2656 37.4031 56.2626 37.4103 56.2611C37.4405 56.2489 37.4679 56.2406 37.4961 56.2299C37.5277 56.2193 37.5586 56.2079 37.5888 56.1973C37.5908 56.1958 37.5936 56.1958 37.5956 56.1958C37.6351 56.1806 37.6722 56.1662 37.7096 56.1525C37.723 56.1464 37.7371 56.1403 37.7498 56.1365C37.7717 56.1274 37.7947 56.1206 37.8153 56.1115C37.8188 56.11 37.8232 56.1084 37.826 56.1069C37.8359 56.1039 37.8442 56.0993 37.8534 56.0948C37.8843 56.0811 37.9132 56.0697 37.9427 56.056C37.9667 56.0439 37.9935 56.034 38.0172 56.0234C38.0306 56.0173 38.0426 56.0097 38.056 56.0029C38.0793 55.9923 38.103 55.9824 38.1257 55.9687C38.1411 55.9611 38.1572 55.9535 38.1713 55.9482C38.1806 55.9421 38.1881 55.9376 38.1981 55.9323C38.2122 55.9247 38.2256 55.9171 38.2396 55.9072C38.2719 55.8913 38.3021 55.8715 38.3316 55.8526C38.3388 55.8495 38.3471 55.8434 38.3543 55.8389C38.3732 55.8267 38.391 55.8154 38.4085 55.8032C38.4106 55.8017 38.4126 55.7986 38.414 55.7986C38.4226 55.7926 38.4329 55.785 38.4415 55.7797C38.4442 55.7781 38.447 55.7766 38.4487 55.7736C38.4621 55.7645 38.472 55.7546 38.4844 55.744C38.5033 55.7288 38.5218 55.7144 38.5386 55.6992C38.5582 55.6802 38.5747 55.6635 38.5915 55.646C38.5922 55.6445 38.5922 55.6445 38.5929 55.6445C38.6076 55.6286 38.6224 55.6134 38.6351 55.5967C38.6406 55.5906 38.6471 55.583 38.6519 55.5777C38.6526 55.5777 38.6533 55.5762 38.654 55.5746C38.6588 55.5686 38.6612 55.5625 38.6653 55.5572C38.6701 55.5496 38.6752 55.5412 38.68 55.5336C38.6869 55.523 38.6941 55.5116 38.7003 55.501C38.703 55.4949 38.7037 55.4904 38.7065 55.4851C38.7144 55.4699 38.7206 55.4524 38.726 55.4365C38.7302 55.4243 38.7367 55.4144 38.7394 55.4023L50.8292 4.69499C50.8364 4.66538 50.8419 4.63577 50.8447 4.60464C50.8488 4.56288 50.8488 4.52491 50.8461 4.48315C50.8481 4.47024 50.8454 4.4581 50.844 4.44519Z" fill="#020896"/>
<path d="M50.8485 4.60714C50.6071 6.87748 39.1898 8.68842 25.3479 8.64818C11.5064 8.60793 0.481391 6.73472 0.722714 4.46287C0.964723 2.19254 12.3814 0.383089 26.2233 0.421814C40.0648 0.462057 51.0905 2.33681 50.8485 4.60714Z" fill="#022296"/>
<path d="M50.8485 4.60714C50.6071 6.87748 39.1898 8.68842 25.3479 8.64818C11.5064 8.60793 0.481391 6.73472 0.722714 4.46287C0.964723 2.19254 12.3814 0.383089 26.2233 0.421814C40.0648 0.462057 51.0905 2.33681 50.8485 4.60714Z" fill="#021760" fill-opacity="0.7"/>
</svg>