<svg width="327" height="94" viewBox="0 0 327 94" fill="none" xmlns="http://www.w3.org/2000/svg">
<path d="M326.878 12.7396C326.872 12.7031 326.857 12.6666 326.847 12.628C326.825 12.5453 326.79 12.4616 326.744 12.3789C326.722 12.3381 326.696 12.2973 326.669 12.2576C326.612 12.1728 326.539 12.0891 326.457 12.0054C326.424 11.971 326.396 11.9356 326.356 11.9012C326.229 11.7842 326.086 11.6672 325.914 11.5513C325.895 11.5395 325.872 11.5277 325.853 11.5159C325.696 11.4107 325.517 11.3076 325.325 11.2046C325.256 11.167 325.177 11.1305 325.102 11.094C324.943 11.0146 324.773 10.9351 324.592 10.8557C324.502 10.816 324.412 10.7763 324.317 10.7376C324.116 10.655 323.904 10.5734 323.682 10.4918C323.596 10.4596 323.514 10.4274 323.424 10.3952C323.107 10.2836 322.772 10.1719 322.414 10.0603C322.35 10.041 322.279 10.0216 322.216 10.0023C321.912 9.91108 321.597 9.81984 321.266 9.72967C321.129 9.69103 320.986 9.65452 320.844 9.61803C320.562 9.54289 320.269 9.46775 319.97 9.39476C319.814 9.35611 319.659 9.31854 319.501 9.28097C319.164 9.20154 318.813 9.1221 318.457 9.04267C318.325 9.01368 318.199 8.98469 318.065 8.95571C317.572 8.84836 317.062 8.74424 316.531 8.63904C316.404 8.61435 316.269 8.58859 316.142 8.56497C315.724 8.48339 315.299 8.40397 314.858 8.32346C314.657 8.28696 314.447 8.2494 314.24 8.2129C313.848 8.14312 313.448 8.07441 313.036 8.00571C312.818 7.96814 312.598 7.93272 312.376 7.89515C311.908 7.81894 311.43 7.7438 310.941 7.66866C310.774 7.64289 310.612 7.61713 310.442 7.59136C309.788 7.49153 309.115 7.39277 308.424 7.29509C308.385 7.28972 308.347 7.28329 308.307 7.27684C308.048 7.24035 307.777 7.20493 307.513 7.16843C307.187 7.12334 306.864 7.07826 306.534 7.03425C306.212 6.99131 305.884 6.94837 305.556 6.9065C305.22 6.86249 304.89 6.81849 304.548 6.77555C304.204 6.73261 303.852 6.68968 303.499 6.64674C303.163 6.60488 302.828 6.56407 302.484 6.52221C302.117 6.4782 301.744 6.43419 301.369 6.39126C301.025 6.35046 300.682 6.31074 300.332 6.2721C300.218 6.25921 300.106 6.24527 299.991 6.23239C299.582 6.18623 299.163 6.14114 298.745 6.09498C298.62 6.08103 298.496 6.06707 298.37 6.05312C297.679 5.97905 296.979 5.90498 296.266 5.83091C296.121 5.81589 295.976 5.80193 295.832 5.7869C295.271 5.73001 294.699 5.67204 294.125 5.61515C293.881 5.59261 293.634 5.56793 293.386 5.54324C293.109 5.51641 292.834 5.48956 292.554 5.46272C292.42 5.44984 292.279 5.43804 292.145 5.42516C291.223 5.33821 290.288 5.25232 289.335 5.16645C289.251 5.15893 289.17 5.15142 289.084 5.14391C288.037 5.05052 286.967 4.95928 285.884 4.86911C285.776 4.86052 285.677 4.85087 285.569 4.84228C285.367 4.82511 285.16 4.809 284.959 4.7929C284.263 4.73493 283.558 4.67912 282.847 4.62222C282.491 4.59431 282.134 4.56532 281.773 4.53741C281.008 4.4773 280.231 4.41933 279.45 4.36136C279.234 4.34419 279.025 4.3281 278.808 4.312C278.742 4.30663 278.676 4.30341 278.61 4.29804C277.611 4.22505 276.601 4.15204 275.576 4.08119C275.366 4.06617 275.148 4.05223 274.936 4.0372C274.115 3.98031 273.292 3.92447 272.456 3.86865C272.355 3.86221 272.256 3.8547 272.154 3.84826C271.758 3.8225 271.351 3.79675 270.951 3.77098C270.431 3.73771 269.912 3.70335 269.388 3.67115C268.913 3.64109 268.434 3.6121 267.954 3.58205C267.39 3.54662 266.825 3.51227 266.255 3.47792C266.094 3.46826 265.936 3.45861 265.775 3.44895C265.423 3.42855 265.067 3.40815 264.714 3.38775C264.199 3.3577 263.685 3.32764 263.167 3.29758C262.624 3.26645 262.076 3.23533 261.53 3.20527C261.015 3.17736 260.502 3.14838 259.984 3.12047C259.771 3.10866 259.56 3.09686 259.346 3.08613C259.005 3.0668 258.656 3.04962 258.312 3.03137C257.797 3.00561 257.281 2.9777 256.761 2.95086C256.201 2.92188 255.634 2.8929 255.066 2.86499C254.589 2.84137 254.112 2.81776 253.632 2.79414C253.39 2.78126 253.152 2.76946 252.91 2.75765C252.486 2.73618 252.055 2.71793 251.627 2.69646C251.207 2.67714 250.789 2.65567 250.364 2.63743C249.75 2.60952 249.13 2.58052 248.508 2.55261C248.021 2.53007 247.539 2.50753 247.051 2.48606C246.897 2.47962 246.747 2.47211 246.591 2.46567C246.434 2.45816 246.268 2.45279 246.111 2.44528C244.213 2.36262 242.294 2.28318 240.346 2.20589C240.293 2.20375 240.243 2.20053 240.19 2.19946C240.054 2.19409 239.915 2.18979 239.781 2.18442C237.99 2.11465 236.179 2.04596 234.347 1.98262C234.195 1.97618 234.052 1.97081 233.9 1.96544C233.839 1.9633 233.779 1.96114 233.72 1.96007C231.946 1.89781 230.148 1.83771 228.338 1.78081C228.111 1.7733 227.889 1.76472 227.66 1.75827C227.487 1.75291 227.306 1.74861 227.132 1.74324C225.431 1.68957 223.715 1.63804 221.986 1.58867C221.862 1.58544 221.742 1.58116 221.62 1.57794C221.375 1.5715 221.125 1.56505 220.881 1.55861C219.457 1.51889 218.024 1.48132 216.583 1.44482C216.342 1.43838 216.106 1.43193 215.864 1.42549C215.751 1.42227 215.635 1.42014 215.523 1.41799C213.96 1.37935 212.387 1.34177 210.803 1.30635C210.72 1.30528 210.64 1.30312 210.557 1.30098C210.318 1.29561 210.077 1.29132 209.838 1.28596C208.592 1.25912 207.34 1.23336 206.082 1.2076C205.826 1.20223 205.574 1.19579 205.321 1.1915C205.01 1.18613 204.696 1.18075 204.385 1.17431C203.723 1.16143 203.058 1.14963 202.395 1.13782C201.973 1.13031 201.556 1.1228 201.132 1.11528C200.839 1.10991 200.542 1.10562 200.249 1.10133C199.545 1.08952 198.839 1.07877 198.133 1.06696C197.721 1.06052 197.315 1.05301 196.902 1.04657C196.689 1.04335 196.473 1.04013 196.258 1.03799C195.565 1.02725 194.87 1.01759 194.176 1.00793C193.705 1.00149 193.234 0.992906 192.761 0.987539C192.49 0.984318 192.219 0.981088 191.949 0.976794C191.586 0.9725 191.223 0.968213 190.86 0.96392C190.428 0.958552 189.998 0.952112 189.566 0.947819C189.075 0.942451 188.583 0.937085 188.094 0.931718C187.779 0.928497 187.465 0.925274 187.15 0.922054C186.882 0.918833 186.615 0.91561 186.347 0.91239C185.271 0.901655 184.191 0.890921 183.111 0.882333C182.043 0.873746 180.976 0.864083 179.902 0.856569C179.764 0.855495 179.625 0.855505 179.482 0.853358C179.277 0.852285 179.069 0.851205 178.86 0.850131C178.344 0.846911 177.828 0.843688 177.31 0.840467C176.582 0.836174 175.853 0.831887 175.123 0.827593C175.123 0.827593 175.121 0.827593 175.119 0.827593C174.982 0.82652 174.844 0.826521 174.707 0.825448C173.836 0.821154 172.967 0.817932 172.092 0.813638C171.856 0.813638 171.62 0.81363 171.385 0.812557C171.058 0.812557 170.733 0.811493 170.406 0.809347C170.091 0.809347 169.781 0.807193 169.466 0.80612C168.59 0.803973 167.711 0.802894 166.83 0.800747C166.799 0.800747 166.767 0.800747 166.738 0.800747C165.943 0.799674 165.15 0.799683 164.359 0.799683C163.884 0.799683 163.409 0.799683 162.936 0.799683C162.73 0.799683 162.522 0.799683 162.317 0.799683C162.181 0.799683 162.044 0.799683 161.908 0.799683L161.906 0.800747C161.09 0.801821 160.274 0.801836 159.461 0.802909C159.205 0.802909 158.946 0.805055 158.689 0.805055C158.462 0.805055 158.233 0.805046 158.005 0.80612C157.677 0.807193 157.351 0.807192 157.023 0.808265C156.214 0.810412 155.404 0.812571 154.597 0.816865C154.502 0.816865 154.41 0.817929 154.315 0.817929C154.17 0.819003 154.025 0.81901 153.881 0.81901C153.225 0.821157 152.568 0.824364 151.914 0.828658C151.463 0.830805 151.014 0.834029 150.566 0.836176C150.266 0.83725 149.968 0.840475 149.668 0.841549C149.435 0.843695 149.202 0.843693 148.97 0.84584C147.993 0.852281 147.016 0.859799 146.042 0.867313C145.069 0.875901 144.095 0.884491 143.129 0.893078C142.858 0.895225 142.592 0.898441 142.323 0.901661C142.007 0.903808 141.69 0.908105 141.373 0.911325C140.981 0.914545 140.585 0.918841 140.192 0.923135C139.917 0.926355 139.646 0.929569 139.372 0.933863C137.87 0.951038 136.375 0.968208 134.885 0.988603C134.628 0.991824 134.368 0.993973 134.111 0.998267C134.038 0.998267 133.966 1.00041 133.893 1.00041C132.163 1.02403 130.445 1.05086 128.734 1.07877C128.529 1.08199 128.314 1.08414 128.109 1.08844C127.352 1.10024 126.599 1.11312 125.846 1.12708C125.718 1.12922 125.593 1.13246 125.465 1.13353C123.825 1.16359 122.195 1.19471 120.574 1.22799C120.106 1.23765 119.639 1.2473 119.173 1.25696C117.491 1.29239 115.819 1.32996 114.16 1.36861C114.062 1.37075 113.963 1.37291 113.867 1.37398C113.236 1.38901 112.613 1.40617 111.984 1.4212C111.39 1.43623 110.795 1.45019 110.206 1.46629C110.1 1.46951 109.992 1.47167 109.887 1.47381C109.451 1.48562 109.016 1.49742 108.58 1.51031C107.832 1.5307 107.082 1.55001 106.34 1.57148C106.212 1.5747 106.082 1.57793 105.955 1.58223C105.35 1.5994 104.753 1.61657 104.153 1.63482C103.719 1.64663 103.282 1.65951 102.848 1.67346C102.67 1.67776 102.487 1.6842 102.309 1.6885C101.33 1.71855 100.357 1.7486 99.3874 1.77973C98.4188 1.81086 97.4535 1.84199 96.4957 1.87419C96.3325 1.88063 96.1703 1.88601 96.0093 1.89137C95.7849 1.89889 95.5647 1.9064 95.3446 1.91391C94.7723 1.93431 94.2 1.95363 93.6309 1.97402C93.2894 1.98583 92.9512 1.99872 92.6118 2.0116C92.3391 2.02126 92.0664 2.03093 91.7936 2.04059C91.4457 2.05347 91.0914 2.06528 90.7424 2.07923C90.2474 2.09855 89.7588 2.11679 89.2681 2.13612C88.9868 2.14685 88.7065 2.15758 88.4252 2.16832C88.1922 2.17798 87.9549 2.18658 87.7229 2.19516C86.9863 2.22415 86.2573 2.25313 85.5271 2.28319C85.4036 2.28748 85.278 2.29284 85.1534 2.29821C85.017 2.30357 84.8785 2.30894 84.74 2.31431C83.7521 2.3551 82.7707 2.39696 81.7957 2.43883C80.7638 2.48391 79.7384 2.529 78.7215 2.57623C78.627 2.58053 78.5304 2.58481 78.4359 2.58911C78.4316 2.58911 78.4273 2.58911 78.423 2.58911C78.3704 2.59125 78.3177 2.59341 78.2673 2.59556C77.1259 2.64709 75.9962 2.70076 74.8742 2.75551C74.8215 2.75765 74.7668 2.76086 74.7131 2.76301C74.4404 2.77696 74.1741 2.78985 73.9035 2.80381C73.0713 2.8446 72.238 2.88646 71.4166 2.92833C71.3038 2.93477 71.1858 2.94012 71.073 2.94549C70.8658 2.95623 70.666 2.96803 70.461 2.97769C69.3603 3.03459 68.2672 3.09364 67.187 3.15267C66.954 3.16556 66.7167 3.17629 66.4869 3.19025C66.3591 3.19669 66.2356 3.20527 66.1057 3.21279C64.698 3.29115 63.3085 3.37058 61.9363 3.45216C61.8128 3.45967 61.685 3.4672 61.5626 3.47471C61.1137 3.50047 60.6756 3.52945 60.2311 3.55628C59.8392 3.5799 59.4451 3.60351 59.0564 3.6282C58.5066 3.66255 57.9654 3.6969 57.421 3.73233C56.9496 3.76238 56.475 3.79245 56.0079 3.82358C55.8909 3.83002 55.7728 3.8386 55.6558 3.84612C55.3873 3.86436 55.1274 3.88154 54.859 3.89979C54.2094 3.9438 53.5608 3.98673 52.9208 4.03075C52.4967 4.05973 52.0779 4.08979 51.6602 4.11877C51.0836 4.15956 50.5091 4.20142 49.9379 4.24114C49.7264 4.25617 49.5084 4.27227 49.2958 4.2873C49.0939 4.30233 48.8995 4.31736 48.6998 4.33239C48.0072 4.38284 47.3265 4.43544 46.6468 4.48696C46.2817 4.5138 45.9145 4.54278 45.5515 4.57069C44.7172 4.63617 43.8925 4.70165 43.0765 4.76928C42.9175 4.78216 42.7533 4.79396 42.5944 4.80792C42.5718 4.81007 42.5503 4.81114 42.5267 4.81329C41.5646 4.89273 40.6164 4.97323 39.6812 5.05589C39.3795 5.08165 39.0852 5.10848 38.7878 5.13425C38.1296 5.19221 37.4767 5.25125 36.8314 5.31029C36.6929 5.32425 36.5479 5.33605 36.4072 5.34893C36.2118 5.36718 36.0261 5.38544 35.8328 5.40369C35.2852 5.45521 34.7418 5.50781 34.2071 5.56041C33.8635 5.59368 33.5188 5.62695 33.1795 5.6613C32.6297 5.71605 32.0864 5.7708 31.5495 5.82554C31.3423 5.84808 31.1254 5.86849 30.9203 5.88996C30.8344 5.89855 30.7527 5.9082 30.669 5.91679C30.1343 5.97261 29.6146 6.0295 29.0916 6.08532C28.8296 6.1143 28.5633 6.14221 28.3035 6.1712C27.7075 6.23775 27.1266 6.30324 26.55 6.37086C26.3911 6.38911 26.2247 6.40735 26.0657 6.4256C26.0486 6.42775 26.0346 6.42989 26.0174 6.43204C25.5535 6.48571 25.1026 6.54153 24.6526 6.59628C24.3133 6.63814 23.9729 6.67787 23.6422 6.71973C23.0484 6.7938 22.4632 6.86893 21.893 6.943C21.8887 6.943 21.8823 6.94301 21.8759 6.94408C21.6536 6.97414 21.4399 7.00418 21.2198 7.03317C20.8128 7.08684 20.4037 7.14159 20.0096 7.19526C19.6295 7.24786 19.2655 7.30154 18.8983 7.35414C18.6696 7.38742 18.4301 7.41961 18.2046 7.45289C18.2003 7.45396 18.1939 7.45504 18.1874 7.45612C17.613 7.54092 17.0503 7.62571 16.5038 7.71159C16.2965 7.74486 16.0989 7.77707 15.896 7.80928C15.5642 7.86295 15.2292 7.91554 14.9082 7.96814C14.8953 7.97029 14.8835 7.97245 14.8706 7.97459C14.717 7.99928 14.571 8.02611 14.4196 8.05187C14.0609 8.11306 13.7023 8.17424 13.3565 8.2365C13.1654 8.2687 12.985 8.30413 12.8003 8.33848C12.5587 8.38249 12.3096 8.4265 12.0745 8.47051C12.0261 8.48018 11.98 8.48984 11.9316 8.49843C11.7362 8.53492 11.5504 8.5725 11.3615 8.61007C11.0952 8.66159 10.8289 8.71419 10.5733 8.76679C10.3865 8.80543 10.2082 8.843 10.0278 8.88057C9.87213 8.91385 9.71106 8.94713 9.55966 8.97826C9.47376 8.99758 9.39645 9.01691 9.31055 9.03408C9.1366 9.07273 8.96695 9.11136 8.79837 9.15C8.5718 9.2026 8.34737 9.25414 8.12939 9.30674C7.97262 9.34538 7.81692 9.38187 7.66551 9.41944C7.57317 9.44199 7.47655 9.46453 7.38635 9.48707C7.26072 9.51928 7.14476 9.55255 7.02128 9.58368C6.88061 9.62018 6.73992 9.65775 6.60141 9.69532C6.39632 9.75114 6.19873 9.80695 6.00331 9.86491C5.87982 9.89927 5.7542 9.93578 5.63393 9.9712C5.59635 9.98301 5.5545 9.99481 5.51692 10.0066C5.34726 10.0571 5.19369 10.1107 5.03262 10.1612C4.94028 10.1912 4.8415 10.2224 4.7513 10.2514C4.50218 10.3351 4.26704 10.4188 4.04048 10.5026C4.00504 10.5165 3.9653 10.5305 3.92772 10.5444C3.68827 10.6346 3.46385 10.7247 3.25232 10.816C3.1793 10.8471 3.11595 10.8793 3.04938 10.9094C2.92804 10.9641 2.80241 11.0189 2.69288 11.0736C2.67141 11.0833 2.65744 11.094 2.63596 11.1037C2.5608 11.1423 2.49531 11.1799 2.42444 11.2175C2.31491 11.2754 2.20861 11.3345 2.10982 11.3946C2.04218 11.4343 1.98418 11.4762 1.92298 11.5159C1.86607 11.5524 1.80163 11.59 1.75117 11.6275C1.72432 11.6468 1.70502 11.6662 1.68032 11.6855C1.61912 11.7317 1.56541 11.7778 1.51064 11.824C1.44729 11.8776 1.38932 11.9313 1.33671 11.9839C1.28839 12.0311 1.24864 12.0784 1.20891 12.1267C1.18636 12.1546 1.15201 12.1836 1.1316 12.2126C1.10905 12.2426 1.09616 12.2748 1.07468 12.3059C1.05536 12.3338 1.03927 12.3618 1.02209 12.3897C0.97377 12.482 0.931889 12.5754 0.910413 12.6688C0.897528 12.7181 0.891089 12.7675 0.887868 12.8169C0.883573 12.862 0.894288 12.906 0.898584 12.95C0.900731 12.9833 0.898596 13.0155 0.905039 13.0488C0.926515 13.154 0.957661 13.2591 1.01242 13.3633C13.6164 37.2592 26.2236 61.153 38.8297 85.0479C38.8737 85.1306 38.9349 85.2122 39.0058 85.2937C39.0283 85.3206 39.0605 85.3474 39.0874 85.3742C39.1421 85.4279 39.1991 85.4837 39.2656 85.5374C39.3054 85.5685 39.3494 85.5997 39.3934 85.6308C39.4621 85.6812 39.5319 85.7306 39.6114 85.7811C39.664 85.8122 39.7209 85.8466 39.7767 85.8777C39.8583 85.926 39.9486 85.9743 40.0409 86.0226C40.1042 86.0548 40.1708 86.0881 40.2406 86.1214C40.3416 86.1675 40.4479 86.2158 40.5595 86.2641C40.6347 86.2953 40.7067 86.3275 40.784 86.3597C40.9074 86.409 41.0417 86.4595 41.178 86.5099C41.2532 86.5378 41.3251 86.5668 41.4046 86.5958C41.585 86.6592 41.7783 86.7214 41.9726 86.7858C42.0188 86.7998 42.0585 86.8137 42.1026 86.8288C42.3484 86.9039 42.6105 86.9812 42.8811 87.0574C42.9691 87.081 43.0657 87.1068 43.1559 87.1304C43.3449 87.183 43.536 87.2334 43.739 87.285C43.8582 87.315 43.9849 87.3472 44.1083 87.3762C44.293 87.4224 44.482 87.4675 44.6764 87.5125C44.8128 87.5437 44.9513 87.5759 45.0919 87.6059C45.2874 87.651 45.4882 87.694 45.6922 87.7369C45.8414 87.768 45.9918 87.8002 46.1453 87.8314C46.3525 87.8743 46.5673 87.9172 46.7853 87.9591C46.9442 87.9902 47.102 88.0224 47.2674 88.0536C47.4961 88.0976 47.7334 88.1394 47.9718 88.1834C48.1307 88.2124 48.2886 88.2425 48.4496 88.2704C48.7267 88.3198 49.0134 88.3681 49.3033 88.4164C49.4397 88.4389 49.5717 88.4625 49.7102 88.4851C50.1344 88.5549 50.5703 88.6236 51.0149 88.6923C51.1598 88.7148 51.3123 88.7384 51.4616 88.7599C51.7719 88.8071 52.0822 88.8544 52.4033 88.9016C52.6051 88.9295 52.8124 88.9585 53.0153 88.9874C53.2988 89.0282 53.5834 89.0669 53.8733 89.1066C54.0934 89.1367 54.3178 89.1667 54.5422 89.1957C54.8257 89.2343 55.1124 89.2709 55.4023 89.3084C55.6439 89.3396 55.8844 89.3696 56.1282 89.4007C56.416 89.4362 56.7091 89.4716 57.0044 89.5081C57.2514 89.5381 57.5016 89.5693 57.755 89.5993C58.0674 89.6358 58.3885 89.6734 58.7074 89.7099C58.9511 89.7378 59.1917 89.7668 59.4397 89.7936C59.7919 89.8333 60.1505 89.872 60.5113 89.9106C60.7422 89.9353 60.9688 89.9611 61.2018 89.9858C61.7762 90.047 62.3593 90.1071 62.9552 90.1672C63.1689 90.1897 63.3912 90.2101 63.6092 90.2316C64.014 90.2724 64.4188 90.3121 64.8301 90.3518C65.1114 90.3786 65.4002 90.4055 65.6859 90.4323C66.0423 90.4645 66.3946 90.4989 66.7575 90.5311C67.0657 90.559 67.3781 90.588 67.6906 90.6148C68.0428 90.6459 68.3971 90.6781 68.7558 90.7093C69.0747 90.7361 69.3958 90.764 69.72 90.7908C70.0851 90.822 70.4545 90.8542 70.825 90.8832C71.146 90.91 71.4671 90.9368 71.7913 90.9626C72.1747 90.9937 72.5634 91.0249 72.9532 91.0549C73.2828 91.0796 73.6093 91.1075 73.9411 91.1322C74.3416 91.1623 74.7464 91.1934 75.1533 91.2224C75.4765 91.246 75.7998 91.2707 76.1262 91.2943C76.6631 91.334 77.2107 91.3727 77.7583 91.4102C78.1835 91.4403 78.6141 91.4714 79.0458 91.5004C79.5515 91.5337 80.0562 91.5691 80.5705 91.6034C80.9163 91.626 81.2685 91.6496 81.6175 91.6711C82.0513 91.699 82.4819 91.7269 82.92 91.7548C83.2936 91.7773 83.6727 91.801 84.0507 91.8246C84.4684 91.8493 84.885 91.875 85.3091 91.9008C85.4809 91.9104 85.6463 91.9212 85.8191 91.9308C86.0189 91.9426 86.224 91.9545 86.4248 91.9663C86.9595 91.9974 87.4985 92.0275 88.0419 92.0586C88.3694 92.0779 88.6958 92.0962 89.0254 92.1144C89.688 92.1509 90.3548 92.1863 91.0259 92.2228C91.2524 92.2357 91.4726 92.2475 91.7013 92.2593C92.5861 92.3065 93.4794 92.3516 94.3814 92.3956C94.6746 92.4107 94.9731 92.4236 95.2684 92.4386C95.8761 92.4676 96.4849 92.4976 97.0991 92.5266C97.2666 92.5352 97.4331 92.5438 97.6027 92.5502C97.7412 92.5567 97.8884 92.5631 98.028 92.5695C99.4314 92.635 100.853 92.6962 102.296 92.7574C102.527 92.7681 102.762 92.7778 102.994 92.7864C104.46 92.8476 105.943 92.9055 107.445 92.9624C107.548 92.9656 107.645 92.971 107.747 92.9742C107.894 92.9796 108.042 92.9839 108.189 92.9903C109.54 93.0408 110.9 93.0891 112.279 93.1353C112.506 93.1438 112.734 93.1503 112.963 93.1578C114.29 93.2007 115.628 93.2437 116.979 93.2834C117.1 93.2877 117.216 93.2909 117.336 93.2941C117.375 93.2963 117.417 93.2963 117.457 93.2984C118.786 93.3381 120.133 93.3746 121.484 93.4111C121.774 93.4176 122.064 93.4262 122.358 93.4337C123.68 93.468 125.015 93.5013 126.359 93.5324C126.485 93.5346 126.611 93.5389 126.74 93.5421C126.937 93.5475 127.138 93.5496 127.336 93.555C128.671 93.585 130.016 93.6151 131.371 93.6419C131.406 93.6419 131.44 93.6419 131.476 93.643C132.879 93.6709 134.297 93.6967 135.719 93.7213C135.895 93.7235 136.069 93.7278 136.243 93.7299C136.377 93.7321 136.511 93.7342 136.643 93.7364C138.046 93.7589 139.457 93.7815 140.879 93.8008C141.13 93.804 141.385 93.8083 141.638 93.8115C143.046 93.8308 144.461 93.8469 145.885 93.863C145.967 93.8641 146.048 93.8652 146.134 93.8663C146.157 93.8673 146.182 93.8673 146.207 93.8673C147.798 93.8845 149.402 93.8974 151.012 93.9092C151.235 93.9113 151.455 93.9135 151.677 93.9146C153.273 93.9264 154.877 93.936 156.49 93.9414C156.582 93.9425 156.672 93.9425 156.765 93.9436C156.89 93.9436 157.018 93.9436 157.145 93.9446C158.659 93.9511 160.177 93.9554 161.706 93.9575C164.003 93.9607 166.285 93.9575 168.553 93.9532C168.589 93.9532 168.627 93.9532 168.665 93.9532C168.729 93.9521 168.791 93.9511 168.854 93.9511C171.059 93.9446 173.248 93.9339 175.42 93.9199C175.607 93.9178 175.79 93.9178 175.976 93.9156C178.091 93.9006 180.19 93.8824 182.272 93.8588C182.377 93.8577 182.484 93.8566 182.589 93.8566C182.681 93.8545 182.771 93.8545 182.862 93.8523C184.571 93.833 186.268 93.8104 187.949 93.7868C188.215 93.7825 188.48 93.7782 188.744 93.7739C190.401 93.7503 192.044 93.7214 193.677 93.6924C193.943 93.6881 194.211 93.6838 194.478 93.6773C196.11 93.6484 197.73 93.614 199.336 93.5797C199.583 93.5743 199.829 93.5678 200.076 93.5625C201.698 93.526 203.306 93.4884 204.898 93.4476C204.981 93.4444 205.072 93.4433 205.155 93.4401C205.446 93.4337 205.73 93.4251 206.022 93.4176C206.605 93.4025 207.186 93.3864 207.765 93.3714C208.235 93.3585 208.702 93.3446 209.17 93.3306C209.701 93.3156 210.227 93.3006 210.754 93.2845C211.224 93.2705 211.693 93.2566 212.159 93.2415C212.688 93.2254 213.209 93.2082 213.73 93.1911C214.201 93.176 214.668 93.1621 215.136 93.146C215.644 93.1288 216.146 93.1116 216.65 93.0945C217.114 93.0773 217.579 93.0633 218.038 93.0462C218.58 93.0268 219.114 93.0064 219.651 92.986C220.125 92.9689 220.601 92.9517 221.071 92.9324C221.914 92.9012 222.75 92.868 223.581 92.8347C224.072 92.8143 224.554 92.7939 225.04 92.7735C225.47 92.7552 225.901 92.7391 226.328 92.7198C226.834 92.6984 227.335 92.6758 227.835 92.6543C228.24 92.635 228.647 92.6179 229.05 92.5996C229.232 92.591 229.419 92.5824 229.602 92.5749C229.758 92.5685 229.906 92.5599 230.061 92.5524C231.454 92.488 232.83 92.4214 234.187 92.3516C234.418 92.3409 234.649 92.3291 234.879 92.3173C236.257 92.2475 237.617 92.1756 238.952 92.1004C239.152 92.0897 239.346 92.0779 239.546 92.0672C240.901 91.992 242.239 91.9126 243.55 91.8321C243.718 91.8214 243.88 91.8117 244.045 91.8009C245.365 91.7204 246.664 91.6378 247.938 91.5519C247.99 91.5476 248.049 91.5455 248.101 91.5412C248.356 91.5229 248.604 91.5058 248.856 91.4886C249.342 91.4553 249.824 91.421 250.303 91.3877C250.649 91.363 250.991 91.3372 251.333 91.3136C251.797 91.2814 252.255 91.2471 252.711 91.2116C253.038 91.1891 253.365 91.1633 253.686 91.1386C254.187 91.1011 254.68 91.0624 255.173 91.0238C255.43 91.0023 255.692 90.983 255.949 90.9626C256.693 90.9014 257.43 90.8424 258.151 90.7801C258.164 90.7801 258.174 90.778 258.185 90.778C258.734 90.7307 259.273 90.6835 259.808 90.6373C259.888 90.6288 259.971 90.6223 260.054 90.6148C261.942 90.4473 263.751 90.2745 265.48 90.0963C265.484 90.0963 265.491 90.0953 265.499 90.0953C266.441 89.9976 267.354 89.8988 268.245 89.8001C268.368 89.7861 268.492 89.7732 268.614 89.7593C269.464 89.6627 270.284 89.5661 271.085 89.4684C271.162 89.4587 271.244 89.449 271.32 89.4405C271.393 89.4308 271.457 89.4222 271.527 89.4147C272.264 89.3224 272.981 89.23 273.675 89.1356C273.805 89.1184 273.931 89.1002 274.06 89.083C274.723 88.9918 275.369 88.8994 275.992 88.806C276.038 88.7996 276.089 88.7932 276.133 88.7867C276.15 88.7846 276.162 88.7813 276.177 88.7792C276.815 88.6837 277.42 88.5871 278.014 88.4894C278.142 88.4679 278.272 88.4464 278.397 88.425C278.976 88.3284 279.537 88.2296 280.069 88.1319C280.094 88.1276 280.124 88.1233 280.147 88.119C280.204 88.1083 280.252 88.0976 280.303 88.0879C280.803 87.9934 281.283 87.9001 281.74 87.8045C281.815 87.7895 281.891 87.7755 281.965 87.7594C282.444 87.6575 282.9 87.5555 283.336 87.4524C283.38 87.4417 283.432 87.431 283.476 87.4213C283.567 87.3988 283.65 87.3773 283.738 87.3558C283.848 87.329 283.954 87.3032 284.057 87.2764C284.229 87.2324 284.397 87.1884 284.561 87.1444C284.651 87.1197 284.743 87.095 284.831 87.0714C285.018 87.0188 285.197 86.9672 285.371 86.9146C285.427 86.8975 285.488 86.8824 285.542 86.8653C285.756 86.7987 285.962 86.7343 286.157 86.6667C286.165 86.6635 286.174 86.6602 286.181 86.657C286.256 86.6323 286.326 86.6055 286.397 86.5808C286.531 86.5325 286.663 86.4863 286.785 86.4391C286.858 86.4112 286.925 86.3811 286.994 86.3543C287.106 86.3092 287.216 86.2641 287.319 86.218C287.385 86.189 287.445 86.1589 287.508 86.13C287.603 86.0849 287.697 86.0409 287.783 85.9958C287.84 85.9668 287.895 85.9346 287.946 85.9056C288.003 85.8745 288.066 85.8423 288.116 85.8111C288.141 85.7961 288.16 85.7822 288.182 85.7682C288.219 85.7446 288.255 85.721 288.289 85.6984C288.36 85.6501 288.428 85.6007 288.489 85.5535C288.522 85.5277 288.554 85.5009 288.585 85.4752C288.64 85.4258 288.691 85.3775 288.737 85.327C288.759 85.3045 288.785 85.2808 288.804 85.2583C288.866 85.1864 288.916 85.1134 288.956 85.0415C301.562 61.1455 314.167 37.2517 326.775 13.3558C326.821 13.2667 326.855 13.1786 326.876 13.0885C326.9 12.9779 326.896 12.8577 326.878 12.7396Z" fill="#8F70FA"/>
<path d="M326.869 13.0971C325.298 19.7729 251.056 25.0897 161.046 24.9727C71.0355 24.8567 -0.660409 19.351 0.910523 12.6753C2.48146 5.99954 76.7244 0.683841 166.736 0.799773C256.746 0.915705 328.44 6.42247 326.869 13.0971Z" fill="#8F70FA"/>
<path d="M326.869 13.0971C325.298 19.7729 251.056 25.0897 161.046 24.9727C71.0355 24.8567 -0.660409 19.351 0.910523 12.6753C2.48146 5.99954 76.7244 0.683841 166.736 0.799773C256.746 0.915705 328.44 6.42247 326.869 13.0971Z" fill="#3600F0" fill-opacity="0.3"/>
</svg>