<svg width="158" height="82" viewBox="0 0 158 82" fill="none" xmlns="http://www.w3.org/2000/svg">
<path d="M157.277 6.33301C157.264 6.2933 157.25 6.25355 157.228 6.21384C157.216 6.19451 157.204 6.17413 157.189 6.1548C157.164 6.11509 157.13 6.07323 157.092 6.03566C157.075 6.01848 157.059 6.00022 157.039 5.98305C156.98 5.9283 156.91 5.87142 156.828 5.81775C156.817 5.80916 156.801 5.80058 156.788 5.79092C156.715 5.74476 156.635 5.69859 156.547 5.65028C156.511 5.63311 156.469 5.61272 156.432 5.59125C156.359 5.55583 156.28 5.5204 156.199 5.4839C156.153 5.46243 156.104 5.44419 156.054 5.42058C155.964 5.38515 155.867 5.34758 155.768 5.30894C155.72 5.29176 155.674 5.2735 155.623 5.25632C155.474 5.20373 155.317 5.15114 155.15 5.10069C155.108 5.08566 155.059 5.0717 155.018 5.05882C154.883 5.0191 154.745 4.97939 154.598 4.93968C154.527 4.91821 154.448 4.8978 154.373 4.87848C154.248 4.84735 154.118 4.81299 153.984 4.77971C153.9 4.75717 153.816 4.74001 153.73 4.71639C153.585 4.68311 153.435 4.64877 153.279 4.61549C153.2 4.59617 153.122 4.57793 153.04 4.56075C152.809 4.5103 152.574 4.46197 152.327 4.41367C152.243 4.39649 152.153 4.38041 152.065 4.36538C151.889 4.32996 151.71 4.29452 151.526 4.26232C151.414 4.24085 151.297 4.22261 151.182 4.199C151.015 4.17001 150.843 4.14209 150.668 4.1131C150.542 4.09056 150.416 4.0691 150.288 4.04978C150.101 4.01865 149.907 3.98645 149.713 3.95746C149.596 3.93814 149.48 3.9199 149.363 3.90272C149.063 3.85871 148.755 3.81254 148.441 3.76638C148.414 3.76209 148.386 3.7578 148.357 3.75351C148.317 3.74707 148.271 3.74278 148.229 3.73634C147.677 3.65905 147.107 3.58283 146.511 3.50768C146.443 3.4991 146.373 3.49053 146.304 3.48302C145.71 3.41002 145.094 3.33594 144.458 3.26294C144.423 3.2608 144.393 3.25434 144.357 3.2522C144.286 3.24361 144.208 3.23717 144.135 3.22966C143.705 3.17921 143.266 3.13305 142.815 3.0869C142.725 3.07616 142.637 3.06542 142.545 3.0579C142.058 3.00745 141.559 2.95703 141.051 2.90872C140.959 2.90013 140.871 2.89155 140.778 2.88189C140.688 2.8733 140.591 2.8647 140.499 2.85719C140.079 2.81747 139.65 2.77989 139.216 2.74018C139.183 2.73803 139.15 2.73374 139.115 2.73159C138.616 2.68543 138.107 2.64359 137.588 2.59957C137.531 2.59528 137.475 2.58882 137.418 2.58238C137.306 2.57593 137.188 2.56521 137.073 2.55555C136.775 2.533 136.475 2.50723 136.173 2.48469C135.961 2.46751 135.749 2.45141 135.533 2.43424C135.251 2.41277 134.969 2.39022 134.683 2.36875C134.51 2.35587 134.34 2.34195 134.166 2.33121C134.133 2.32692 134.095 2.32474 134.061 2.3226C133.096 2.2539 132.106 2.18413 131.093 2.11543C131.049 2.11328 131.009 2.11114 130.965 2.10685C130.881 2.10255 130.791 2.09612 130.705 2.08968C129.849 2.03494 128.977 1.98018 128.089 1.92651C128.022 1.92436 127.962 1.91793 127.894 1.91363C127.802 1.90934 127.703 1.90504 127.611 1.8986C126.75 1.84815 125.881 1.7977 124.993 1.75154C124.927 1.7451 124.867 1.74296 124.802 1.73867C124.722 1.73437 124.636 1.73006 124.556 1.72576C123.66 1.6796 122.752 1.6313 121.831 1.58729C121.787 1.58514 121.748 1.58302 121.706 1.58087C121.647 1.57872 121.587 1.57443 121.528 1.57229C120.632 1.53042 119.726 1.48641 118.803 1.44669C118.757 1.44454 118.711 1.44238 118.665 1.44023C118.581 1.43809 118.493 1.43378 118.407 1.42949C117.533 1.39192 116.649 1.35438 115.754 1.31788C115.697 1.31573 115.642 1.31357 115.586 1.31143C115.448 1.30499 115.303 1.30068 115.162 1.29639C114.388 1.26526 113.609 1.2352 112.819 1.20837C112.731 1.20407 112.647 1.20195 112.559 1.19765C112.53 1.19765 112.498 1.19549 112.469 1.19549C111.565 1.16436 110.651 1.13214 109.728 1.10531C109.671 1.10101 109.616 1.09889 109.56 1.09889C109.519 1.09674 109.477 1.0946 109.437 1.0946C108.548 1.06561 107.65 1.03984 106.742 1.01515C106.713 1.01515 106.685 1.01301 106.656 1.01086C106.597 1.01086 106.539 1.00872 106.482 1.00657C105.628 0.984029 104.768 0.960393 103.903 0.938925C103.896 0.936778 103.89 0.936795 103.885 0.936795C103.883 0.936795 103.879 0.936795 103.877 0.936795C103.107 0.917473 102.333 0.89923 101.553 0.882055C101.48 0.879908 101.406 0.877748 101.333 0.875601C101.115 0.873455 100.897 0.867021 100.679 0.862727C100.204 0.851993 99.7268 0.843397 99.2489 0.833736C99.104 0.831589 98.959 0.827284 98.8151 0.822991C98.6809 0.820844 98.5445 0.820864 98.4103 0.81657C97.9389 0.807982 97.4622 0.799384 96.9865 0.79187C96.9231 0.79187 96.863 0.789725 96.7996 0.787578C96.7535 0.787578 96.7073 0.785449 96.6611 0.785449C96.2671 0.779008 95.873 0.770415 95.4778 0.766121C95.2405 0.761827 95.0043 0.757541 94.7648 0.753247C94.5952 0.748953 94.4234 0.748925 94.2526 0.744631C94.0722 0.742484 93.8962 0.740357 93.7179 0.73821C93.4012 0.733917 93.0887 0.72963 92.7719 0.725336C92.642 0.723189 92.5099 0.72103 92.38 0.718883C92.1824 0.716736 91.9859 0.714576 91.7883 0.712429C91.6037 0.708135 91.4189 0.706008 91.2343 0.706008C91.085 0.701715 90.9325 0.701702 90.7833 0.699555C90.4687 0.697408 90.154 0.693104 89.8373 0.68881C89.7868 0.68881 89.7364 0.68881 89.6859 0.68881C89.4883 0.684516 89.2896 0.682389 89.0921 0.682389C88.7356 0.678095 88.3791 0.675938 88.0226 0.671644C87.5448 0.66735 87.0659 0.663064 86.5859 0.65877C86.5 0.65877 86.4141 0.658755 86.3282 0.656608C86.1875 0.656608 86.0426 0.656625 85.903 0.654479C85.714 0.652332 85.5272 0.652316 85.3414 0.652316C85.2319 0.65017 85.1255 0.650172 85.0182 0.648025C84.7121 0.648025 84.4083 0.648043 84.1012 0.645896C84.0969 0.645896 84.0926 0.645896 84.0862 0.645896C83.6685 0.641602 83.2497 0.641589 82.8298 0.639442C82.7106 0.637295 82.5904 0.637313 82.4712 0.637313C82.2468 0.637313 82.0202 0.637313 81.7958 0.637313C81.7206 0.637313 81.6423 0.635151 81.5649 0.635151C81.143 0.633004 80.7199 0.633006 80.2957 0.630859C80.2807 0.630859 80.2667 0.630859 80.2517 0.630859C79.8705 0.630859 79.4893 0.630859 79.1103 0.630859C78.7162 0.630859 78.3232 0.630859 77.9291 0.630859C77.535 0.630859 77.1442 0.633021 76.7523 0.633021C76.6964 0.633021 76.6406 0.633004 76.5858 0.635151C76.3539 0.635151 76.1252 0.635166 75.8954 0.637313C75.7902 0.637313 75.6849 0.637313 75.5797 0.637313C75.1899 0.637313 74.8001 0.639457 74.4125 0.641604C74.3943 0.641604 74.3782 0.641604 74.361 0.641604C74.1194 0.641604 73.881 0.643749 73.6415 0.645896C73.4676 0.648043 73.2958 0.648025 73.1218 0.648025C73.0241 0.648025 72.9264 0.648025 72.8287 0.648025C72.5173 0.650172 72.2059 0.652332 71.8956 0.654479C71.8322 0.654479 71.77 0.654461 71.7066 0.656608C71.4629 0.656608 71.2212 0.658768 70.9764 0.663061C70.5609 0.665208 70.1442 0.66735 69.7308 0.671644C69.4517 0.673791 69.1725 0.675951 68.8965 0.678098C68.7409 0.680245 68.5862 0.682389 68.4305 0.682389C68.3446 0.684536 68.2587 0.684534 68.1728 0.686681C67.943 0.688828 67.7132 0.690987 67.4835 0.693134C67.3063 0.695281 67.1313 0.699555 66.953 0.699555C66.3077 0.708142 65.6666 0.714594 65.0267 0.724255C64.871 0.726402 64.7142 0.728547 64.5596 0.728547H64.5585C64.5177 0.730693 64.4769 0.730676 64.4339 0.730676C63.6651 0.74141 62.9016 0.753225 62.1414 0.763959C61.9846 0.768253 61.8268 0.768248 61.6711 0.772542C61.3286 0.778982 60.9861 0.785429 60.6446 0.79187C60.6274 0.79187 60.6113 0.79187 60.5963 0.79187C60.5909 0.79187 60.5877 0.79187 60.5834 0.79187C60.5791 0.79187 60.578 0.79187 60.5758 0.79187C58.6516 0.825146 56.7554 0.864856 54.8891 0.911014C54.8666 0.911014 54.8419 0.911014 54.8193 0.911014C54.5563 0.917455 54.2953 0.926063 54.0323 0.932504C53.7048 0.938944 53.3784 0.947528 53.053 0.955042C53.0047 0.957189 52.9542 0.959349 52.9059 0.961495C52.7094 0.963642 52.5183 0.970058 52.3228 0.976499C51.9352 0.985087 51.5486 0.997992 51.1653 1.00765C51.1148 1.00765 51.0644 1.0098 51.0139 1.01194C50.856 1.01409 50.6993 1.02052 50.5436 1.02482C50.1377 1.0377 49.735 1.04735 49.3334 1.06023C49.3098 1.06023 49.284 1.06025 49.2615 1.06239C48.9404 1.07313 48.6237 1.08384 48.3048 1.09135C48.0857 1.09994 47.8656 1.10641 47.6476 1.11392C47.2525 1.12466 46.8563 1.13644 46.4633 1.15146C46.4139 1.15361 46.3634 1.15364 46.3118 1.15579C46.1776 1.16008 46.0413 1.16435 45.907 1.17079C45.6332 1.17938 45.3572 1.18798 45.0856 1.19978C44.6185 1.21481 44.1568 1.23093 43.6961 1.2481C43.3879 1.26098 43.0819 1.27063 42.7759 1.28352C42.7447 1.28566 42.7126 1.28566 42.6814 1.28781C42.5365 1.29425 42.3904 1.29853 42.2433 1.30497C41.7633 1.32644 41.2844 1.34255 40.8109 1.36188C40.3352 1.38334 39.8627 1.4016 39.3935 1.42307C38.8491 1.44776 38.3069 1.47137 37.771 1.49606C37.1697 1.52289 36.5759 1.5508 35.9864 1.57979C35.6997 1.59267 35.4205 1.60663 35.136 1.62165C34.8944 1.63454 34.6539 1.64418 34.4144 1.65707C34.3554 1.66136 34.2942 1.66352 34.2351 1.66781C34.1374 1.6721 34.0429 1.67855 33.9463 1.68285C33.4308 1.70968 32.9165 1.73757 32.4075 1.76226C32.2819 1.77084 32.1531 1.77946 32.0274 1.78483C31.9576 1.78697 31.89 1.79124 31.8212 1.79554C31.1308 1.83526 30.4511 1.87285 29.7789 1.91472C29.7392 1.91686 29.6984 1.91899 29.6597 1.92114C29.605 1.92328 29.5545 1.92759 29.5019 1.93188C28.6525 1.98233 27.8171 2.03492 26.9978 2.08752C26.9377 2.09181 26.8776 2.09612 26.8185 2.09826C26.7326 2.10685 26.6532 2.11115 26.5673 2.11759C25.6889 2.17663 24.8267 2.23458 23.9838 2.29577C23.9108 2.30221 23.8324 2.30649 23.7604 2.31293C23.6294 2.32367 23.5016 2.33226 23.3706 2.34192C23.1323 2.3591 22.8982 2.37736 22.663 2.39454C22.3989 2.416 22.1347 2.43641 21.8749 2.45573C21.6365 2.47505 21.4035 2.49544 21.1683 2.51476C20.959 2.53194 20.7442 2.54802 20.538 2.56305H20.5369C20.3243 2.58237 20.1171 2.60065 19.9056 2.61782C19.6694 2.63929 19.432 2.65966 19.199 2.67898C18.966 2.6983 18.7373 2.72085 18.5086 2.74018C18.2949 2.7595 18.0791 2.77988 17.8665 2.79921C17.7655 2.80779 17.6614 2.81641 17.5604 2.82607C17.4241 2.83895 17.2931 2.85288 17.1578 2.86361C16.9688 2.88293 16.7798 2.89906 16.5962 2.91838C16.3761 2.93985 16.1559 2.96022 15.9401 2.98384C15.7565 3.00316 15.5751 3.01929 15.3925 3.03861C15.2368 3.05578 15.0757 3.06972 14.9222 3.0869C14.8835 3.09119 14.8492 3.09548 14.8105 3.09977C13.3115 3.25649 11.9124 3.42075 10.626 3.58821C10.6078 3.59035 10.5895 3.59248 10.5712 3.59463C10.5358 3.60107 10.5036 3.60324 10.4671 3.60753C9.92914 3.68053 9.41051 3.75245 8.91228 3.82545C8.87577 3.82974 8.83389 3.83616 8.79631 3.84045C8.75336 3.84904 8.71683 3.8555 8.67388 3.86194C8.20357 3.93279 7.75152 4.00255 7.31879 4.0734C7.28765 4.07984 7.25115 4.08414 7.21894 4.08844C7.20713 4.09058 7.19744 4.09271 7.18778 4.09486C6.7733 4.16356 6.38245 4.23549 6.00341 4.30419C5.95616 4.31277 5.90354 4.3235 5.85522 4.33102C5.83267 4.33316 5.81229 4.33963 5.78759 4.34392C5.41821 4.41477 5.07244 4.48452 4.73957 4.55751C4.70951 4.56395 4.67409 4.5704 4.6451 4.57684C4.62255 4.58113 4.6043 4.58758 4.58176 4.59187C4.26284 4.66058 3.96218 4.7325 3.67871 4.8012C3.65401 4.80979 3.62394 4.81622 3.59924 4.82266C3.57025 4.8291 3.54556 4.83769 3.51657 4.8452C3.24275 4.9139 2.98396 4.98797 2.74558 5.05882C2.73162 5.06311 2.71444 5.06525 2.69941 5.0717C2.67364 5.08028 2.65325 5.08673 2.62748 5.0964C2.38266 5.17154 2.15501 5.24775 1.951 5.32289C1.951 5.32289 1.94991 5.32502 1.94883 5.32502C1.94668 5.32502 1.94669 5.32502 1.94454 5.32502C1.7373 5.40446 1.55477 5.48391 1.39048 5.56442C1.37545 5.57086 1.35505 5.57944 1.34002 5.58588C1.33357 5.58803 1.32928 5.59233 1.32176 5.59662C1.16822 5.67391 1.03935 5.75225 0.926604 5.82954C0.915866 5.83813 0.899781 5.8446 0.887969 5.85211C0.880453 5.85641 0.876159 5.86282 0.869717 5.86712C0.760192 5.9487 0.674267 6.02814 0.611989 6.11294C0.605546 6.11938 0.593739 6.12583 0.589443 6.13227C0.583001 6.14085 0.583008 6.15158 0.576565 6.1591C0.53254 6.22458 0.498174 6.28683 0.483141 6.35231C0.477772 6.377 0.473492 6.40064 0.471344 6.42533C0.471344 6.43392 0.477767 6.44248 0.477767 6.45C0.477767 6.52943 0.490672 6.60673 0.531475 6.68724L38.3498 78.3708C38.3584 78.3858 38.3788 78.3998 38.3906 78.417C38.4164 78.4503 38.4443 78.4857 38.4883 78.5243C38.4905 78.5265 38.4905 78.5286 38.4926 78.5308C38.5152 78.548 38.5463 78.5641 38.5699 78.5812C38.5721 78.5812 38.5753 78.5834 38.5785 78.5855C38.6268 78.6188 38.6762 78.651 38.7374 78.6843C38.7396 78.6843 38.7417 78.6843 38.7439 78.6864C38.7707 78.7015 38.8051 78.7133 38.8362 78.7283C38.9157 78.7637 39.0005 78.8013 39.0993 78.8399C39.1004 78.8399 39.1004 78.8399 39.1025 78.8399C39.1584 78.8625 39.2196 78.8818 39.2829 78.9033C39.2851 78.9054 39.2861 78.9054 39.2872 78.9054C39.3999 78.943 39.5245 78.9805 39.6577 79.0181C39.7017 79.031 39.7425 79.0428 39.7887 79.0557C39.793 79.0557 39.7994 79.0578 39.8037 79.0578C39.9604 79.0997 40.1301 79.1416 40.3094 79.1813C40.3363 79.1899 40.3642 79.1963 40.3932 79.2028C40.3953 79.2049 40.3975 79.2049 40.3996 79.2049C40.5425 79.236 40.6949 79.2682 40.8506 79.2994C40.9301 79.3166 41.0074 79.3305 41.0933 79.3477C41.1073 79.3477 41.1191 79.352 41.1341 79.3541C41.2791 79.381 41.4358 79.411 41.5915 79.4357C41.6151 79.44 41.6356 79.4443 41.6592 79.4464C41.7344 79.4593 41.8041 79.4733 41.8825 79.4883C41.8943 79.4883 41.9062 79.4883 41.918 79.4926C42.1381 79.528 42.3711 79.5634 42.6084 79.5978C42.6545 79.6064 42.6943 79.6128 42.7415 79.6193C42.7512 79.6214 42.7619 79.6236 42.7705 79.6236C43.5232 79.733 44.3662 79.8372 45.2853 79.9381C45.295 79.9381 45.3025 79.9402 45.3111 79.9424C45.324 79.9424 45.3379 79.9445 45.3529 79.9467C45.6987 79.9842 46.0552 80.0197 46.4235 80.0583C46.4461 80.0583 46.4686 80.0626 46.4922 80.0647C46.5201 80.069 46.5513 80.069 46.5792 80.0733C46.9357 80.1066 47.3008 80.142 47.6766 80.1764C47.7002 80.1785 47.726 80.1807 47.7507 80.1828C47.7872 80.185 47.8258 80.1893 47.8624 80.1914C48.1544 80.2161 48.4486 80.2418 48.7504 80.2687C48.8599 80.2751 48.9641 80.288 49.0757 80.2955C49.1702 80.3041 49.268 80.3105 49.3657 80.318C50.5049 80.4082 51.7183 80.492 52.9982 80.5692C53.1185 80.5778 53.2387 80.5843 53.3612 80.5918C53.4342 80.5961 53.504 80.6004 53.577 80.6047C53.6425 80.609 53.708 80.6111 53.7746 80.6154C54.916 80.683 56.1036 80.7453 57.3395 80.8043C57.3588 80.8043 57.3771 80.8043 57.3964 80.8065C57.4963 80.8108 57.5983 80.8151 57.6971 80.8194C57.9075 80.8301 58.1223 80.8365 58.337 80.8484C58.3596 80.8484 58.38 80.8505 58.4025 80.8505C58.6839 80.8634 58.9641 80.873 59.2497 80.8881C59.2755 80.8881 59.3034 80.8881 59.3303 80.8902C59.5311 80.8967 59.734 80.9074 59.9369 80.9128C60.1861 80.9235 60.432 80.9342 60.6843 80.9417C60.7444 80.9439 60.8057 80.946 60.8669 80.9482C61.7398 80.9793 62.6332 81.0094 63.5384 81.0384C63.5513 81.0384 63.562 81.0384 63.5738 81.0384C63.6469 81.0405 63.7177 81.0448 63.7918 81.0469C63.8251 81.0469 63.8605 81.0491 63.897 81.0491C64.7936 81.0738 65.7074 81.0995 66.6341 81.1199C66.6738 81.1221 66.7136 81.1242 66.7533 81.1242C66.7823 81.1242 66.8102 81.1242 66.8392 81.1264C66.9079 81.1285 66.9788 81.1307 67.0486 81.1307C67.9538 81.15 68.8665 81.1704 69.7985 81.1854C69.8382 81.1854 69.878 81.1876 69.9188 81.1876C69.9284 81.1876 69.9392 81.1876 69.9488 81.1897C70.8626 81.2026 71.7925 81.2165 72.7278 81.2251C72.7535 81.2273 72.7782 81.2273 72.8051 81.2273C72.9124 81.2294 73.0155 81.2294 73.124 81.2316C73.1991 81.2316 73.2775 81.2316 73.3548 81.2316C74.3534 81.2423 75.3617 81.253 76.3808 81.2541C76.3829 81.2541 76.385 81.2541 76.385 81.2541C76.4484 81.2541 76.5064 81.2563 76.5697 81.2563C77.1002 81.2584 77.6349 81.2606 78.1707 81.2606C78.8848 81.2606 79.5935 81.2605 80.2989 81.2584C80.3408 81.2584 80.3848 81.2584 80.4246 81.2584C80.4836 81.2584 80.5416 81.2584 80.5985 81.2584C82.0266 81.2541 83.4365 81.2434 84.8249 81.2294C84.8292 81.2294 84.8314 81.2294 84.8356 81.2294C84.8689 81.2294 84.9044 81.2294 84.9387 81.2294C84.9957 81.2273 85.0483 81.2251 85.1041 81.2251C85.1567 81.2251 85.205 81.2251 85.2576 81.2251C87.6543 81.1961 89.9844 81.1521 92.2221 81.0953C92.2329 81.0953 92.2436 81.0953 92.2511 81.0953C92.3875 81.091 92.5196 81.0866 92.6538 81.0823C92.7107 81.0823 92.7665 81.0802 92.8234 81.0781C93.3668 81.063 93.908 81.0491 94.4406 81.0319C94.5157 81.0276 94.5919 81.0276 94.6693 81.0233C94.7681 81.0212 94.869 81.0169 94.9667 81.0126C95.4048 80.9997 95.8408 80.9857 96.2713 80.9707C96.3905 80.9664 96.5108 80.9621 96.63 80.9578C96.7223 80.9535 96.8168 80.9493 96.9092 80.9471C97.285 80.9321 97.6576 80.9181 98.027 80.9031C98.1945 80.8967 98.3609 80.8902 98.5263 80.8838C98.6014 80.8795 98.6777 80.8773 98.755 80.873C99.0921 80.8602 99.4282 80.8462 99.7622 80.8312C99.7794 80.8312 99.7976 80.829 99.8169 80.829C99.934 80.8226 100.059 80.8183 100.176 80.8119C100.249 80.8076 100.318 80.8054 100.389 80.8011C100.433 80.799 100.477 80.7968 100.521 80.7947C100.775 80.7818 101.029 80.7721 101.281 80.7571C101.287 80.7571 101.296 80.7571 101.302 80.7571C101.531 80.7464 101.757 80.7346 101.982 80.7217C102.087 80.7195 102.187 80.7131 102.29 80.7067C102.464 80.6959 102.638 80.6895 102.81 80.6798C102.832 80.6777 102.858 80.6777 102.88 80.6755C103.086 80.6626 103.292 80.653 103.495 80.6422C103.545 80.6379 103.596 80.6358 103.644 80.6336C103.934 80.6165 104.22 80.6004 104.506 80.5811C104.662 80.5725 104.819 80.5617 104.974 80.5521C105.005 80.5499 105.038 80.5499 105.071 80.5478C105.346 80.5306 105.619 80.5124 105.887 80.4952C105.981 80.4887 106.08 80.4823 106.17 80.4758C106.243 80.4694 106.309 80.4651 106.38 80.4608C106.448 80.4566 106.508 80.4522 106.573 80.4479C106.879 80.4254 107.181 80.404 107.479 80.3825C107.504 80.3782 107.53 80.376 107.552 80.376C107.685 80.3674 107.821 80.3567 107.951 80.347C107.993 80.3427 108.03 80.3406 108.072 80.3363C108.42 80.3116 108.76 80.2816 109.093 80.2547C109.205 80.2461 109.322 80.2354 109.429 80.2301C109.434 80.2301 109.436 80.2279 109.44 80.2279C109.499 80.2236 109.555 80.2172 109.61 80.2107C110.637 80.1249 111.592 80.0325 112.475 79.9338C112.598 79.923 112.724 79.9069 112.844 79.8962C112.907 79.8876 112.967 79.879 113.029 79.8737C113.154 79.8586 113.28 79.8447 113.404 79.8296C113.503 79.8168 113.604 79.8071 113.698 79.7942C113.74 79.7878 113.779 79.7835 113.821 79.7792C113.887 79.7706 113.947 79.7599 114.01 79.7545C114.184 79.732 114.352 79.7083 114.52 79.6858C114.581 79.6772 114.644 79.6708 114.703 79.6633C114.786 79.6504 114.87 79.6407 114.952 79.6279C115.027 79.615 115.107 79.6053 115.178 79.5967C115.205 79.5924 115.233 79.5881 115.256 79.586C115.35 79.5688 115.436 79.557 115.524 79.542C115.623 79.5269 115.72 79.5108 115.814 79.4958C115.82 79.4937 115.829 79.4937 115.836 79.4937C115.959 79.4722 116.075 79.4518 116.192 79.4325C116.234 79.4239 116.278 79.4153 116.318 79.4099C116.386 79.3971 116.458 79.3874 116.523 79.3745C116.533 79.3723 116.547 79.3702 116.556 79.3681C116.587 79.3638 116.613 79.3573 116.642 79.3509C116.739 79.3316 116.829 79.3155 116.921 79.2961C116.996 79.279 117.08 79.265 117.154 79.25C117.196 79.2414 117.234 79.2307 117.275 79.221C117.348 79.206 117.423 79.192 117.493 79.1727C117.542 79.162 117.592 79.1512 117.636 79.1437C117.665 79.1351 117.689 79.1287 117.72 79.1212C117.764 79.1104 117.806 79.0997 117.85 79.0858C117.951 79.0632 118.045 79.0353 118.138 79.0085C118.16 79.0042 118.186 78.9956 118.209 78.9892C118.268 78.972 118.323 78.9559 118.378 78.9387C118.385 78.9366 118.391 78.9322 118.395 78.9322C118.422 78.9237 118.454 78.9129 118.481 78.9054C118.49 78.9033 118.498 78.9011 118.504 78.8968C118.546 78.8839 118.577 78.87 118.616 78.855C118.675 78.8335 118.733 78.8131 118.785 78.7916C118.846 78.7648 118.898 78.7412 118.951 78.7165C118.953 78.7143 118.953 78.7143 118.955 78.7143C119.001 78.6918 119.047 78.6703 119.087 78.6467C119.104 78.6381 119.124 78.6274 119.14 78.6199C119.142 78.6199 119.144 78.6177 119.146 78.6156C119.161 78.607 119.169 78.5984 119.181 78.5909C119.196 78.5802 119.213 78.5684 119.228 78.5576C119.249 78.5426 119.272 78.5265 119.291 78.5115C119.299 78.5029 119.302 78.4964 119.31 78.4889C119.335 78.4675 119.354 78.4428 119.371 78.4202C119.384 78.403 119.405 78.3891 119.413 78.3719L157.231 6.68615C157.253 6.64429 157.27 6.60244 157.279 6.55843C157.292 6.49939 157.292 6.44571 157.283 6.38667C157.29 6.36842 157.281 6.35126 157.277 6.33301Z" fill="#020896"/>
<path d="M157.288 6.5598C156.533 9.7694 120.819 12.3296 77.5213 12.2727C34.2246 12.2158 -0.261808 9.56759 0.493055 6.35584C1.25007 3.14625 36.9617 0.588207 80.2595 0.642952C123.556 0.699845 158.045 3.3502 157.288 6.5598Z" fill="#022296"/>
<path d="M157.288 6.5598C156.533 9.7694 120.819 12.3296 77.5213 12.2727C34.2246 12.2158 -0.261808 9.56759 0.493055 6.35584C1.25007 3.14625 36.9617 0.588207 80.2595 0.642952C123.556 0.699845 158.045 3.3502 157.288 6.5598Z" fill="#021760" fill-opacity="0.7"/>
</svg>