<svg width="408" height="97" viewBox="0 0 408 97" fill="none" xmlns="http://www.w3.org/2000/svg">
<path d="M407.516 15.3159C407.514 15.2912 407.512 15.2654 407.51 15.2397C407.495 15.127 407.466 15.0143 407.418 14.9026C407.409 14.8844 407.396 14.8661 407.389 14.8479C407.34 14.7459 407.277 14.6439 407.2 14.5419C407.185 14.5215 407.171 14.5001 407.153 14.4797C407.065 14.368 406.956 14.2575 406.835 14.148C406.81 14.1233 406.778 14.0997 406.751 14.075C406.627 13.9687 406.491 13.8625 406.337 13.7573C406.324 13.7487 406.315 13.7412 406.304 13.7336C406.139 13.622 405.952 13.5104 405.754 13.3998C405.71 13.3751 405.664 13.3504 405.618 13.3247C405.415 13.2152 405.2 13.1068 404.966 12.9973C404.935 12.9833 404.901 12.9683 404.869 12.9532C404.651 12.8545 404.416 12.7557 404.171 12.657C404.119 12.6344 404.066 12.613 404.01 12.5904C403.74 12.4841 403.452 12.3768 403.152 12.2716C403.089 12.2491 403.023 12.2276 402.959 12.2051C402.671 12.1063 402.372 12.0075 402.059 11.9088C402.02 11.897 401.98 11.8841 401.942 11.8712C401.599 11.7649 401.238 11.6597 400.862 11.5535C400.778 11.5299 400.692 11.5062 400.607 11.4826C400.226 11.3764 399.835 11.2722 399.423 11.1681C399.384 11.1584 399.346 11.1488 399.306 11.1391C398.921 11.0414 398.518 10.9438 398.105 10.8472C398.008 10.8246 397.914 10.8021 397.817 10.7795C397.377 10.6775 396.921 10.5766 396.452 10.4757C396.362 10.4564 396.267 10.436 396.175 10.4167C395.743 10.3244 395.299 10.2331 394.844 10.143C394.762 10.1269 394.685 10.1108 394.604 10.0947C394.096 9.99483 393.574 9.895 393.04 9.79625C392.918 9.7737 392.793 9.75117 392.67 9.72862C392.118 9.62772 391.559 9.52788 390.98 9.42805C390.965 9.42591 390.949 9.42376 390.936 9.42162C390.368 9.32393 389.781 9.22624 389.185 9.13071C389.051 9.10817 388.914 9.0867 388.774 9.06309C388.176 8.96755 387.566 8.87201 386.941 8.77648C386.828 8.7593 386.712 8.7432 386.601 8.72602C386.035 8.64015 385.457 8.55642 384.869 8.47161C384.742 8.45337 384.616 8.43512 384.488 8.41687C384.427 8.40721 384.367 8.39862 384.303 8.39004C384.02 8.35032 383.72 8.3106 383.433 8.26981C382.986 8.20863 382.539 8.14636 382.08 8.08517C381.698 8.03472 381.306 7.9832 380.916 7.93382C380.475 7.87585 380.042 7.81897 379.593 7.76207C379.194 7.71269 378.788 7.66224 378.385 7.61286C377.921 7.55597 377.465 7.50015 376.994 7.44433C376.592 7.39602 376.18 7.3488 375.771 7.30049C375.276 7.24253 374.781 7.18456 374.275 7.12766C374.152 7.11371 374.036 7.09975 373.913 7.0858C373.451 7.03427 372.977 6.98275 372.505 6.93015C372.289 6.90654 372.08 6.88292 371.863 6.8593C371.003 6.76699 370.131 6.67467 369.245 6.58343C369.089 6.56733 368.93 6.55229 368.773 6.53619C368.054 6.4632 367.33 6.38914 366.597 6.31722C366.269 6.28501 365.937 6.2528 365.605 6.22167C365.277 6.18947 364.955 6.15727 364.623 6.12507C364.47 6.11111 364.307 6.09716 364.153 6.08213C362.991 5.97156 361.814 5.86422 360.615 5.7558C360.502 5.74614 360.395 5.73541 360.281 5.72575C358.972 5.60981 357.634 5.49603 356.279 5.38224C356.147 5.37151 356.026 5.36078 355.894 5.34897C355.652 5.32965 355.401 5.31032 355.157 5.28993C354.266 5.21693 353.366 5.14394 352.453 5.07202C352.033 5.03874 351.615 5.00546 351.19 4.97218C350.187 4.89382 349.175 4.81654 348.152 4.7414C347.912 4.72315 347.683 4.70597 347.445 4.68772C347.374 4.68235 347.3 4.67699 347.229 4.67269C345.964 4.5793 344.69 4.48807 343.394 4.39682C343.228 4.38501 343.057 4.37428 342.888 4.36355C341.741 4.28411 340.581 4.20468 339.407 4.12739C339.317 4.12202 339.226 4.11451 339.136 4.10807C338.758 4.08338 338.368 4.05976 337.992 4.03507C337.208 3.98462 336.421 3.93309 335.626 3.88264C335.104 3.84936 334.572 3.81716 334.044 3.78496C333.252 3.73558 332.458 3.68727 331.655 3.63897C331.49 3.62931 331.33 3.61857 331.165 3.60891C330.81 3.58744 330.447 3.56705 330.093 3.54665C329.329 3.50157 328.564 3.45756 327.792 3.41247C327.233 3.38134 326.672 3.34914 326.106 3.31801C325.322 3.27508 324.535 3.23106 323.743 3.18812C323.54 3.17632 323.338 3.16558 323.133 3.15378C322.793 3.13553 322.442 3.11835 322.101 3.09903C321.344 3.05931 320.585 3.01959 319.819 2.97988C319.192 2.94767 318.563 2.91654 317.931 2.88433C317.252 2.85106 316.574 2.81671 315.891 2.78344C315.623 2.77056 315.361 2.7566 315.092 2.74372C314.622 2.72117 314.148 2.69864 313.677 2.67717C313.059 2.64818 312.44 2.61813 311.817 2.58914C311.146 2.55801 310.469 2.52689 309.793 2.4979C309.093 2.4657 308.396 2.43349 307.69 2.40236C307.526 2.39592 307.364 2.38734 307.201 2.3809C306.681 2.35835 306.152 2.33581 305.63 2.31434C304.959 2.28535 304.288 2.25637 303.61 2.22739C302.895 2.19733 302.174 2.16835 301.45 2.13936C300.768 2.11145 300.085 2.08355 299.397 2.05671C299.334 2.05457 299.269 2.05134 299.204 2.04919C298.398 2.01699 297.584 1.98694 296.775 1.95688C296.028 1.9279 295.281 1.89999 294.531 1.87208C293.472 1.83237 292.412 1.79372 291.345 1.75615C291.305 1.75508 291.265 1.754 291.225 1.75185C288.937 1.67134 286.62 1.59513 284.284 1.51999C284.037 1.5114 283.797 1.50389 283.549 1.4953C283.36 1.48886 283.166 1.48349 282.975 1.47812C280.781 1.40942 278.568 1.34395 276.337 1.27954C276.225 1.27632 276.116 1.2731 276.005 1.26988C275.78 1.26451 275.554 1.25914 275.329 1.2527C273.395 1.19903 271.445 1.14644 269.485 1.09706C269.258 1.09169 269.04 1.08524 268.816 1.07987C268.711 1.07773 268.602 1.07451 268.495 1.07236C266.488 1.02191 264.47 0.974678 262.435 0.929593C262.354 0.92852 262.277 0.925302 262.194 0.924229C261.954 0.918861 261.712 0.913494 261.472 0.909201C259.837 0.872703 258.19 0.839425 256.537 0.807222C256.244 0.800781 255.952 0.794343 255.657 0.787902C255.315 0.781462 254.966 0.776097 254.623 0.768583C253.624 0.749261 252.622 0.73101 251.619 0.712762C251.217 0.706321 250.823 0.697729 250.42 0.691288C250.141 0.685921 249.858 0.681627 249.579 0.677333C248.556 0.660158 247.526 0.642986 246.494 0.626884C246.039 0.620443 245.586 0.61186 245.131 0.604346C244.879 0.601126 244.627 0.597903 244.376 0.593609C243.333 0.577508 242.287 0.563553 241.238 0.548525C240.809 0.543158 240.382 0.536719 239.951 0.530278C239.724 0.527058 239.493 0.524907 239.267 0.521687C238.591 0.513099 237.916 0.503436 237.24 0.496995C236.813 0.491628 236.387 0.485188 235.957 0.480894C235.502 0.475527 235.042 0.47016 234.584 0.465866C233.902 0.458352 233.22 0.450842 232.535 0.443328C232.335 0.441181 232.139 0.439029 231.939 0.436882C231.171 0.428295 230.402 0.421858 229.631 0.414344C229.079 0.408977 228.53 0.40361 227.978 0.398243C227.951 0.398243 227.921 0.398243 227.894 0.398243C226.563 0.385362 225.229 0.375702 223.889 0.366041C223.748 0.364968 223.608 0.364961 223.467 0.362814C223.098 0.360668 222.725 0.358524 222.354 0.356377C221.788 0.353157 221.221 0.347788 220.651 0.344568C220.048 0.341347 219.443 0.338124 218.838 0.334904C218.389 0.332757 217.943 0.32954 217.492 0.328467C217.46 0.328467 217.428 0.328467 217.397 0.328467C216.31 0.323099 215.223 0.317732 214.132 0.314511C213.878 0.313438 213.624 0.313439 213.373 0.312366C212.888 0.311292 212.406 0.309148 211.919 0.308074C211.562 0.308074 211.208 0.306994 210.849 0.304847C209.853 0.302701 208.853 0.300557 207.852 0.299483C207.716 0.299483 207.58 0.29841 207.441 0.29841C206.449 0.297337 205.459 0.296265 204.471 0.296265C203.959 0.296265 203.45 0.296265 202.935 0.296265C202.537 0.296265 202.137 0.296265 201.738 0.296265C201.629 0.296265 201.518 0.296265 201.406 0.296265C200.385 0.296265 199.368 0.298409 198.35 0.300556C198.082 0.300556 197.814 0.301629 197.543 0.301629C197.116 0.302702 196.685 0.303774 196.256 0.304847C195.941 0.305921 195.622 0.305928 195.305 0.307001C194.295 0.310222 193.283 0.313436 192.273 0.31773C192.222 0.31773 192.172 0.317729 192.121 0.318803C191.717 0.319876 191.312 0.322028 190.909 0.324175C190.247 0.327396 189.584 0.329538 188.923 0.332758C188.426 0.335978 187.928 0.339202 187.431 0.341349C186.974 0.343496 186.519 0.346712 186.062 0.349932C185.789 0.351005 185.517 0.353158 185.246 0.354232C184.021 0.362819 182.803 0.371408 181.587 0.381069C181.574 0.381069 181.562 0.381069 181.549 0.381069C181.379 0.382143 181.21 0.383214 181.039 0.384288C180.007 0.392875 178.973 0.402538 177.946 0.411126C177.677 0.413273 177.409 0.417562 177.14 0.419708C176.599 0.425076 176.058 0.430442 175.517 0.436882C175.105 0.440103 174.69 0.444398 174.278 0.448692C173.996 0.451912 173.718 0.456209 173.435 0.458356C171.316 0.481972 169.206 0.507732 167.109 0.536715C166.968 0.537789 166.823 0.53886 166.684 0.541007C166.644 0.541007 166.606 0.542079 166.567 0.543152C164.32 0.574282 162.089 0.608634 159.869 0.645131C159.642 0.648351 159.411 0.651574 159.185 0.654795C158.423 0.667676 157.664 0.68056 156.907 0.694515C154.447 0.738526 152.007 0.784681 149.584 0.835133C149.118 0.84372 148.655 0.853382 148.189 0.863043C145.947 0.910275 143.718 0.959653 141.507 1.01225C141.469 1.01225 141.432 1.0144 141.394 1.0144C141.046 1.02299 140.702 1.03265 140.354 1.04016C139.159 1.06915 137.962 1.0992 136.776 1.12926C136.659 1.13141 136.541 1.13462 136.424 1.13677C135.931 1.14965 135.447 1.16361 134.956 1.17756C133.935 1.20547 132.916 1.23124 131.902 1.26129C131.772 1.26344 131.64 1.26773 131.51 1.27202C130.995 1.28598 130.487 1.30208 129.975 1.31711C129.112 1.3418 128.251 1.36648 127.395 1.39225C127.248 1.39654 127.102 1.40084 126.957 1.40513C125.906 1.43733 124.865 1.47061 123.824 1.50282C123.564 1.5114 123.302 1.51999 123.041 1.52858C121.919 1.56401 120.801 1.6005 119.69 1.63807C119.527 1.64344 119.363 1.64988 119.199 1.65524C118.74 1.67135 118.287 1.68637 117.83 1.70247C117.258 1.72287 116.683 1.74219 116.114 1.76259C115.802 1.77332 115.494 1.78513 115.181 1.79694C114.627 1.81734 114.078 1.83666 113.529 1.85706C113.187 1.86994 112.845 1.88174 112.505 1.89462C112.017 1.91394 111.537 1.93219 111.052 1.95044C110.495 1.97191 109.94 1.99231 109.386 2.01377C109.17 2.02236 108.95 2.03095 108.734 2.03847C108.065 2.06423 107.403 2.09214 106.738 2.11897C106.268 2.13829 105.796 2.15654 105.33 2.17479C105.223 2.17909 105.117 2.18338 105.009 2.18767C103.921 2.23276 102.84 2.27892 101.766 2.32507C98.672 2.45818 95.6311 2.59773 92.6428 2.74264C92.5901 2.74479 92.5354 2.74801 92.4838 2.74908C92.2218 2.76304 91.9663 2.77592 91.7032 2.7888C90.5618 2.84462 89.4257 2.90044 88.2993 2.95948C88.178 2.96484 88.0534 2.97129 87.9342 2.97666C87.7141 2.98954 87.5026 3.00027 87.2825 3.01208C85.8479 3.08615 84.4284 3.16236 83.0228 3.23965C82.7522 3.25467 82.473 3.26756 82.2024 3.28258C81.9587 3.29654 81.7182 3.3105 81.4723 3.32445C81.0632 3.34699 80.6562 3.37061 80.2471 3.39315C79.4396 3.43931 78.6386 3.48439 77.8418 3.53163C77.4639 3.55417 77.0891 3.57671 76.7133 3.59925C76.4953 3.61213 76.2709 3.62394 76.0508 3.6379C75.5429 3.66795 75.0457 3.70015 74.5411 3.73021C73.9816 3.76456 73.419 3.79784 72.8627 3.83326C72.2045 3.87513 71.5517 3.91591 70.8999 3.95778C70.319 3.99535 69.7359 4.03185 69.1614 4.06942C69.0004 4.08016 68.8339 4.08982 68.6729 4.10055C68.297 4.12417 67.9341 4.14993 67.5637 4.17569C66.7938 4.22614 66.0239 4.27874 65.2647 4.33134C64.7472 4.36676 64.2349 4.40326 63.7206 4.43976C62.9529 4.49343 62.1894 4.54818 61.4303 4.60292C61.1972 4.6201 60.9589 4.6362 60.728 4.65337C60.51 4.66948 60.3006 4.68557 60.0837 4.70275C59.1506 4.77145 58.2272 4.84122 57.3134 4.911C56.9065 4.94213 56.4995 4.97326 56.0968 5.00439C54.9114 5.09778 53.742 5.19117 52.5877 5.28564C52.5126 5.29208 52.432 5.29852 52.3547 5.30496C52.3418 5.30496 52.3279 5.3071 52.315 5.30818C51.092 5.40908 49.8926 5.51106 48.7061 5.61518C48.3388 5.64739 47.9802 5.68066 47.6151 5.71179C46.7872 5.78586 45.9647 5.85993 45.1529 5.93399C44.979 5.9501 44.7986 5.96512 44.6268 5.98122C44.3809 6.00484 44.1468 6.02739 43.903 6.04993C43.2276 6.11433 42.5587 6.17767 41.8962 6.24208C41.4516 6.28501 41.0092 6.32902 40.5711 6.37303C39.9107 6.43851 39.26 6.504 38.6147 6.57055C38.3355 6.59953 38.0488 6.62636 37.7718 6.65642C37.659 6.66823 37.5474 6.68004 37.4325 6.69185C36.8075 6.7584 36.1977 6.82495 35.5845 6.89043C35.2173 6.93015 34.8447 6.96987 34.4839 7.01066C33.7666 7.09009 33.0687 7.16953 32.3718 7.25111C32.1517 7.2758 31.9251 7.30049 31.7093 7.32625C31.6878 7.3284 31.6695 7.33055 31.6459 7.33377C30.9974 7.40998 30.3649 7.48727 29.7335 7.56455C29.4715 7.59568 29.2031 7.62789 28.9432 7.66009C28.1207 7.76314 27.3132 7.86512 26.5208 7.96925C26.5058 7.97032 26.4897 7.97354 26.4746 7.97569C25.9646 8.04224 25.4717 8.10986 24.9756 8.17749C24.7029 8.21506 24.4194 8.25156 24.151 8.28913C23.788 8.33851 23.4444 8.39003 23.0901 8.44049C22.6831 8.49953 22.2654 8.55642 21.8671 8.61546C21.8671 8.61546 21.8671 8.61546 21.8649 8.61546C21.1455 8.72173 20.4411 8.828 19.7528 8.93641C19.5455 8.96969 19.3458 9.0019 19.1386 9.03518C18.679 9.10924 18.2141 9.18224 17.7695 9.25631C17.748 9.25953 17.7298 9.26382 17.7062 9.26704C17.5591 9.29173 17.4184 9.31642 17.2724 9.34218C16.7774 9.42591 16.2866 9.50964 15.8131 9.59444C15.6112 9.63094 15.419 9.66636 15.2193 9.70286C14.8875 9.76297 14.5503 9.82308 14.2293 9.88427C14.1584 9.89822 14.0908 9.91111 14.0199 9.92506C13.8019 9.96693 13.5947 10.0088 13.3799 10.0496C13.032 10.1183 12.6841 10.187 12.348 10.2557C12.1258 10.3008 11.9121 10.3459 11.6963 10.392C11.4944 10.4349 11.2828 10.4779 11.0885 10.5208C10.9757 10.5444 10.8705 10.5702 10.7589 10.5949C10.5516 10.64 10.3497 10.6861 10.1489 10.7323C9.85903 10.7978 9.57662 10.8643 9.30173 10.9309C9.10201 10.9781 8.90552 11.0264 8.71224 11.0758C8.60056 11.1026 8.48138 11.1305 8.37508 11.1584C8.21938 11.1971 8.07764 11.2368 7.92624 11.2765C7.74799 11.3227 7.5676 11.3699 7.39579 11.4172C7.13809 11.4869 6.8922 11.5578 6.64953 11.6275C6.49383 11.6726 6.33491 11.7177 6.18136 11.7628C6.13518 11.7768 6.08472 11.7907 6.03855 11.8047C5.82487 11.8691 5.62943 11.9345 5.42864 12C5.31589 12.0365 5.19563 12.0719 5.08718 12.1106C4.73928 12.2265 4.40747 12.3425 4.09715 12.4595C4.095 12.4595 4.09286 12.4605 4.09071 12.4616C4.09071 12.4616 4.08857 12.4616 4.08642 12.4616C3.77395 12.5797 3.48189 12.6988 3.20808 12.818C3.12218 12.8534 3.0513 12.891 2.96862 12.9275C2.81292 12.9973 2.65186 13.0681 2.50905 13.139C2.48435 13.1518 2.46287 13.1636 2.43817 13.1765C2.34583 13.2227 2.26638 13.2699 2.18047 13.315C2.04196 13.3891 1.90559 13.4642 1.7821 13.5393C1.69835 13.5887 1.62534 13.6403 1.5491 13.6896C1.47823 13.7358 1.39769 13.7819 1.33327 13.8292C1.29998 13.8528 1.27635 13.8775 1.24522 13.9011C1.17005 13.958 1.1024 14.0149 1.03582 14.0718C0.956362 14.1394 0.880123 14.207 0.813549 14.2757C0.756639 14.3337 0.706184 14.3906 0.657864 14.4486C0.626724 14.4851 0.584836 14.5226 0.559065 14.5591C0.530073 14.5988 0.510753 14.6396 0.486056 14.6793C0.46458 14.7126 0.444171 14.747 0.424843 14.7802C0.361491 14.8962 0.309954 15.0132 0.282036 15.1291C0.267003 15.1914 0.257346 15.2526 0.255198 15.3138C0.250903 15.3696 0.263781 15.4265 0.268077 15.4823C0.270224 15.5231 0.270219 15.5628 0.276662 15.6025C0.301359 15.7345 0.340016 15.8655 0.408737 15.9965C1.50721 18.0789 2.65079 20.2473 3.81691 22.4575L5.30408 25.2742C6.1427 26.8672 6.99635 28.4849 7.86073 30.123L11.1744 36.4016C12.4135 38.7535 13.6699 41.1322 14.9305 43.5228L18.4857 50.2608C19.6723 52.5118 20.8577 54.7596 22.0389 56.9999L31.6674 75.2485C32.1667 76.1974 32.6617 77.1345 33.1524 78.0652L36.5606 84.5262C36.6196 84.6357 36.6991 84.7441 36.7957 84.8536C36.8269 84.8891 36.8688 84.9245 36.9031 84.9599C36.9783 85.034 37.0545 85.107 37.1447 85.18C37.1973 85.2229 37.2575 85.2637 37.3144 85.3045C37.4046 85.3721 37.5012 85.4387 37.6054 85.5052C37.6762 85.5492 37.7503 85.5922 37.8255 85.6351C37.9382 85.7006 38.0585 85.765 38.1841 85.8294C38.2679 85.8723 38.3538 85.9153 38.4461 85.9582C38.5825 86.0237 38.7296 86.0881 38.8778 86.1536C38.9744 86.1954 39.0689 86.2362 39.1709 86.2781C39.3406 86.3468 39.5253 86.4155 39.7121 86.4853C39.8088 86.5218 39.9011 86.5561 40.002 86.5926C40.2554 86.6817 40.5217 86.7719 40.8009 86.8599C40.8492 86.8749 40.889 86.89 40.9373 86.905C41.2691 87.008 41.6191 87.1111 41.9842 87.2141C42.0894 87.2431 42.2043 87.2732 42.3117 87.3022C42.5802 87.3741 42.8529 87.4481 43.1396 87.5211C43.2845 87.5587 43.4392 87.5952 43.5927 87.6328C43.8547 87.6983 44.1189 87.7616 44.3938 87.8249C44.5656 87.8646 44.7438 87.9044 44.9199 87.9441C45.1927 88.0053 45.4697 88.0654 45.7542 88.1255C45.9432 88.1663 46.1354 88.206 46.3287 88.2457C46.624 88.3069 46.9268 88.367 47.2328 88.4261C47.4283 88.4647 47.6226 88.5033 47.8245 88.5409C48.1563 88.6053 48.4999 88.6665 48.8456 88.7298C49.0367 88.7642 49.2215 88.7985 49.4137 88.8329C49.8314 88.9059 50.2566 88.9789 50.6904 89.0519C50.8289 89.0755 50.9588 89.098 51.0973 89.1206C51.6761 89.215 52.2699 89.3106 52.8776 89.405C53.0183 89.4265 53.1654 89.448 53.305 89.4694C53.7786 89.5414 54.2596 89.6122 54.7525 89.6841C54.979 89.7174 55.2142 89.7496 55.4451 89.7829C55.8649 89.8419 56.288 89.901 56.7218 89.9611C56.9838 89.9965 57.25 90.0319 57.5142 90.0674C57.934 90.1232 58.355 90.179 58.7856 90.2337C59.0669 90.2702 59.3493 90.3057 59.6371 90.3422C60.073 90.3969 60.5154 90.4506 60.9621 90.5053C61.2499 90.5397 61.5344 90.574 61.8243 90.6084C62.2979 90.6653 62.7811 90.72 63.2654 90.7769C63.5424 90.808 63.8151 90.8391 64.0954 90.8703C64.6537 90.9336 65.2239 90.9948 65.7962 91.0571C66.0121 91.0796 66.2236 91.1043 66.4426 91.1268C67.2437 91.2116 68.0576 91.2964 68.8855 91.3802C69.0025 91.392 69.1249 91.4027 69.242 91.4156C69.9485 91.4865 70.6658 91.5562 71.3917 91.626C71.687 91.6539 71.9876 91.6818 72.285 91.7097C72.8531 91.7634 73.4243 91.8171 74.0031 91.8686C74.3349 91.8997 74.6721 91.9298 75.0082 91.9588C75.5665 92.0092 76.1281 92.0586 76.6961 92.108C77.0548 92.1391 77.4155 92.1702 77.7785 92.2003C78.3401 92.2475 78.9092 92.2947 79.4815 92.342C79.8466 92.372 80.2117 92.4021 80.58 92.4311C81.1802 92.4794 81.7837 92.5277 82.3936 92.5749C82.7436 92.6028 83.0915 92.6297 83.4448 92.6576C84.1374 92.7113 84.8375 92.7638 85.5419 92.8143C85.8211 92.8358 86.0981 92.8562 86.3783 92.8776C88.3702 93.0236 90.4136 93.1653 92.5042 93.3027C92.7995 93.322 93.1023 93.3414 93.3997 93.3607C94.146 93.409 94.8977 93.4573 95.6547 93.5056C96.038 93.5292 96.4246 93.5528 96.8101 93.5775C97.5037 93.6194 98.1984 93.6623 98.9007 93.7042C99.0768 93.7149 99.2465 93.7257 99.4226 93.7364C99.6277 93.7493 99.8381 93.76 100.043 93.7729C100.882 93.8223 101.727 93.8695 102.576 93.9178C102.926 93.9382 103.276 93.9586 103.627 93.9779C104.638 94.0337 105.658 94.0896 106.686 94.1432C106.868 94.1529 107.051 94.1636 107.233 94.1722C108.454 94.2366 109.687 94.2989 110.93 94.3601C111.225 94.3751 111.526 94.389 111.824 94.4041C112.765 94.4502 113.711 94.4953 114.667 94.5404C114.843 94.5479 115.013 94.5565 115.189 94.5651C115.526 94.5812 115.868 94.5951 116.208 94.6102C116.749 94.6359 117.288 94.6595 117.833 94.6842C118.421 94.7111 119.01 94.7358 119.6 94.7615C120.128 94.7841 120.654 94.8066 121.186 94.8291C121.788 94.8549 122.396 94.8807 123.004 94.9054C123.532 94.9268 124.062 94.9494 124.597 94.9698C125.216 94.9945 125.841 95.0191 126.463 95.0428C126.987 95.0632 127.508 95.0836 128.034 95.1029C128.278 95.1115 128.519 95.1211 128.762 95.1308C128.958 95.1372 129.159 95.1437 129.354 95.1501C131.183 95.2177 133.026 95.2843 134.895 95.3466C135.119 95.3551 135.348 95.3616 135.572 95.3691C137.502 95.4335 139.445 95.4947 141.412 95.5537C141.472 95.5559 141.53 95.558 141.591 95.5591C141.61 95.5602 141.63 95.5602 141.652 95.5612C143.458 95.6149 145.282 95.6654 147.12 95.7147C147.529 95.7255 147.936 95.7362 148.347 95.747C150.114 95.7931 151.9 95.8371 153.694 95.879C153.855 95.8833 154.013 95.8865 154.172 95.8908C154.419 95.8961 154.676 95.9004 154.925 95.9069C156.674 95.9466 158.434 95.9853 160.208 96.0196C160.323 96.0218 160.437 96.025 160.551 96.026C162.418 96.0636 164.303 96.098 166.195 96.1302C166.426 96.1334 166.655 96.1388 166.888 96.142C167.06 96.1452 167.238 96.1484 167.412 96.1506C169.278 96.1806 171.155 96.2107 173.045 96.2364C173.421 96.2418 173.798 96.2461 174.176 96.2515C176.05 96.2761 177.936 96.2998 179.832 96.3202C179.929 96.3212 180.023 96.3223 180.12 96.3234C180.147 96.3234 180.177 96.3234 180.206 96.3234C182.288 96.3459 184.388 96.3642 186.495 96.3803C186.88 96.3824 187.267 96.3856 187.652 96.3889C189.67 96.4028 191.696 96.4146 193.732 96.4232C193.935 96.4243 194.137 96.4264 194.342 96.4264C194.61 96.4275 194.883 96.4275 195.154 96.4286C197.083 96.4361 199.017 96.4425 200.965 96.4447C203.997 96.449 207.012 96.4458 210.008 96.4382C210.09 96.4382 210.176 96.4382 210.258 96.4382C210.407 96.4382 210.551 96.4372 210.7 96.4372C213.538 96.4286 216.354 96.4146 219.152 96.3964C219.502 96.3942 219.852 96.391 220.203 96.3889C222.951 96.3685 225.679 96.3438 228.388 96.3148C228.549 96.3137 228.718 96.3126 228.883 96.3116C229.024 96.3094 229.16 96.3073 229.301 96.3062C231.57 96.2804 233.823 96.2515 236.06 96.2182C236.408 96.2128 236.753 96.2085 237.101 96.2032C239.326 96.1699 241.537 96.1345 243.73 96.0937C244.072 96.0872 244.416 96.0808 244.758 96.0743C246.954 96.0336 249.128 95.9895 251.289 95.9423C251.61 95.9359 251.931 95.9273 252.25 95.9208C254.426 95.8725 256.584 95.8199 258.723 95.7652C258.829 95.762 258.939 95.7598 259.047 95.7577C259.418 95.748 259.781 95.7373 260.149 95.7276C260.984 95.7051 261.817 95.6825 262.645 95.66C263.201 95.6439 263.754 95.6299 264.308 95.6138C265.109 95.5913 265.908 95.5677 266.705 95.5441C267.257 95.5269 267.805 95.5097 268.355 95.4936C269.158 95.4689 269.955 95.4442 270.752 95.4185C271.276 95.4002 271.801 95.3841 272.321 95.367C273.155 95.339 273.982 95.3101 274.807 95.2821C275.287 95.265 275.77 95.2489 276.248 95.2328C277.265 95.1963 278.275 95.1587 279.283 95.1211C279.547 95.1115 279.816 95.1018 280.078 95.0922C281.353 95.0438 282.617 94.9945 283.871 94.9429C284.208 94.929 284.54 94.915 284.878 94.9011C285.793 94.8635 286.705 94.8259 287.609 94.7873C288.054 94.768 288.492 94.7486 288.932 94.7293C289.729 94.695 290.523 94.6595 291.31 94.6241C291.484 94.6155 291.665 94.608 291.839 94.6005C292.189 94.5855 292.529 94.5683 292.877 94.5522C293.449 94.5264 294.019 94.4996 294.586 94.4717C295.113 94.447 295.638 94.4202 296.159 94.3955C296.732 94.3676 297.302 94.3397 297.869 94.3107C298.383 94.2849 298.892 94.2581 299.402 94.2312C299.966 94.2023 300.533 94.1733 301.095 94.1432C301.596 94.1164 302.097 94.0895 302.596 94.0616C303.148 94.0327 303.701 94.0015 304.248 93.9715C304.756 93.9436 305.259 93.9146 305.762 93.8856C306.297 93.8555 306.83 93.8255 307.356 93.7944C307.849 93.7664 308.335 93.7364 308.824 93.7074C309.354 93.6752 309.884 93.6441 310.41 93.6119C310.896 93.5818 311.378 93.5507 311.861 93.5217C312.379 93.4895 312.897 93.4573 313.405 93.4251C313.863 93.395 314.312 93.366 314.763 93.3371C315.297 93.3006 315.832 93.2673 316.36 93.2308C316.429 93.2265 316.501 93.2222 316.57 93.2179C316.769 93.204 316.962 93.19 317.159 93.176C318 93.1192 318.835 93.0612 319.659 93.0022C320.005 92.9785 320.349 92.9538 320.691 92.9281C321.435 92.8744 322.169 92.8197 322.897 92.766C323.243 92.7402 323.588 92.7134 323.929 92.6876C324.701 92.6286 325.461 92.5695 326.218 92.5094C326.484 92.488 326.752 92.4676 327.019 92.4461C328.033 92.3645 329.036 92.2819 330.024 92.1982C330.033 92.1971 330.046 92.196 330.057 92.196C330.438 92.1638 330.808 92.1305 331.186 92.0972C331.652 92.0575 332.123 92.0167 332.581 91.977C335.098 91.7527 337.509 91.5229 339.814 91.2857C340.56 91.2084 341.294 91.1301 342.02 91.0528C342.228 91.0302 342.432 91.0077 342.639 90.9852C343.138 90.9304 343.633 90.8757 344.117 90.8209C344.375 90.7909 344.625 90.7619 344.879 90.7329C345.313 90.6835 345.747 90.633 346.173 90.5815C346.419 90.5525 346.666 90.5225 346.907 90.4924C347.147 90.4635 347.391 90.4345 347.627 90.4066C347.822 90.3819 348.01 90.3572 348.205 90.3336C348.413 90.3078 348.619 90.281 348.824 90.2552C349.251 90.2005 349.675 90.1446 350.091 90.0899C350.294 90.0641 350.498 90.0373 350.697 90.0094C351.167 89.9461 351.625 89.8827 352.081 89.8183C352.206 89.8001 352.336 89.7829 352.461 89.7668C353.004 89.6884 353.541 89.6111 354.065 89.5317C354.096 89.5263 354.128 89.522 354.162 89.5167C354.269 89.5006 354.371 89.4845 354.48 89.4684C354.908 89.4029 355.33 89.3374 355.745 89.2719C355.932 89.2429 356.11 89.2129 356.295 89.1828C356.629 89.1281 356.958 89.0733 357.283 89.0186C357.47 88.9875 357.657 88.9553 357.841 88.9231C358.171 88.8672 358.49 88.8103 358.806 88.7524C358.961 88.7245 359.12 88.6966 359.274 88.6686C359.329 88.659 359.385 88.6493 359.435 88.6397C359.825 88.5667 360.203 88.4948 360.574 88.4218C360.593 88.4185 360.612 88.4153 360.627 88.411C361.069 88.3241 361.495 88.2361 361.91 88.1491C362.033 88.1234 362.149 88.0976 362.271 88.0708C362.556 88.0096 362.837 87.9473 363.109 87.8861C363.254 87.8528 363.395 87.8196 363.537 87.7863C363.654 87.7595 363.776 87.7326 363.889 87.7047C364.006 87.6768 364.115 87.6478 364.23 87.6188C364.377 87.5834 364.523 87.5469 364.666 87.5104C364.897 87.4514 365.119 87.3923 365.34 87.3333C365.459 87.3011 365.583 87.2689 365.698 87.2367C365.954 87.1658 366.202 87.0939 366.44 87.022C366.508 87.0005 366.581 86.9812 366.647 86.9608C366.935 86.8728 367.211 86.7837 367.474 86.6946C367.485 86.6914 367.496 86.6871 367.505 86.6828C367.611 86.6474 367.703 86.6119 367.803 86.5765C367.975 86.5142 368.151 86.4531 368.313 86.3908C368.414 86.3511 368.508 86.3114 368.604 86.2727C368.749 86.2137 368.894 86.1557 369.026 86.0977C369.12 86.0548 369.208 86.0119 369.296 85.97C369.416 85.9131 369.536 85.8584 369.644 85.8015C369.728 85.7575 369.803 85.7135 369.884 85.6684C369.955 85.6297 370.033 85.59 370.095 85.5514C370.126 85.5331 370.148 85.5149 370.177 85.4977C370.232 85.4633 370.282 85.4301 370.333 85.3946C370.427 85.3324 370.511 85.2701 370.59 85.2068C370.634 85.1714 370.681 85.1359 370.72 85.1005C370.795 85.034 370.863 84.9685 370.923 84.9041C370.952 84.8729 370.987 84.8418 371.011 84.8096C371.093 84.713 371.163 84.6164 371.214 84.5198L407.362 15.99C407.421 15.8795 407.463 15.7678 407.489 15.6562C407.523 15.5467 407.525 15.4308 407.516 15.3159Z" fill="#B9A6FC"/>
<path d="M407.494 15.6625C405.531 24.0021 312.784 30.6435 200.335 30.4986C87.8881 30.3526 -1.67754 23.475 0.285318 15.1354C2.24818 6.79584 94.9954 0.153368 207.444 0.30043C319.891 0.446419 409.457 7.32398 407.494 15.6625Z" fill="#B9A6FC"/>
<path d="M407.494 15.6625C405.531 24.0021 312.784 30.6435 200.335 30.4986C87.8881 30.3526 -1.67754 23.475 0.285318 15.1354C2.24818 6.79584 94.9954 0.153368 207.444 0.30043C319.891 0.446419 409.457 7.32398 407.494 15.6625Z" fill="#3600F0" fill-opacity="0.25"/>
</svg>