<svg width="105" height="67" viewBox="0 0 105 67" fill="none" xmlns="http://www.w3.org/2000/svg">
<path d="M104.891 8.62749C104.888 8.60168 104.884 8.57586 104.881 8.54852C104.873 8.49006 104.862 8.43083 104.848 8.37237C104.84 8.34351 104.832 8.31466 104.824 8.28656C104.805 8.22658 104.782 8.16735 104.756 8.10812C104.745 8.08383 104.736 8.05877 104.724 8.03447C104.683 7.95171 104.637 7.86895 104.582 7.78695C104.576 7.77859 104.569 7.77024 104.563 7.76188C104.513 7.68747 104.455 7.61457 104.394 7.54168C104.372 7.5151 104.347 7.48929 104.323 7.46347C104.272 7.40728 104.217 7.3511 104.16 7.29491C104.131 7.26681 104.102 7.23872 104.072 7.21138C104.007 7.15292 103.94 7.09521 103.869 7.0375C103.841 7.01472 103.815 6.99194 103.786 6.96916C103.685 6.8902 103.578 6.81123 103.463 6.73226C103.443 6.7186 103.42 6.70493 103.4 6.69126C103.303 6.62672 103.202 6.56218 103.096 6.4984C103.053 6.47106 103.007 6.44524 102.961 6.41943C102.871 6.36628 102.778 6.31313 102.682 6.2615C102.632 6.23416 102.583 6.20758 102.532 6.18101C102.424 6.12482 102.312 6.06863 102.198 6.01244C102.156 5.99194 102.116 5.97143 102.073 5.95093C101.915 5.875 101.752 5.80135 101.583 5.72694C101.542 5.70947 101.499 5.69125 101.458 5.67455C101.325 5.61684 101.189 5.56066 101.048 5.50371C100.983 5.47789 100.916 5.45132 100.85 5.4255C100.725 5.37615 100.597 5.32755 100.465 5.27895C100.396 5.25238 100.325 5.22732 100.254 5.20075C100.105 5.14683 99.9518 5.09368 99.7956 5.04053C99.7421 5.02231 99.6902 5.00408 99.636 4.98586C99.427 4.91524 99.2117 4.84539 98.991 4.77629C98.9783 4.77249 98.9663 4.76794 98.9536 4.76338C98.8705 4.73757 98.784 4.71251 98.6995 4.68669C98.5955 4.6548 98.4922 4.62291 98.3865 4.59178C98.2838 4.56141 98.1788 4.53103 98.0741 4.50142C97.9666 4.47029 97.8609 4.43916 97.7518 4.40879C97.6419 4.37842 97.5293 4.34805 97.4164 4.31768C97.3089 4.28806 97.2018 4.2592 97.092 4.22959C96.9746 4.19846 96.8555 4.16733 96.7353 4.13696C96.6255 4.1081 96.516 4.08 96.4041 4.05267C96.3673 4.04356 96.3316 4.03369 96.2949 4.02458C96.1641 3.99193 96.0302 3.96004 95.8967 3.92739C95.8565 3.91752 95.8171 3.90764 95.7766 3.89777C95.5558 3.84538 95.332 3.79299 95.1041 3.7406C95.0577 3.72997 95.0114 3.72009 94.9654 3.70946C94.7859 3.66922 94.6032 3.62822 94.4196 3.58797C94.3417 3.57203 94.2627 3.55457 94.1834 3.53711C94.0948 3.51813 94.007 3.49914 93.9174 3.48015C93.8745 3.47104 93.8295 3.4627 93.7866 3.45359C93.4917 3.39208 93.1931 3.33133 92.8882 3.27058C92.8615 3.26527 92.8354 3.25996 92.8079 3.25464C92.4732 3.18858 92.1313 3.12404 91.785 3.06026C91.7506 3.05419 91.7187 3.04736 91.6844 3.04128C91.6198 3.02913 91.5536 3.01774 91.4894 3.00635C91.267 2.96535 91.0414 2.92587 90.8142 2.88562C90.7002 2.86588 90.5862 2.84537 90.4709 2.82563C90.2261 2.78311 89.9779 2.74211 89.728 2.7011C89.659 2.68896 89.5921 2.67757 89.5228 2.66618C89.5018 2.66239 89.4805 2.66011 89.4596 2.65631C89.1404 2.60468 88.8173 2.55304 88.4895 2.50292C88.4226 2.49229 88.3529 2.48243 88.2849 2.4718C88.0227 2.43156 87.7594 2.39207 87.4923 2.35258C87.46 2.34803 87.4284 2.34271 87.3958 2.33816C87.2692 2.31993 87.1391 2.30172 87.011 2.2835C86.8449 2.25996 86.6791 2.23566 86.5116 2.21288C86.3595 2.19162 86.2064 2.17111 86.0529 2.14985C85.8727 2.12479 85.6922 2.10049 85.5099 2.0762C85.4584 2.06936 85.4079 2.06253 85.3564 2.0557C85.2438 2.04127 85.1299 2.02684 85.0173 2.01242C84.8525 1.99115 84.6881 1.96989 84.5226 1.94863C84.3489 1.92661 84.1739 1.9046 83.9991 1.88333C83.8347 1.86359 83.6706 1.8431 83.5051 1.82335C83.4368 1.815 83.3696 1.80665 83.3012 1.79906C83.1921 1.78539 83.0805 1.77323 82.9707 1.76033C82.8059 1.7421 82.6408 1.72236 82.4746 1.70338C82.2958 1.68288 82.1145 1.66238 81.933 1.64263C81.7802 1.62593 81.6278 1.60923 81.4743 1.59252C81.3971 1.58341 81.3209 1.57506 81.2437 1.56671C81.1081 1.55152 80.9701 1.53861 80.8334 1.52342C80.6992 1.50976 80.5653 1.49458 80.4298 1.48167C80.2334 1.46193 80.035 1.44142 79.8362 1.42168C79.6807 1.40573 79.5266 1.38979 79.3704 1.3746C79.3213 1.37005 79.2733 1.36473 79.2235 1.36018C79.1734 1.35486 79.1202 1.35107 79.07 1.34575C78.4631 1.28729 77.8497 1.23109 77.227 1.17642C77.2102 1.1749 77.194 1.17263 77.1772 1.17187C77.1336 1.16807 77.0893 1.16503 77.0464 1.16123C76.4738 1.11188 75.8947 1.06329 75.3091 1.01849C75.2607 1.01394 75.2147 1.01013 75.1663 1.00634C75.1467 1.00482 75.1275 1.0033 75.1086 1.00254C74.5415 0.958497 73.9669 0.915982 73.3881 0.875739C73.3157 0.870424 73.2447 0.864352 73.1715 0.859796C73.1159 0.856 73.0583 0.852957 73.0026 0.84916C72.4589 0.811195 71.9103 0.774751 71.3573 0.739823C71.3178 0.737545 71.2794 0.734512 71.2406 0.732234C71.162 0.727678 71.0824 0.723118 71.0041 0.718562C70.5489 0.690468 70.091 0.66389 69.6303 0.638073C69.5531 0.633518 69.4775 0.628958 69.4003 0.624402C69.3643 0.622124 69.3272 0.620614 69.2912 0.619095C68.7917 0.59176 68.2888 0.565182 67.7824 0.540125C67.7557 0.539365 67.7303 0.537843 67.7038 0.536324C67.6273 0.532528 67.5504 0.529497 67.4739 0.5257C67.0757 0.506717 66.6754 0.488495 66.2731 0.470272C66.1914 0.466476 66.1107 0.46192 66.0297 0.458883C65.9305 0.455086 65.8299 0.451285 65.7307 0.446729C65.5189 0.437618 65.3064 0.429268 65.0943 0.420915C64.9594 0.4156 64.8262 0.410288 64.6906 0.404973C64.5969 0.401176 64.5021 0.398139 64.4084 0.395102C64.1832 0.386749 63.9577 0.379146 63.7318 0.370794C63.6003 0.366238 63.4702 0.360925 63.3384 0.356369C63.2701 0.354091 63.2011 0.351817 63.1324 0.350298C62.911 0.342705 62.6886 0.335871 62.4668 0.329038C62.3161 0.324482 62.1658 0.31841 62.0144 0.314613C61.9279 0.312335 61.8414 0.31005 61.7549 0.307013C61.6389 0.303975 61.5228 0.300943 61.4068 0.297906C61.2688 0.294109 61.1311 0.289554 60.9932 0.286517C60.8363 0.28272 60.6787 0.278924 60.5225 0.275128C60.4219 0.27285 60.3214 0.27057 60.2208 0.268292C60.135 0.266014 60.0498 0.263734 59.964 0.261456C59.62 0.253863 59.2747 0.24627 58.9294 0.240196C58.5882 0.234121 58.247 0.227286 57.9037 0.221971C57.8594 0.221211 57.8151 0.221218 57.7695 0.2197C57.7039 0.21894 57.6373 0.218177 57.5704 0.217417C57.4056 0.215139 57.2405 0.212859 57.075 0.210582C56.8423 0.207544 56.6092 0.204512 56.3758 0.201475C56.3758 0.201475 56.3751 0.201475 56.3744 0.201475C56.3308 0.200716 56.2865 0.200716 56.2429 0.199957C55.9645 0.19692 55.6865 0.194641 55.4067 0.191604C55.3315 0.191604 55.256 0.191598 55.1808 0.190839C55.0761 0.190839 54.9725 0.190087 54.8677 0.188568C54.7672 0.188568 54.668 0.187045 54.5674 0.186286C54.2873 0.184767 54.0061 0.184004 53.7246 0.182485C53.7147 0.182485 53.7044 0.182485 53.6951 0.182485C53.4411 0.181726 53.1874 0.181732 52.9348 0.181732C52.7827 0.181732 52.631 0.181732 52.4796 0.181732C52.414 0.181732 52.3474 0.181732 52.2818 0.181732C52.2383 0.181732 52.1947 0.181732 52.1511 0.181732L52.1504 0.182485C51.8895 0.183245 51.6286 0.183255 51.3687 0.184015C51.287 0.184015 51.2043 0.185532 51.1219 0.185532C51.0495 0.185532 50.9764 0.185526 50.9033 0.186286C50.7986 0.187045 50.6942 0.187044 50.5895 0.187803C50.3307 0.189322 50.0718 0.190849 49.8137 0.193886C49.7835 0.193886 49.754 0.194639 49.7238 0.194639C49.6774 0.195398 49.6311 0.195404 49.5851 0.195404C49.3753 0.196922 49.1653 0.199191 48.9562 0.202228C48.812 0.203747 48.6685 0.206027 48.525 0.207546C48.4293 0.208305 48.3338 0.210587 48.2381 0.211346C48.1636 0.212865 48.0891 0.212863 48.0149 0.214382C47.7026 0.218938 47.3902 0.224256 47.0788 0.229571C46.7678 0.235646 46.4565 0.241722 46.1475 0.247796C46.061 0.249315 45.9759 0.251589 45.8901 0.253867C45.7888 0.255386 45.6875 0.258425 45.5863 0.260703C45.461 0.262981 45.3343 0.266019 45.2087 0.269057C45.1208 0.271334 45.0343 0.273608 44.9464 0.276645C44.4665 0.288794 43.9883 0.300939 43.5122 0.315366C43.4298 0.317644 43.3467 0.319165 43.2647 0.322202C43.2413 0.322202 43.2184 0.32372 43.195 0.32372C42.642 0.340424 42.0927 0.359406 41.5456 0.379148C41.48 0.381425 41.4113 0.382946 41.3458 0.385983C41.1038 0.394336 40.8631 0.403444 40.6225 0.413315C40.5816 0.414834 40.5415 0.417121 40.5006 0.41788C39.9765 0.43914 39.4554 0.461158 38.937 0.484697C38.7873 0.491531 38.638 0.498359 38.489 0.505193C37.9515 0.53025 37.417 0.556828 36.8866 0.584163C36.8551 0.585682 36.8235 0.587204 36.7929 0.587964C36.5911 0.598594 36.392 0.610736 36.1908 0.621366C36.001 0.631997 35.8108 0.641873 35.6224 0.653263C35.5887 0.655541 35.554 0.657062 35.5204 0.658581C35.381 0.666933 35.242 0.675283 35.1026 0.684395C34.8634 0.698821 34.6238 0.712483 34.3866 0.727669C34.3457 0.729947 34.3042 0.732232 34.2633 0.735269C34.0701 0.747418 33.8792 0.759564 33.6873 0.772472C33.5486 0.780824 33.4089 0.789933 33.2702 0.799804C33.2132 0.802841 33.1549 0.807402 33.0979 0.81044C32.7848 0.8317 32.4738 0.852954 32.1639 0.874974C31.8542 0.896994 31.5456 0.919012 31.2394 0.941791C31.1872 0.946347 31.1354 0.950149 31.0839 0.953945C31.0122 0.95926 30.9418 0.964572 30.8714 0.969887C30.6884 0.984314 30.5055 0.997982 30.3236 1.01241C30.2144 1.02076 30.1063 1.02988 29.9978 1.03899C29.9106 1.04582 29.8234 1.05266 29.7362 1.05949C29.625 1.06861 29.5117 1.07695 29.4001 1.08683C29.2419 1.10049 29.0857 1.1134 28.9288 1.12706C28.8389 1.13466 28.7493 1.14225 28.6593 1.14984C28.5849 1.15668 28.509 1.16276 28.4349 1.16883C28.1994 1.18933 27.9663 1.20984 27.7329 1.2311C27.6934 1.23413 27.6532 1.23792 27.6134 1.24172C27.5698 1.24552 27.5255 1.24931 27.4812 1.25311C27.1654 1.28196 26.8517 1.31157 26.54 1.34119C26.2101 1.37308 25.8823 1.40497 25.5572 1.43838C25.527 1.44142 25.4961 1.44445 25.4659 1.44749C25.4645 1.44749 25.4631 1.44749 25.4617 1.44749C25.4449 1.44901 25.4281 1.45054 25.412 1.45205C25.0471 1.4885 24.6859 1.52647 24.3272 1.56519C24.3104 1.56671 24.2929 1.56898 24.2757 1.5705C24.1885 1.58037 24.1034 1.58949 24.0169 1.59936C23.7509 1.62821 23.4845 1.65782 23.2219 1.68744C23.1858 1.69199 23.1481 1.69578 23.112 1.69958C23.0458 1.70717 22.9819 1.71552 22.9164 1.72236C22.5645 1.7626 22.215 1.80437 21.8697 1.84613C21.7952 1.85524 21.7193 1.86284 21.6459 1.87271C21.605 1.87727 21.5656 1.88334 21.524 1.88865C21.074 1.94408 20.6298 2.00026 20.1911 2.05797C20.1516 2.06329 20.1108 2.06861 20.0716 2.07393C19.9281 2.09215 19.7881 2.11264 19.646 2.13162C19.5207 2.14833 19.3947 2.16504 19.2704 2.1825C19.0947 2.2068 18.9217 2.23109 18.7476 2.25615C18.5969 2.27741 18.4452 2.29868 18.2959 2.3207C18.2584 2.32525 18.2207 2.33133 18.1833 2.33664C18.0975 2.34955 18.0144 2.3617 17.9286 2.37461C17.7209 2.40574 17.5135 2.43611 17.3089 2.46724C17.1734 2.48774 17.0395 2.509 16.9059 2.5295C16.7216 2.55836 16.538 2.58797 16.3553 2.61606C16.2877 2.62669 16.218 2.63808 16.1501 2.64871C16.0855 2.65934 16.0234 2.66998 15.9595 2.68061C15.7381 2.7163 15.5205 2.7535 15.3032 2.78995C15.1865 2.80893 15.0691 2.82943 14.9531 2.84917C14.6863 2.89549 14.4227 2.94181 14.1618 2.98964C14.111 2.99876 14.0585 3.0071 14.0077 3.01698C14.0005 3.01849 13.9936 3.01926 13.986 3.02078C13.6785 3.07696 13.3754 3.13391 13.0764 3.19238C12.9799 3.2106 12.8858 3.22958 12.7908 3.24781C12.5803 3.28881 12.3716 3.33057 12.1653 3.37233C12.121 3.3822 12.0747 3.39055 12.0297 3.39966C11.9672 3.41257 11.9079 3.42549 11.8461 3.4384C11.671 3.47484 11.4973 3.51205 11.3263 3.54925C11.2165 3.57279 11.1063 3.59632 10.9978 3.62062C10.8221 3.65935 10.6484 3.69807 10.4767 3.7368C10.4105 3.75274 10.3411 3.76718 10.2756 3.78236C10.2481 3.78844 10.222 3.79527 10.1953 3.80134C10.0243 3.84083 9.85816 3.88107 9.69098 3.92055C9.60722 3.94105 9.52209 3.9608 9.43902 3.9813C9.2485 4.02837 9.06279 4.0747 8.87845 4.12253C8.82764 4.13544 8.77444 4.14834 8.72363 4.16125C8.71814 4.16277 8.71368 4.16429 8.70818 4.16581C8.55989 4.20377 8.41571 4.24326 8.27188 4.28198C8.16341 4.31159 8.05458 4.33969 7.94886 4.3693C7.75902 4.4217 7.57194 4.47484 7.38966 4.52723C7.38829 4.52723 7.38623 4.52724 7.38417 4.528C7.31311 4.54926 7.2448 4.57051 7.17443 4.59102C7.04433 4.62898 6.91354 4.66771 6.78756 4.70567C6.66604 4.74288 6.54966 4.78085 6.43226 4.81806C6.35915 4.8416 6.2826 4.86437 6.21051 4.88791C6.20914 4.88867 6.20708 4.88943 6.20502 4.89019C6.02137 4.95018 5.84149 5.01016 5.66677 5.0709C5.60051 5.09444 5.53735 5.11722 5.47247 5.14C5.3664 5.17796 5.2593 5.21517 5.15666 5.25237C5.15254 5.25389 5.14877 5.25542 5.14465 5.25694C5.09556 5.2744 5.04887 5.29338 5.00047 5.3116C4.88581 5.35488 4.77116 5.39816 4.66063 5.4422C4.59952 5.46498 4.54185 5.49004 4.48281 5.51433C4.40557 5.54547 4.32593 5.5766 4.25076 5.60773C4.23531 5.61456 4.22055 5.6214 4.2051 5.62747C4.14263 5.65329 4.08324 5.67987 4.02282 5.70644C3.93769 5.74289 3.85255 5.78009 3.77085 5.8173C3.71112 5.84463 3.65414 5.87121 3.59647 5.89779C3.5467 5.92133 3.4952 5.94487 3.4468 5.96689C3.41934 5.98055 3.39463 5.99422 3.36716 6.00637C3.31155 6.03371 3.25732 6.06103 3.20342 6.08837C3.13099 6.12557 3.05924 6.16203 2.98956 6.19923C2.93944 6.22657 2.88966 6.25238 2.84126 6.27896C2.81174 6.2949 2.78085 6.31085 2.75202 6.3268C2.71185 6.34958 2.67478 6.37311 2.6353 6.39513C2.59034 6.42095 2.54536 6.44753 2.50108 6.4741C2.43551 6.51359 2.37235 6.55306 2.30987 6.59406C2.27039 6.61836 2.23023 6.64419 2.19178 6.66925C2.17977 6.6776 2.16639 6.68594 2.15437 6.6943C2.10014 6.72998 2.05104 6.76795 1.99955 6.80363C1.97003 6.82489 1.93845 6.84691 1.90962 6.86742C1.82998 6.92664 1.7548 6.98587 1.68237 7.0451C1.67104 7.05497 1.65834 7.06484 1.64632 7.07471C1.56977 7.1385 1.49803 7.20227 1.4304 7.26681C1.40706 7.28883 1.38681 7.31161 1.36553 7.33288C1.32674 7.3716 1.28657 7.41032 1.25156 7.44905C1.24469 7.45588 1.24023 7.46348 1.23336 7.47031C1.20933 7.49764 1.1884 7.52422 1.16574 7.5508C1.13073 7.5918 1.09674 7.63356 1.06516 7.67608C1.04353 7.70417 1.02499 7.73379 1.00543 7.76188C0.987233 7.7877 0.966635 7.81428 0.950501 7.84086C0.94192 7.85452 0.935748 7.86819 0.927853 7.88186C0.908286 7.91451 0.891115 7.94716 0.873608 7.97981C0.853355 8.01777 0.834822 8.05574 0.818002 8.09295C0.802554 8.12636 0.789847 8.15976 0.777146 8.19393C0.769937 8.21367 0.758955 8.23417 0.752433 8.25468C0.745224 8.27594 0.741102 8.29871 0.734236 8.32073C0.728057 8.34047 0.722915 8.36021 0.717422 8.37996C0.701975 8.44526 0.688586 8.51131 0.68172 8.57737C0.677601 8.6123 0.675543 8.64723 0.674513 8.68216C0.67314 8.71405 0.676566 8.74518 0.677939 8.77632C0.678625 8.79986 0.677943 8.82263 0.680002 8.84617C0.686868 8.92058 0.696825 8.99499 0.714332 9.06865C4.7437 25.9716 8.77409 42.8729 12.8041 59.7751C12.8182 59.8336 12.8378 59.8913 12.8604 59.949C12.8677 59.968 12.8779 59.9869 12.8865 60.0059C12.904 60.0439 12.9222 60.0834 12.9435 60.1213C12.9562 60.1434 12.9703 60.1654 12.9844 60.1874C13.0063 60.2231 13.0286 60.258 13.0541 60.2937C13.0709 60.3157 13.0891 60.34 13.1069 60.362C13.133 60.3962 13.1618 60.4304 13.1914 60.4646C13.2116 60.4873 13.2329 60.5109 13.2552 60.5344C13.2875 60.5671 13.3215 60.6012 13.3572 60.6354C13.3812 60.6574 13.4042 60.6802 13.4289 60.703C13.4684 60.7379 13.5113 60.7736 13.5549 60.8093C13.5789 60.829 13.6019 60.8495 13.6273 60.87C13.685 60.9148 13.7468 60.9589 13.8089 61.0044C13.8237 61.0143 13.8364 61.0242 13.8505 61.0348C13.9291 61.0879 14.0128 61.1426 14.0993 61.1965C14.1275 61.2132 14.1584 61.2314 14.1872 61.2481C14.2476 61.2854 14.3087 61.321 14.3736 61.3575C14.4117 61.3787 14.4522 61.4015 14.4917 61.422C14.5507 61.4547 14.6112 61.4866 14.6733 61.5185C14.7169 61.5405 14.7612 61.5633 14.8061 61.5845C14.8686 61.6164 14.9328 61.6468 14.998 61.6772C15.0457 61.6992 15.0938 61.722 15.1429 61.744C15.2091 61.7743 15.2778 61.8047 15.3475 61.8343C15.3983 61.8564 15.4487 61.8791 15.5016 61.9012C15.5747 61.9323 15.6506 61.9619 15.7268 61.993C15.7776 62.0135 15.8281 62.0348 15.8796 62.0545C15.9681 62.0895 16.0598 62.1236 16.1525 62.1578C16.1961 62.1737 16.2383 62.1905 16.2826 62.2064C16.4181 62.2558 16.5575 62.3043 16.6996 62.3529C16.746 62.3689 16.7947 62.3856 16.8424 62.4008C16.9416 62.4342 17.0408 62.4676 17.1435 62.501C17.208 62.5208 17.2743 62.5412 17.3392 62.5617C17.4298 62.5906 17.5208 62.6179 17.6134 62.646C17.6838 62.6673 17.7556 62.6886 17.8273 62.7091C17.9179 62.7364 18.0096 62.7622 18.1023 62.7888C18.1795 62.8108 18.2564 62.8321 18.3343 62.8541C18.4263 62.8791 18.52 62.9042 18.6144 62.93C18.6934 62.9513 18.7734 62.9733 18.8544 62.9946C18.9543 63.0204 19.0569 63.0469 19.1589 63.0728C19.2368 63.0925 19.3137 63.113 19.393 63.132C19.5056 63.1601 19.6202 63.1874 19.7356 63.2148C19.8094 63.2322 19.8818 63.2504 19.9563 63.2679C20.1399 63.3112 20.3263 63.3537 20.5169 63.3962C20.5852 63.4122 20.6562 63.4266 20.7259 63.4418C20.8553 63.4706 20.9847 63.4987 21.1162 63.5268C21.2062 63.5458 21.2985 63.5648 21.3898 63.5838C21.5038 63.6066 21.6164 63.6309 21.7324 63.6536C21.8309 63.6734 21.9308 63.6939 22.0307 63.7129C22.1433 63.7349 22.2566 63.7577 22.3712 63.7797C22.4732 63.7987 22.5758 63.8184 22.6795 63.8374C22.7962 63.8594 22.9143 63.8822 23.0327 63.9027C23.1354 63.9217 23.238 63.9407 23.3417 63.9589C23.4642 63.9809 23.5885 64.0029 23.7131 64.0242C23.8185 64.0416 23.9228 64.0614 24.0289 64.0788C24.157 64.1001 24.2864 64.1221 24.4165 64.1426C24.5198 64.1593 24.6231 64.1768 24.7275 64.1935C24.8991 64.2216 25.0742 64.2489 25.2493 64.2755C25.3852 64.2968 25.5228 64.3188 25.6608 64.3393C25.8225 64.3628 25.9839 64.3879 26.1483 64.4122C26.2588 64.4281 26.3714 64.4448 26.483 64.46C26.6217 64.4798 26.7593 64.4995 26.8994 64.5192C27.0188 64.5352 27.14 64.5519 27.2609 64.5686C27.3944 64.5861 27.5276 64.6043 27.6632 64.6225C27.7181 64.6293 27.771 64.6369 27.8262 64.6438C27.8901 64.6521 27.9556 64.6605 28.0198 64.6688C28.1908 64.6908 28.3631 64.7121 28.5368 64.7341C28.6415 64.7478 28.7459 64.7607 28.8512 64.7736C29.063 64.7994 29.2762 64.8245 29.4908 64.8503C29.5632 64.8594 29.6336 64.8678 29.7067 64.8761C29.9896 64.9095 30.2751 64.9414 30.5635 64.9725C30.6572 64.9832 30.7526 64.9923 30.847 65.0029C31.0413 65.0234 31.236 65.0447 31.4323 65.0652C31.4859 65.0713 31.5391 65.0773 31.5933 65.0819C31.6376 65.0864 31.6846 65.091 31.7293 65.0956C32.1779 65.1419 32.6324 65.1852 33.0938 65.2284C33.1676 65.236 33.2428 65.2429 33.3169 65.2489C33.7855 65.2922 34.2595 65.3332 34.7398 65.3735C34.7727 65.3757 34.8036 65.3795 34.8363 65.3818C34.8833 65.3856 34.9306 65.3886 34.9777 65.3932C35.4095 65.4289 35.8445 65.4631 36.2852 65.4957C36.3577 65.5018 36.4308 65.5063 36.5039 65.5117C36.9282 65.542 37.3559 65.5724 37.7877 65.6005C37.8265 65.6035 37.8636 65.6058 37.9017 65.6081C37.9144 65.6096 37.9278 65.6096 37.9405 65.6111C38.3655 65.6392 38.7959 65.665 39.2278 65.6908C39.3208 65.6954 39.4135 65.7015 39.5072 65.7068C39.9301 65.7311 40.3568 65.7546 40.7866 65.7767C40.8267 65.7782 40.8669 65.7812 40.9081 65.7835C40.9713 65.7873 41.0355 65.7888 41.0986 65.7926C41.5257 65.8139 41.9554 65.8351 42.3887 65.8541C42.4 65.8541 42.4106 65.8541 42.4223 65.8549C42.871 65.8746 43.3241 65.8928 43.7786 65.9103C43.8349 65.9118 43.8905 65.9149 43.9461 65.9164C43.989 65.9179 44.0319 65.9194 44.0741 65.9209C44.5228 65.9369 44.9739 65.9528 45.4284 65.9665C45.5087 65.9688 45.59 65.9718 45.6711 65.9741C46.1211 65.9877 46.5735 65.9991 47.0287 66.0105C47.0548 66.0113 47.0809 66.012 47.1083 66.0128C47.1156 66.0136 47.1238 66.0136 47.1317 66.0136C47.6404 66.0257 48.1529 66.0348 48.6679 66.0432C48.7389 66.0447 48.8093 66.0462 48.8803 66.047C49.3904 66.0553 49.9033 66.0621 50.4189 66.0659C50.4484 66.0667 50.4773 66.0667 50.5068 66.0675C50.5469 66.0675 50.5878 66.0675 50.6283 66.0682C51.1123 66.0728 51.5977 66.0758 52.0865 66.0773C52.8208 66.0796 53.5503 66.0773 54.2756 66.0743C54.2869 66.0743 54.2989 66.0743 54.3113 66.0743C54.3316 66.0735 54.3515 66.0728 54.3717 66.0728C55.0765 66.0682 55.7764 66.0606 56.4708 66.0508C56.5306 66.0492 56.5889 66.0492 56.6487 66.0477C57.3246 66.0371 57.9957 66.0242 58.6613 66.0075C58.6949 66.0067 58.7289 66.006 58.7625 66.006C58.7921 66.0044 58.8209 66.0044 58.8497 66.0029C59.3962 65.9893 59.9386 65.9733 60.4762 65.9566C60.5613 65.9536 60.6458 65.9505 60.7302 65.9475C61.2599 65.9308 61.7854 65.9103 62.3072 65.8898C62.3923 65.8868 62.4782 65.8837 62.5633 65.8792C63.0851 65.8587 63.6031 65.8344 64.1166 65.8101C64.1956 65.8063 64.2742 65.8017 64.3531 65.7979C64.8715 65.7721 65.3857 65.7455 65.8944 65.7167C65.9212 65.7144 65.9501 65.7136 65.9768 65.7114C66.0699 65.7068 66.1605 65.7007 66.2538 65.6954C66.4402 65.6848 66.626 65.6734 66.811 65.6628C66.9613 65.6536 67.1107 65.6438 67.2603 65.6339C67.4299 65.6233 67.5981 65.6126 67.7667 65.6012C67.917 65.5914 68.067 65.5815 68.216 65.5709C68.3849 65.5595 68.5514 65.5473 68.7182 65.5352C68.8686 65.5246 69.0179 65.5147 69.1676 65.5033C69.3299 65.4912 69.4906 65.479 69.6516 65.4669C69.7999 65.4547 69.9485 65.4448 70.0954 65.4327C70.2685 65.419 70.4394 65.4046 70.611 65.3902C70.7624 65.378 70.9148 65.3659 71.0649 65.3522C71.3343 65.3302 71.6017 65.3066 71.8674 65.2831C72.0243 65.2687 72.1784 65.2542 72.3339 65.2398C72.4713 65.2269 72.6089 65.2155 72.7455 65.2019C72.9072 65.1867 73.0675 65.1707 73.2275 65.1555C73.3569 65.1419 73.487 65.1297 73.6157 65.1168C73.6741 65.1107 73.7338 65.1047 73.7922 65.0994C73.842 65.0948 73.8893 65.0887 73.9391 65.0834C74.3843 65.0379 74.8241 64.9908 75.258 64.9414C75.3318 64.9338 75.4056 64.9255 75.4794 64.9171C75.9198 64.8678 76.3544 64.8169 76.7814 64.7637C76.8453 64.7561 76.9074 64.7478 76.9713 64.7402C77.4045 64.687 77.8322 64.6309 78.2513 64.5739C78.3049 64.5663 78.3567 64.5595 78.4096 64.5519C78.8315 64.4949 79.2468 64.4365 79.6539 64.3757C79.6708 64.3727 79.6897 64.3712 79.7061 64.3681C79.7878 64.3552 79.8671 64.3431 79.9474 64.3309C80.103 64.3074 80.2571 64.2831 80.4102 64.2596C80.5207 64.2421 80.6302 64.2239 80.7394 64.2072C80.8877 64.1844 81.0343 64.1601 81.1798 64.135C81.2845 64.1191 81.3889 64.1009 81.4915 64.0834C81.6518 64.0568 81.8094 64.0295 81.9669 64.0022C82.0493 63.987 82.1331 63.9733 82.2151 63.9589C82.453 63.9156 82.6885 63.8738 82.9192 63.8298C82.9233 63.8298 82.9264 63.8283 82.9298 63.8283C83.1056 63.7949 83.2779 63.7615 83.4489 63.7288C83.4743 63.7227 83.501 63.7182 83.5275 63.7129C84.1309 63.5944 84.7094 63.4722 85.262 63.3461C85.2634 63.3461 85.2655 63.3454 85.2682 63.3454C85.5693 63.2763 85.861 63.2064 86.146 63.1365C86.1854 63.1267 86.2249 63.1176 86.2641 63.1077C86.5356 63.0394 86.7979 62.971 87.0539 62.9019C87.0787 62.8951 87.1047 62.8883 87.1291 62.8822C87.1525 62.8754 87.1727 62.8693 87.1954 62.864C87.4308 62.7987 87.6602 62.7333 87.8819 62.6665C87.9234 62.6544 87.9636 62.6415 88.0051 62.6293C88.217 62.5648 88.4236 62.4995 88.6227 62.4334C88.6375 62.4289 88.6536 62.4243 88.6677 62.4198C88.6732 62.4182 88.6769 62.416 88.6817 62.4144C88.8857 62.3469 89.0793 62.2785 89.2691 62.2094C89.3099 62.1943 89.3515 62.1791 89.3916 62.1639C89.5767 62.0955 89.7559 62.0257 89.9261 61.9566C89.934 61.9535 89.9436 61.9505 89.9508 61.9475C89.969 61.9399 89.9845 61.9323 90.001 61.9254C90.1606 61.8586 90.314 61.7926 90.4602 61.725C90.4843 61.7144 90.5087 61.7045 90.532 61.6931C90.6854 61.621 90.831 61.5488 90.9704 61.4759C90.9844 61.4684 91.0013 61.4608 91.0153 61.4539C91.0442 61.438 91.0709 61.4228 91.0991 61.4076C91.1341 61.3886 91.1681 61.3704 91.201 61.3514C91.256 61.3203 91.3095 61.2892 91.362 61.258C91.3909 61.2406 91.4204 61.2231 91.4485 61.2064C91.5083 61.1692 91.5653 61.1327 91.6209 61.0955C91.6391 61.0834 91.6583 61.0728 91.6758 61.0606C91.7441 61.0135 91.81 60.968 91.8722 60.9201C91.8749 60.9179 91.8776 60.9156 91.8801 60.9133C91.9041 60.8958 91.9264 60.8769 91.949 60.8594C91.992 60.8252 92.0342 60.7926 92.073 60.7592C92.0963 60.7394 92.1179 60.7182 92.1399 60.6992C92.1756 60.6673 92.211 60.6354 92.2439 60.6027C92.2649 60.5822 92.2841 60.561 92.3043 60.5405C92.3345 60.5086 92.3648 60.4775 92.3922 60.4456C92.4104 60.4251 92.4279 60.4023 92.4444 60.3818C92.4626 60.3598 92.4825 60.337 92.4986 60.315C92.5065 60.3043 92.5127 60.2945 92.5196 60.2846C92.5316 60.2679 92.5429 60.2512 92.5539 60.2352C92.5765 60.2011 92.5982 60.1661 92.6177 60.1327C92.6284 60.1145 92.6387 60.0955 92.6486 60.0773C92.6661 60.0424 92.6823 60.0082 92.697 59.9725C92.7043 59.9566 92.7125 59.9399 92.7187 59.9239C92.7382 59.873 92.7544 59.8214 92.7671 59.7705C96.7971 42.8676 100.827 25.9662 104.858 9.06334C104.872 9.00032 104.883 8.93805 104.89 8.87427C104.897 8.79606 104.896 8.71102 104.891 8.62749Z" fill="#8F70FA"/>
<path d="M104.887 8.88091C104.385 13.603 80.6507 17.3639 51.8753 17.2811C23.0999 17.1991 0.179379 13.3046 0.68159 8.58251C1.1838 3.86039 24.9185 0.100311 53.6943 0.182316C82.4697 0.264321 105.389 4.15955 104.887 8.88091Z" fill="#8F70FA"/>
<path d="M104.887 8.88091C104.385 13.603 80.6507 17.3639 51.8753 17.2811C23.0999 17.1991 0.179379 13.3046 0.68159 8.58251C1.1838 3.86039 24.9185 0.100311 53.6943 0.182316C82.4697 0.264321 105.389 4.15955 104.887 8.88091Z" fill="#3600F0" fill-opacity="0.3"/>
</svg>