<svg width="242" height="88" viewBox="0 0 242 88" fill="none" xmlns="http://www.w3.org/2000/svg">
<path d="M241.582 9.79047C241.576 9.76148 241.565 9.73357 241.56 9.70674C241.541 9.64447 241.518 9.58437 241.485 9.52319C241.468 9.49313 241.449 9.46093 241.426 9.43087C241.384 9.36969 241.331 9.30848 241.272 9.24729C241.247 9.22153 241.224 9.19361 241.195 9.16785C241.102 9.08197 240.995 8.99611 240.869 8.91023C240.85 8.8995 240.83 8.88768 240.81 8.87587C240.698 8.8018 240.571 8.72882 240.432 8.65475C240.378 8.62576 240.318 8.59679 240.261 8.56781C240.146 8.51091 240.023 8.45402 239.893 8.39713C239.825 8.366 239.753 8.33595 239.68 8.3059C239.537 8.24579 239.384 8.18781 239.224 8.12877C239.156 8.10408 239.09 8.07831 239.019 8.05362C238.786 7.97097 238.542 7.88938 238.28 7.8078C238.225 7.78955 238.165 7.77452 238.108 7.75735C237.892 7.6908 237.665 7.62533 237.43 7.55985C237.325 7.53301 237.216 7.50294 237.109 7.47503C236.902 7.42136 236.691 7.36661 236.471 7.31294C236.354 7.28396 236.236 7.25499 236.115 7.22708C235.871 7.16804 235.618 7.11221 235.36 7.05424C235.255 7.0317 235.157 7.00917 235.052 6.98663C234.689 6.90934 234.313 6.83097 233.923 6.75368C233.824 6.73329 233.718 6.71397 233.615 6.69465C233.313 6.63561 233.003 6.57765 232.684 6.51968C232.531 6.49178 232.374 6.46387 232.218 6.43703C231.93 6.38551 231.635 6.33506 231.333 6.28461C231.172 6.2567 231.008 6.22877 230.843 6.203C230.499 6.14611 230.145 6.09136 229.786 6.03554C229.66 6.01515 229.539 5.9969 229.41 5.97543C228.924 5.90243 228.427 5.82944 227.914 5.75752C227.885 5.75322 227.857 5.74894 227.828 5.74464C227.637 5.71781 227.437 5.68989 227.243 5.6652C227.002 5.63192 226.765 5.59759 226.517 5.56538C226.276 5.53318 226.027 5.4999 225.779 5.4677C225.535 5.43657 225.294 5.40435 225.046 5.37322C224.786 5.34102 224.52 5.30777 224.254 5.27557C224.01 5.24551 223.77 5.21545 223.522 5.18646C223.24 5.15211 222.954 5.11884 222.666 5.08556C222.422 5.05873 222.181 5.02867 221.936 5.00183C221.845 4.9911 221.757 4.98034 221.667 4.97068C221.56 4.95887 221.445 4.94815 221.335 4.93527C220.633 4.85798 219.916 4.77962 219.179 4.70448C219.093 4.69375 219.01 4.68516 218.926 4.67765C218.123 4.59392 217.296 4.51234 216.457 4.43183C216.356 4.42109 216.262 4.41035 216.162 4.40284C216.057 4.39317 215.948 4.38351 215.845 4.37384C215.191 4.31266 214.525 4.25148 213.849 4.1903C213.757 4.18171 213.666 4.17419 213.574 4.16668C212.817 4.09905 212.045 4.03249 211.263 3.96701C211.171 3.95842 211.081 3.94987 210.988 3.94342C210.815 3.9284 210.63 3.91551 210.456 3.90048C209.986 3.86291 209.516 3.82424 209.038 3.78667C208.737 3.76306 208.434 3.73838 208.126 3.71477C207.637 3.6772 207.14 3.63962 206.641 3.60312C206.418 3.58595 206.203 3.56878 205.98 3.55268C205.947 3.55053 205.913 3.54732 205.882 3.54517C205.125 3.48936 204.359 3.43352 203.58 3.38092C203.468 3.37341 203.352 3.36482 203.237 3.3573C202.579 3.31222 201.914 3.26713 201.243 3.22312C201.18 3.21883 201.119 3.21453 201.056 3.20917C200.79 3.19199 200.515 3.17588 200.246 3.15764C199.839 3.1308 199.435 3.10503 199.021 3.0782C198.638 3.05565 198.245 3.03099 197.855 3.00737C197.479 2.98483 197.105 2.96122 196.727 2.93868C196.592 2.93009 196.462 2.92256 196.328 2.91398C196.068 2.89895 195.802 2.885 195.54 2.8689C195.144 2.84636 194.748 2.82379 194.349 2.80125C193.991 2.77978 193.628 2.76049 193.263 2.74009C192.858 2.71755 192.451 2.69391 192.042 2.67244C191.885 2.66493 191.729 2.65528 191.57 2.6467C191.455 2.64025 191.335 2.63486 191.22 2.6295C189.838 2.5565 188.437 2.48352 187.013 2.41375C186.942 2.4116 186.875 2.4073 186.804 2.40408C186.709 2.39872 186.613 2.39442 186.518 2.39013C185.123 2.3225 183.71 2.25809 182.276 2.19475C182.225 2.19261 182.177 2.18941 182.124 2.18833C182.038 2.18404 181.948 2.17973 181.862 2.17651C180.408 2.11317 178.938 2.052 177.448 1.99296C177.427 1.99188 177.406 1.99082 177.385 1.98975C177.33 1.98867 177.273 1.98652 177.219 1.98438C175.816 1.92856 174.396 1.87487 172.96 1.82549C172.882 1.82335 172.806 1.81906 172.727 1.81691C172.698 1.81584 172.665 1.81477 172.634 1.81262C171.259 1.76432 169.864 1.71923 168.461 1.67415C168.341 1.66985 168.225 1.66557 168.106 1.66127C168.016 1.65913 167.924 1.65696 167.831 1.65374C166.531 1.61295 165.222 1.57432 163.899 1.53568C163.809 1.53353 163.723 1.53139 163.635 1.52817C163.463 1.52281 163.285 1.51851 163.113 1.51422C161.997 1.48309 160.875 1.45303 159.743 1.4262C159.619 1.4219 159.499 1.41867 159.375 1.41545C159.318 1.4133 159.26 1.41116 159.204 1.41116C158.004 1.38218 156.798 1.3521 155.582 1.32527C155.538 1.32527 155.494 1.32421 155.45 1.32314C155.315 1.31992 155.177 1.3167 155.038 1.31455C154.077 1.29308 153.113 1.27268 152.142 1.25336C151.951 1.25014 151.767 1.24475 151.577 1.24153C151.348 1.23617 151.115 1.23295 150.884 1.22866C150.366 1.219 149.848 1.20826 149.328 1.20075C149.042 1.19538 148.76 1.18895 148.472 1.18358C148.269 1.18036 148.065 1.17715 147.864 1.175C147.34 1.16534 146.813 1.15569 146.285 1.14817C145.968 1.14388 145.654 1.13743 145.335 1.13313C145.161 1.12991 144.987 1.12777 144.813 1.12455C144.297 1.11811 143.774 1.1095 143.255 1.10306C142.925 1.09769 142.599 1.09235 142.267 1.08806C142.091 1.08591 141.915 1.08374 141.741 1.08052C141.426 1.0773 141.109 1.07302 140.795 1.06873C140.497 1.06551 140.199 1.06228 139.899 1.05799C139.593 1.05369 139.285 1.05153 138.979 1.04724C138.631 1.04295 138.283 1.03868 137.936 1.03653C137.796 1.03438 137.657 1.03224 137.516 1.03224C136.81 1.02365 136.101 1.01719 135.39 1.01075C135.366 1.01075 135.34 1.00969 135.315 1.00862C135.25 1.00862 135.185 1.00862 135.12 1.00862C134.332 1.00003 133.54 0.993576 132.746 0.988209C132.594 0.987136 132.444 0.987146 132.293 0.984999C132.275 0.984999 132.259 0.984999 132.24 0.984999C131.77 0.981778 131.298 0.978563 130.827 0.976416C130.185 0.972122 129.542 0.967835 128.899 0.963542C128.255 0.961395 127.61 0.959235 126.961 0.957088C126.728 0.954941 126.493 0.954951 126.261 0.953878C126.169 0.952804 126.077 0.952797 125.984 0.952797C125.663 0.951723 125.34 0.950635 125.018 0.950635C124.368 0.948488 123.717 0.946343 123.066 0.946343C123.043 0.946343 123.019 0.946343 122.997 0.946343C122.412 0.94527 121.822 0.944214 121.237 0.944214C120.631 0.944214 120.025 0.944189 119.421 0.945262C118.816 0.946336 118.213 0.946358 117.609 0.948505C117.006 0.948505 116.405 0.950642 115.805 0.951716C115.202 0.954936 114.605 0.957071 114.007 0.959218C113.926 0.959218 113.846 0.960299 113.766 0.960299C113.686 0.961372 113.609 0.96138 113.531 0.96138C113.027 0.963526 112.522 0.965661 112.021 0.968881C111.662 0.969955 111.306 0.973196 110.949 0.976416C110.788 0.976416 110.626 0.976398 110.465 0.978545C110.26 0.979619 110.049 0.98069 109.84 0.982837C109.116 0.98713 108.393 0.992513 107.671 0.998954C107.656 0.998954 107.642 1.00004 107.625 1.00004C107.598 1.00004 107.57 1.00004 107.541 1.00004C106.863 1.00648 106.188 1.01077 105.513 1.01828C105.267 1.0215 105.024 1.02364 104.778 1.02578C104.621 1.02686 104.464 1.029 104.305 1.03008C103.984 1.03437 103.66 1.03653 103.34 1.04082C103.145 1.04297 102.955 1.0451 102.76 1.04832C101.646 1.06013 100.537 1.0741 99.4329 1.08806C99.2354 1.09128 99.0367 1.09341 98.837 1.09556C98.7822 1.09556 98.7253 1.09772 98.6695 1.09772C97.382 1.11704 96.1042 1.13528 94.834 1.15675C94.6869 1.1589 94.5387 1.16104 94.3937 1.16426C93.8343 1.17392 93.2759 1.18251 92.7197 1.19217C92.5941 1.19431 92.4706 1.19647 92.3418 1.19862C91.138 1.22116 89.9408 1.24478 88.7489 1.2684C88.445 1.27484 88.1433 1.28126 87.8405 1.28877C86.5573 1.31346 85.2774 1.34352 84.0135 1.3725C83.9566 1.37465 83.9019 1.37572 83.846 1.3768C83.4079 1.38753 82.9752 1.39933 82.5414 1.40792C82.0818 1.4208 81.6244 1.43048 81.1702 1.44336C81.0821 1.44551 80.9898 1.44764 80.9017 1.44978C80.4529 1.46159 80.0105 1.47342 79.5638 1.48523C79.1762 1.49704 78.7853 1.50669 78.3977 1.51635C78.2613 1.52064 78.1228 1.52493 77.9886 1.52922C77.5612 1.53996 77.1371 1.55286 76.7119 1.56467C76.3243 1.57755 75.9355 1.5872 75.5501 1.60008C75.4642 1.60223 75.3761 1.60436 75.2902 1.60758C74.5643 1.63012 73.8427 1.65161 73.1255 1.67415C72.4082 1.69669 71.6952 1.72139 70.9844 1.74501C70.8673 1.7493 70.7514 1.75359 70.6343 1.75788C70.4625 1.76325 70.2929 1.76968 70.12 1.77505C69.7001 1.79007 69.2792 1.80405 68.8636 1.81907C68.6983 1.82551 68.5362 1.83193 68.3708 1.83837C68.0057 1.85125 67.6385 1.86308 67.2755 1.87811C67.0908 1.88455 66.9062 1.89097 66.7236 1.89848C66.4595 1.90814 66.1996 1.91889 65.9376 1.92855C65.5704 1.94144 65.2032 1.95539 64.8392 1.97042C64.7243 1.97471 64.604 1.979 64.4891 1.98329C64.0424 2.00047 63.6022 2.01874 63.1598 2.03699C62.9547 2.0445 62.7442 2.05414 62.537 2.06165C62.4532 2.06487 62.3652 2.06918 62.2814 2.0724C61.5491 2.10246 60.8243 2.13358 60.1006 2.16363C59.262 2.20013 58.4287 2.2377 57.603 2.27527C57.4773 2.28064 57.3539 2.28708 57.2271 2.29352C56.4809 2.3268 55.7378 2.36221 55.0023 2.39871C54.954 2.40086 54.9057 2.40302 54.8574 2.40516C54.6222 2.41697 54.3935 2.42769 54.1615 2.44058C53.5763 2.46956 52.9911 2.49749 52.4145 2.52647C52.3307 2.53184 52.2449 2.5372 52.1611 2.54043C52.0161 2.54794 51.8733 2.55652 51.7294 2.56296C50.8758 2.60697 50.0307 2.65207 49.1964 2.69823C49.0536 2.70681 48.9065 2.71325 48.7648 2.72076C48.6874 2.72506 48.6133 2.72934 48.536 2.73364C47.4622 2.79482 46.4014 2.85385 45.3566 2.91719C45.2793 2.92255 45.1977 2.92685 45.1193 2.93114C45.0141 2.93758 44.9174 2.94403 44.8154 2.95047C43.4818 3.03205 42.1707 3.11364 40.8854 3.19737C40.8392 3.19952 40.7909 3.20381 40.7447 3.20596C40.5622 3.21884 40.3861 3.23065 40.2036 3.24353C39.6957 3.27681 39.1888 3.31113 38.6895 3.34656C38.3985 3.36588 38.1107 3.38631 37.8208 3.4067C37.3849 3.43676 36.9479 3.46894 36.5184 3.50007C36.3594 3.51187 36.1951 3.52261 36.0362 3.53335C35.8827 3.54623 35.7388 3.5559 35.5852 3.56663C35.0612 3.60635 34.5405 3.64498 34.0251 3.68578C33.7835 3.70402 33.5408 3.72119 33.3013 3.74052C31.7852 3.85967 30.3087 3.98204 28.8806 4.10548C28.7002 4.12266 28.5241 4.1377 28.348 4.1538C27.8154 4.19996 27.2893 4.24826 26.7706 4.29657C26.6783 4.30515 26.5838 4.31375 26.4914 4.32127C26.3615 4.33307 26.2402 4.3438 26.1113 4.35668C25.6754 4.39747 25.2469 4.43828 24.8217 4.48015C24.5866 4.50269 24.3503 4.5263 24.1152 4.54884C23.7319 4.58641 23.3517 4.62505 22.9737 4.6637C22.7934 4.68302 22.6065 4.70019 22.4283 4.71844C22.351 4.72702 22.2769 4.73562 22.1996 4.74314C21.8699 4.77749 21.5478 4.81183 21.2224 4.84832C20.969 4.87516 20.7102 4.90307 20.4611 4.93098C20.1132 4.96962 19.775 5.00827 19.4357 5.04691C19.236 5.06945 19.0309 5.09306 18.8333 5.1156C18.814 5.11775 18.7957 5.11991 18.7742 5.12206C18.6819 5.13279 18.5938 5.14461 18.5015 5.15534C17.723 5.24766 16.9681 5.33996 16.2347 5.4355C16.079 5.45482 15.9201 5.47414 15.7687 5.49561C15.7558 5.49668 15.744 5.49775 15.7311 5.4999C15.4316 5.53962 15.1416 5.57933 14.8506 5.61904C14.6831 5.64159 14.5113 5.66415 14.347 5.68669C14.1881 5.70923 14.0346 5.73284 13.8767 5.75431C13.5686 5.79832 13.2604 5.84235 12.9619 5.88636C12.5463 5.94754 12.1394 6.00873 11.7432 6.07099C11.6616 6.08387 11.5821 6.09674 11.4973 6.11069C11.1848 6.16114 10.8702 6.20946 10.5685 6.26099C10.5534 6.26421 10.5395 6.26634 10.5223 6.26849C10.4611 6.27922 10.4031 6.28995 10.3419 6.29961C10.0251 6.35221 9.71478 6.40695 9.41305 6.46062C9.28098 6.48316 9.15536 6.50678 9.02543 6.5304C8.84074 6.56367 8.65177 6.59803 8.47137 6.63238C8.43164 6.63989 8.39618 6.6474 8.35645 6.65491C8.22223 6.6796 8.09448 6.70537 7.9624 6.73006C7.75731 6.77193 7.55112 6.81166 7.35247 6.85245C7.22255 6.87821 7.09694 6.90613 6.97131 6.93189C6.85212 6.95658 6.72541 6.9834 6.61052 7.00809C6.54287 7.02312 6.48271 7.03708 6.41721 7.05103C6.29373 7.07787 6.17132 7.10685 6.05213 7.13369C5.88248 7.17233 5.71284 7.21098 5.5507 7.2507C5.43152 7.27968 5.31553 7.30757 5.20063 7.33548C5.13513 7.35158 5.06426 7.36771 5.00091 7.38488C4.90856 7.40742 4.82484 7.43211 4.73679 7.45358C4.62941 7.48256 4.52094 7.51048 4.42001 7.53839C4.26431 7.58133 4.11612 7.62317 3.96901 7.66504C3.88096 7.6908 3.79078 7.71658 3.70702 7.74127C3.67803 7.74985 3.64367 7.7595 3.61468 7.76701L3.61684 7.76918L3.61468 7.76701C3.48905 7.80458 3.37092 7.8443 3.25173 7.88295C3.18408 7.90549 3.11322 7.9259 3.04879 7.94951C2.85766 8.01285 2.67512 8.07725 2.50332 8.14273C2.48829 8.14809 2.47218 8.15347 2.45715 8.15776C2.27246 8.22861 2.09851 8.29945 1.9353 8.36922C1.88913 8.39069 1.8494 8.40894 1.80537 8.42933C1.70873 8.47227 1.6121 8.5152 1.52405 8.55814C1.50687 8.56673 1.4972 8.57425 1.48217 8.58176C1.42741 8.60752 1.38121 8.63545 1.33075 8.66228C1.24699 8.70629 1.16539 8.75138 1.0913 8.79646C1.04298 8.82545 0.998976 8.8555 0.954951 8.88449C0.913074 8.91132 0.864751 8.93923 0.825022 8.96822C0.805694 8.98325 0.791723 8.9961 0.772395 9.01113C0.72837 9.04548 0.688651 9.0777 0.648921 9.11098C0.602749 9.15177 0.556574 9.19254 0.518992 9.23334C0.483557 9.26661 0.453478 9.30096 0.424486 9.33531C0.407306 9.35786 0.382617 9.37933 0.365437 9.4008C0.356846 9.41368 0.356856 9.42548 0.348266 9.43729C0.280618 9.5382 0.226919 9.63803 0.203296 9.73786C0.192558 9.77435 0.188272 9.81087 0.186125 9.84737C0.181829 9.88065 0.1904 9.91498 0.192547 9.94719C0.194695 9.97188 0.19256 9.99655 0.199003 10.0191C0.211888 10.0975 0.236575 10.1748 0.276305 10.252C12.8781 34.1501 25.4832 58.0407 38.0871 81.9377C38.0979 81.9592 38.1161 81.9796 38.1311 82.0032C38.1462 82.0268 38.1601 82.0494 38.1816 82.0719C38.1902 82.0848 38.1967 82.0913 38.2031 82.1009C38.2203 82.1181 38.2407 82.1342 38.2579 82.1535C38.2579 82.1535 38.26 82.1535 38.26 82.1557C38.2847 82.1803 38.3062 82.2018 38.333 82.2265C38.3481 82.2372 38.362 82.249 38.377 82.2598C38.3996 82.2791 38.4275 82.2995 38.4544 82.3188C38.4791 82.3381 38.5048 82.3585 38.536 82.3779C38.5553 82.3929 38.5821 82.4068 38.6036 82.4197C38.6369 82.4423 38.6713 82.4616 38.7067 82.4809C38.7335 82.4981 38.7572 82.5142 38.7862 82.5292C38.8173 82.5464 38.8549 82.5625 38.8893 82.5818C38.929 82.6033 38.9709 82.6215 39.0127 82.6451C39.0374 82.6559 39.061 82.6677 39.0857 82.6805C39.1319 82.6999 39.1824 82.7224 39.2307 82.7417C39.279 82.7632 39.3273 82.7836 39.3778 82.8051C39.3971 82.8115 39.4133 82.8223 39.4347 82.8298C39.4981 82.8545 39.5689 82.8781 39.6377 82.9028C39.6903 82.9242 39.7407 82.9425 39.7944 82.964C39.8052 82.9682 39.8159 82.9725 39.8277 82.9747C39.8782 82.994 39.933 83.0101 39.9845 83.0273C40.036 83.0444 40.0897 83.0627 40.1456 83.0799C40.1831 83.0928 40.2164 83.1046 40.2572 83.1175C40.2615 83.1196 40.2658 83.1196 40.2701 83.1196C40.3388 83.1443 40.4172 83.1658 40.4903 83.1872C40.5804 83.2141 40.6663 83.2398 40.7608 83.2667C40.7694 83.2688 40.778 83.271 40.7855 83.2731C40.8296 83.286 40.8757 83.2956 40.9198 83.3107C40.9487 83.3171 40.9788 83.3257 41.0099 83.3321C41.1044 83.3568 41.1968 83.3848 41.2977 83.4094C41.3192 83.4159 41.3417 83.4223 41.3632 83.4288C41.4384 83.4459 41.5189 83.4642 41.5962 83.4856C41.6907 83.5071 41.7831 83.5297 41.8797 83.5533C41.9173 83.5619 41.9549 83.5704 41.9925 83.5779C42.0741 83.5973 42.16 83.6177 42.2437 83.6348C42.3318 83.6542 42.4155 83.6746 42.5057 83.6939C42.5605 83.7068 42.6174 83.7164 42.6732 83.7293C42.7591 83.7486 42.8493 83.7669 42.9374 83.7841C43.0168 83.7991 43.0963 83.8173 43.1768 83.8324C43.2498 83.8495 43.3261 83.8614 43.3991 83.8764C43.4914 83.8957 43.5859 83.9118 43.6804 83.9333C43.7491 83.944 43.8211 83.9579 43.892 83.9708C43.9865 83.988 44.0831 84.0063 44.1797 84.0234C44.2742 84.0406 44.3687 84.0589 44.4654 84.076C44.5266 84.0846 44.5888 84.0975 44.65 84.1072C44.7671 84.1286 44.8852 84.1469 45.0022 84.1662C45.101 84.1855 45.1977 84.2016 45.2975 84.2188C45.348 84.2253 45.4027 84.236 45.4532 84.2413C45.5788 84.2628 45.7088 84.2811 45.8366 84.3047C45.9397 84.3197 46.0384 84.338 46.1426 84.353C46.2038 84.3616 46.2682 84.3723 46.3316 84.382C46.4529 84.3992 46.5775 84.4174 46.6988 84.4367C46.8223 84.4539 46.9426 84.4721 47.066 84.4893C47.1348 84.5022 47.2067 84.5108 47.2776 84.5205C47.3828 84.5355 47.4913 84.5494 47.5986 84.5645C47.7436 84.5859 47.8886 84.6063 48.0346 84.6256C48.1141 84.6385 48.1913 84.6482 48.2719 84.6589C48.3578 84.6697 48.448 84.6804 48.5339 84.6922C48.7036 84.7148 48.8753 84.7362 49.0493 84.7609C49.2125 84.7802 49.3811 84.8006 49.5465 84.8221C49.7183 84.8435 49.8922 84.8682 50.0683 84.8897C50.1585 84.9005 50.2466 84.9112 50.3389 84.9208C50.4334 84.9337 50.5322 84.9434 50.6299 84.9562C50.791 84.9734 50.9552 84.9938 51.1185 85.0132C51.2312 85.026 51.345 85.04 51.4599 85.0507C51.5501 85.0615 51.6446 85.0722 51.737 85.084C51.8927 85.1012 52.0516 85.1173 52.2083 85.1345C52.3469 85.1516 52.4854 85.1656 52.6261 85.1806C52.7163 85.1913 52.8086 85.2021 52.9009 85.2096C53.0351 85.2246 53.1758 85.2386 53.3122 85.2515C53.484 85.2708 53.6536 85.289 53.8276 85.3062C53.9028 85.3148 53.979 85.3234 54.0542 85.3288C54.197 85.3438 54.3441 85.3556 54.488 85.3727C54.6533 85.3878 54.8219 85.4039 54.9916 85.4211C55.0925 85.4318 55.1913 85.4404 55.2933 85.4501C55.4468 85.4651 55.6015 85.479 55.7572 85.494C55.9021 85.5091 56.0449 85.5209 56.191 85.5338C56.3252 85.5467 56.4573 85.5585 56.5915 85.5714C56.7483 85.5864 56.9061 85.5982 57.0629 85.6132C57.1842 85.6239 57.3045 85.6358 57.4258 85.6443C57.589 85.6615 57.7555 85.6733 57.923 85.6883C58.0819 85.7034 58.244 85.7152 58.4051 85.7302C58.5082 85.7388 58.6102 85.7474 58.7133 85.757C58.9022 85.7742 59.0934 85.7882 59.2834 85.8032C59.4552 85.8182 59.627 85.8322 59.801 85.8451C59.8719 85.8515 59.946 85.8579 60.0168 85.8644C60.2477 85.8837 60.485 85.902 60.7191 85.9191C60.8866 85.9342 61.0552 85.946 61.2248 85.9589C61.2689 85.9632 61.3129 85.9653 61.3569 85.9696C61.6586 85.9921 61.9647 86.0158 62.2696 86.0383C62.4285 86.049 62.5842 86.0608 62.7432 86.0737C63.0911 86.0984 63.4454 86.122 63.7997 86.1467C63.9125 86.1553 64.0263 86.1639 64.1412 86.1714C64.1702 86.1736 64.2024 86.1757 64.2314 86.1778C64.24 86.18 64.2486 86.18 64.2582 86.18C64.619 86.2025 64.9863 86.2304 65.3535 86.253C65.433 86.2594 65.5092 86.2637 65.5865 86.2701C65.6477 86.2744 65.71 86.2766 65.7733 86.2831C65.899 86.2916 66.0267 86.2981 66.1535 86.3077C66.5497 86.3324 66.9502 86.3582 67.3529 86.3829C67.5118 86.3936 67.6761 86.4043 67.8371 86.414C68.0862 86.429 68.3364 86.4451 68.5898 86.4601C68.6317 86.4623 68.6779 86.4623 68.7198 86.4666C68.8014 86.473 68.883 86.4773 68.9635 86.4816C69.0387 86.4881 69.1128 86.4924 69.1901 86.4945C69.232 86.4988 69.2738 86.5009 69.3157 86.5031C69.5863 86.5203 69.8569 86.5364 70.1296 86.5514C70.237 86.5579 70.3455 86.5643 70.4528 86.5707C70.8641 86.5933 71.2775 86.6169 71.6941 86.6394C71.8477 86.648 72.0023 86.6566 72.158 86.6641C72.5295 86.6834 72.9021 86.7038 73.2801 86.7232C73.4691 86.7339 73.6613 86.7446 73.8524 86.7521C74.2003 86.7714 74.5482 86.7875 74.9015 86.8069C75.1087 86.8176 75.3192 86.8283 75.5264 86.8359C75.8636 86.853 76.1997 86.8691 76.539 86.8863C76.6507 86.8885 76.7591 86.8949 76.8708 86.9013C76.9127 86.9035 76.9503 86.9056 76.99 86.9078C77.0823 86.9121 77.1747 86.9142 77.2649 86.9185C77.5838 86.9357 77.9048 86.9475 78.2259 86.9625C78.4482 86.9711 78.6726 86.9819 78.8949 86.9915C79.2363 87.0066 79.581 87.0205 79.9246 87.0355C80.0234 87.042 80.12 87.0463 80.2177 87.0506C80.3144 87.0527 80.4132 87.057 80.5087 87.0613C80.5377 87.0613 80.5678 87.0634 80.5989 87.0656C80.9533 87.0806 81.3098 87.0924 81.6684 87.1096C81.895 87.1182 82.1237 87.1268 82.3524 87.1364C82.696 87.1493 83.0428 87.1633 83.3929 87.174C83.4788 87.1783 83.5669 87.1826 83.6528 87.1847C83.6721 87.1869 83.6882 87.1869 83.7075 87.189C83.7644 87.189 83.8246 87.1933 83.8815 87.1955C83.9717 87.1955 84.0619 87.1998 84.1521 87.2041C84.4935 87.2169 84.8361 87.2287 85.1775 87.2395C85.4266 87.2502 85.6768 87.2588 85.9259 87.2663C86.2137 87.277 86.5047 87.2856 86.7946 87.2953C86.8472 87.2974 86.8998 87.2996 86.9514 87.3018C86.9621 87.3018 86.9729 87.3018 86.9825 87.3018C87.2338 87.3082 87.4883 87.3189 87.7417 87.3264C88.0918 87.3372 88.4439 87.349 88.7961 87.3597C89.0603 87.3683 89.3223 87.3769 89.5886 87.3844C89.9386 87.3951 90.2908 87.4059 90.643 87.4155C90.9115 87.422 91.1799 87.4305 91.4484 87.4381C91.7941 87.4467 92.142 87.4574 92.4931 87.4649C92.6982 87.4713 92.9044 87.4757 93.1095 87.4821C93.1449 87.4842 93.1804 87.4842 93.2169 87.4842C93.2609 87.4864 93.3049 87.4885 93.3489 87.4885C93.6904 87.4992 94.0329 87.5057 94.3765 87.5153C94.6622 87.5218 94.9467 87.5304 95.2323 87.5347C95.5298 87.5433 95.8283 87.5518 96.1279 87.5572C96.1783 87.5594 96.2288 87.5594 96.2793 87.5594C96.3319 87.5615 96.3845 87.5615 96.436 87.5637C96.6755 87.5701 96.9139 87.5765 97.1533 87.5808C97.5163 87.5894 97.8792 87.5959 98.2421 87.6034C98.5213 87.6098 98.7984 87.6163 99.0765 87.6206C99.4544 87.6292 99.8335 87.6356 100.214 87.6431C100.491 87.6474 100.768 87.6538 101.044 87.6581C101.419 87.6646 101.796 87.6731 102.174 87.6774C102.456 87.6839 102.736 87.6882 103.017 87.6946C103.403 87.7011 103.791 87.7054 104.179 87.7118C104.456 87.7161 104.733 87.7204 105.009 87.7247C105.275 87.729 105.544 87.7311 105.812 87.7354C105.819 87.7354 105.829 87.7354 105.837 87.7354C105.952 87.7376 106.07 87.7397 106.185 87.7418C106.468 87.7461 106.751 87.7505 107.034 87.7547C107.414 87.759 107.793 87.7612 108.176 87.7655C108.448 87.7698 108.719 87.7741 108.99 87.7762C109.034 87.7762 109.073 87.7762 109.115 87.7784C109.135 87.7784 109.153 87.7784 109.172 87.7784C109.531 87.7827 109.894 87.7869 110.252 87.7891C110.538 87.7912 110.82 87.7934 111.106 87.7955C111.5 87.802 111.896 87.8041 112.291 87.8084C112.587 87.8084 112.883 87.8106 113.178 87.8149C113.598 87.817 114.019 87.8191 114.441 87.8213C114.707 87.8234 114.974 87.8234 115.242 87.8256C115.517 87.8277 115.796 87.8277 116.07 87.8299C116.099 87.8299 116.127 87.8299 116.154 87.8299C116.227 87.8299 116.301 87.8299 116.374 87.832C116.445 87.832 116.515 87.832 116.585 87.832C116.837 87.8342 117.089 87.8342 117.34 87.8342C118.036 87.8384 118.735 87.8385 119.435 87.8406C120.855 87.8406 122.267 87.8406 123.671 87.8385C123.783 87.8385 123.894 87.8363 124.005 87.8363C124.014 87.8363 124.022 87.8363 124.028 87.8363C124.043 87.8363 124.057 87.8363 124.072 87.8363C124.181 87.8363 124.29 87.8363 124.399 87.8342C124.863 87.8342 125.328 87.832 125.792 87.8299C125.981 87.8277 126.17 87.8277 126.358 87.8277C126.859 87.8234 127.365 87.8213 127.865 87.8192C128.103 87.817 128.336 87.817 128.57 87.8149C128.643 87.8127 128.717 87.8127 128.788 87.8127C129.173 87.8105 129.562 87.8084 129.945 87.8041C130.183 87.802 130.417 87.7998 130.652 87.7955C131.103 87.7912 131.556 87.7891 132.005 87.7848C132.256 87.7826 132.506 87.7805 132.758 87.7762C132.854 87.7762 132.951 87.7741 133.047 87.7719C133.111 87.7719 133.177 87.7719 133.241 87.7719C133.298 87.7719 133.353 87.7698 133.41 87.7698C133.622 87.7655 133.835 87.7633 134.044 87.7612C134.317 87.759 134.587 87.7569 134.86 87.7505C135.26 87.7462 135.663 87.7397 136.064 87.7333C136.332 87.7311 136.601 87.729 136.869 87.7247C136.99 87.7225 137.113 87.7204 137.232 87.7183C137.52 87.714 137.804 87.7096 138.09 87.7053C138.323 87.701 138.554 87.6968 138.784 87.6946C139.222 87.686 139.66 87.6775 140.097 87.6721C140.302 87.6678 140.506 87.6635 140.709 87.6592C140.793 87.657 140.876 87.657 140.96 87.6549C141.325 87.6485 141.695 87.642 142.056 87.6356C142.31 87.6291 142.56 87.6227 142.811 87.6184C143.21 87.612 143.608 87.6012 144.004 87.5937C144.174 87.5916 144.34 87.5873 144.51 87.583C144.523 87.583 144.535 87.583 144.548 87.583C144.616 87.5808 144.684 87.5787 144.755 87.5765C145.155 87.5679 145.556 87.5593 145.956 87.5518C146.194 87.5454 146.428 87.539 146.663 87.5325C147.063 87.524 147.466 87.5132 147.867 87.5035C148.11 87.4971 148.353 87.4907 148.599 87.4842C148.987 87.4756 149.375 87.4628 149.759 87.4531C150.006 87.4467 150.249 87.4402 150.495 87.4316C150.876 87.4187 151.261 87.4101 151.64 87.4005C151.864 87.3919 152.087 87.3855 152.311 87.379C152.366 87.3769 152.421 87.3747 152.476 87.3726C152.818 87.364 153.16 87.3511 153.5 87.3415C153.728 87.335 153.955 87.3286 154.184 87.3189C154.565 87.306 154.945 87.2964 155.323 87.2813C155.554 87.2749 155.785 87.2663 156.013 87.2588C156.17 87.2524 156.326 87.2481 156.484 87.2438C156.506 87.2416 156.53 87.2416 156.552 87.2395C156.743 87.2309 156.936 87.2266 157.125 87.2202C157.362 87.2116 157.595 87.2008 157.829 87.1933C158.192 87.1804 158.555 87.1665 158.918 87.1515C159.138 87.1429 159.358 87.1343 159.576 87.1268C159.943 87.1117 160.308 87.0978 160.671 87.0828C160.896 87.0763 161.118 87.0656 161.342 87.0559C161.699 87.0409 162.055 87.0269 162.412 87.0098C162.619 87.0012 162.825 86.9926 163.033 86.9851C163.4 86.9658 163.767 86.9518 164.129 86.9346C164.332 86.926 164.532 86.9175 164.735 86.9078C165.089 86.8906 165.443 86.8745 165.795 86.8573C166.005 86.8488 166.217 86.8359 166.427 86.8284C166.766 86.809 167.104 86.7951 167.442 86.7757C167.657 86.7672 167.873 86.7543 168.09 86.7446C168.413 86.7274 168.736 86.7113 169.054 86.6942C169.27 86.6834 169.484 86.6716 169.699 86.6588C170.024 86.6416 170.347 86.6233 170.667 86.6062C170.707 86.604 170.749 86.6018 170.791 86.5997C170.946 86.5911 171.099 86.5804 171.257 86.5729C171.588 86.5535 171.917 86.5353 172.242 86.516C172.434 86.5052 172.62 86.4935 172.808 86.4827C173.092 86.4634 173.374 86.4494 173.655 86.4322C173.724 86.4279 173.796 86.4215 173.865 86.4172C174.022 86.4086 174.175 86.4 174.331 86.3882C174.652 86.3689 174.973 86.3485 175.29 86.327C175.472 86.3163 175.655 86.3045 175.835 86.2916C176.079 86.2766 176.322 86.2605 176.563 86.2455C176.59 86.2433 176.618 86.2412 176.647 86.239C176.71 86.2326 176.775 86.2304 176.84 86.2262C176.996 86.2133 177.148 86.2036 177.304 86.1929C177.608 86.1714 177.912 86.151 178.215 86.1295C178.228 86.1274 178.237 86.1274 178.248 86.1274C178.298 86.1231 178.351 86.1188 178.399 86.1167C178.511 86.1081 178.62 86.0995 178.729 86.092C179.029 86.0705 179.329 86.0501 179.625 86.0265C179.746 86.0157 179.868 86.0072 179.99 85.9997C180.073 85.9932 180.157 85.9846 180.241 85.9782C180.499 85.961 180.753 85.9406 181.009 85.9191C181.165 85.9084 181.323 85.8966 181.48 85.8859C181.587 85.873 181.696 85.8666 181.803 85.8569C181.992 85.844 182.179 85.8279 182.365 85.8129C182.518 85.8 182.669 85.7882 182.822 85.7753C182.972 85.7603 183.124 85.7485 183.273 85.7377C183.288 85.7356 183.302 85.7356 183.317 85.7334C183.346 85.7313 183.372 85.7291 183.401 85.7248C183.489 85.7184 183.575 85.712 183.663 85.7023C183.819 85.6916 183.971 85.6776 184.125 85.6647C184.398 85.64 184.668 85.6164 184.937 85.5917C185.09 85.5789 185.245 85.5649 185.396 85.5499C185.528 85.5391 185.665 85.5273 185.794 85.5145C185.801 85.5145 185.807 85.5123 185.814 85.5123C185.935 85.5016 186.051 85.4908 186.168 85.479C186.322 85.464 186.47 85.4501 186.619 85.435C186.879 85.4103 187.137 85.3846 187.391 85.3599C187.528 85.347 187.662 85.333 187.796 85.3223C187.906 85.3094 188.018 85.2976 188.126 85.2869C188.134 85.2869 188.141 85.2869 188.145 85.2869C188.149 85.2869 188.149 85.2847 188.154 85.2847C188.29 85.2697 188.422 85.2579 188.558 85.2429C188.69 85.2279 188.823 85.216 188.955 85.201C189.2 85.1742 189.443 85.1484 189.685 85.1216C189.798 85.1087 189.909 85.0969 190.022 85.084C190.09 85.0754 190.154 85.069 190.219 85.0615C190.408 85.0421 190.591 85.0196 190.776 84.9981C190.899 84.9831 191.022 84.9691 191.145 84.9562C191.374 84.9273 191.598 84.9015 191.823 84.8726C191.884 84.8661 191.95 84.8575 192.012 84.8511C192.069 84.8425 192.117 84.8382 192.173 84.8296C192.177 84.8296 192.181 84.8274 192.186 84.8274C192.404 84.8006 192.619 84.7727 192.832 84.7459C192.949 84.7308 193.069 84.7169 193.186 84.6997C193.312 84.6825 193.442 84.6664 193.568 84.6493C193.651 84.6364 193.735 84.6246 193.819 84.6138C193.926 84.5988 194.035 84.5849 194.14 84.5698C194.342 84.543 194.536 84.5129 194.734 84.484C194.841 84.4689 194.949 84.4528 195.055 84.4378C195.074 84.4357 195.09 84.4313 195.107 84.4292C195.136 84.4249 195.171 84.4206 195.198 84.4163C195.208 84.4163 195.217 84.4142 195.224 84.412C195.361 84.3927 195.491 84.3702 195.623 84.3508C195.726 84.3358 195.828 84.3197 195.927 84.3047C196.113 84.2757 196.294 84.2435 196.474 84.2145C196.474 84.2145 196.476 84.2145 196.479 84.2145C196.523 84.2081 196.569 84.1995 196.615 84.192C196.661 84.1855 196.707 84.177 196.756 84.1694C196.932 84.1383 197.106 84.1082 197.277 84.0793C197.368 84.0621 197.458 84.0481 197.544 84.0309C197.634 84.0159 197.724 83.9977 197.812 83.9827C197.827 83.9805 197.841 83.9762 197.854 83.9762C197.883 83.9698 197.909 83.9655 197.938 83.959C197.969 83.9526 197.999 83.9461 198.03 83.9397C198.118 83.9247 198.206 83.9086 198.29 83.8914C198.444 83.8603 198.594 83.8302 198.741 83.8012C198.816 83.7862 198.892 83.7701 198.965 83.7551C198.994 83.7486 199.022 83.7444 199.051 83.7379C199.177 83.7132 199.297 83.6831 199.419 83.6563C199.492 83.6413 199.57 83.6252 199.641 83.608C199.752 83.5833 199.859 83.5576 199.964 83.535C199.995 83.5265 200.029 83.52 200.058 83.5135C200.08 83.5071 200.096 83.5028 200.118 83.4964C200.164 83.4835 200.21 83.4738 200.254 83.4631C200.377 83.432 200.496 83.4019 200.615 83.3708C200.682 83.3536 200.751 83.3375 200.818 83.3182C200.87 83.301 200.925 83.2892 200.979 83.272C201.012 83.2634 201.044 83.2548 201.078 83.2452C201.1 83.2366 201.124 83.2301 201.146 83.2259C201.207 83.2065 201.27 83.1904 201.329 83.1711C201.434 83.14 201.534 83.1078 201.633 83.0745C201.683 83.0573 201.738 83.0434 201.788 83.0262C201.803 83.0219 201.819 83.0176 201.832 83.0112C201.839 83.009 201.843 83.0069 201.85 83.0047C201.925 82.9779 201.995 82.9521 202.065 82.9275C202.116 82.9081 202.168 82.8899 202.217 82.8706C202.301 82.8394 202.376 82.8072 202.452 82.7761C202.485 82.7632 202.521 82.7514 202.553 82.7364C202.566 82.7299 202.575 82.7256 202.588 82.7192C202.661 82.6881 202.725 82.6559 202.79 82.6247C202.83 82.6054 202.87 82.5872 202.905 82.5679C202.966 82.5389 203.022 82.5045 203.077 82.4734C203.083 82.4691 203.09 82.4648 203.096 82.4605C203.105 82.4541 203.121 82.4476 203.132 82.4433C203.134 82.4412 203.138 82.4369 203.142 82.4347C203.153 82.4283 203.165 82.4197 203.176 82.4133C203.226 82.3821 203.27 82.3499 203.312 82.3188C203.339 82.2973 203.369 82.277 203.394 82.2576C203.416 82.2405 203.433 82.2243 203.453 82.205C203.47 82.1921 203.482 82.1782 203.497 82.1632C203.497 82.1632 203.497 82.1632 203.499 82.1632C203.52 82.1417 203.541 82.1234 203.56 82.102C203.589 82.0687 203.611 82.0365 203.633 82.0054C203.646 81.986 203.662 81.9656 203.675 81.9442C203.677 81.9399 203.681 81.9356 203.684 81.9313L228.697 34.5065C228.909 34.1061 229.117 33.709 229.329 33.3096L230.961 30.217C232.391 27.5066 233.801 24.8337 235.181 22.2188L236.357 19.9871C237.68 17.4795 238.971 15.031 240.223 12.6587L241.497 10.2456C241.53 10.179 241.558 10.1136 241.572 10.047C241.597 9.96649 241.595 9.87849 241.582 9.79047Z" fill="#3600F0"/>
<path d="M241.574 10.0543C240.41 14.9975 185.436 18.9349 118.783 18.8479C52.1299 18.762 -0.959645 14.6851 0.204327 9.74188C1.3683 4.79974 56.3444 0.86344 122.996 0.949316C189.647 1.03519 242.738 5.11213 241.574 10.0543Z" fill="#3600F0"/>
<path d="M241.574 10.0543C240.41 14.9975 185.436 18.9349 118.783 18.8479C52.1299 18.762 -0.959645 14.6851 0.204327 9.74188C1.3683 4.79974 56.3444 0.86344 122.996 0.949316C189.647 1.03519 242.738 5.11213 241.574 10.0543Z" fill="#1C0370" fill-opacity="0.5"/>
</svg>