<svg width="108" height="142" viewBox="0 0 108 142" fill="none" xmlns="http://www.w3.org/2000/svg">
<path d="M78.6642 19.002H84.3622C96.2854 19.002 105.952 25.2162 105.952 32.8807V126.565C105.952 134.229 96.2854 140.443 84.3622 140.443H23.6415C11.7164 140.443 2.04828 134.229 2.04828 126.565V32.8807C2.04828 25.2162 11.7164 19.002 23.6415 19.002H27.7892" stroke="#222526" stroke-width="3" stroke-miterlimit="10"/>
<path d="M26.4017 33.3155V12.527H40.2767C40.2767 12.527 42.136 1.55655 53.2304 1.55655C64.3267 1.55655 64.3267 13.452 64.3267 13.452H78.6642V33.3155H26.4017Z" stroke="#222526" stroke-width="3" stroke-miterlimit="10" stroke-linecap="round" stroke-linejoin="round"/>
<path d="M18.0767 55.1936L26.4017 63.9811L38.8892 49.6436" stroke="#222526" stroke-width="3" stroke-miterlimit="10" stroke-linecap="round" stroke-linejoin="round"/>
<path d="M47.6767 56.8123H88.8392" stroke="#222526" stroke-width="3" stroke-miterlimit="10" stroke-linecap="round" stroke-linejoin="round"/>
<path d="M18.0767 82.0223L26.4017 90.8098L38.8892 76.4723" stroke="#222526" stroke-width="3" stroke-miterlimit="10" stroke-linecap="round" stroke-linejoin="round"/>
<path d="M47.6767 83.6411H88.8392" stroke="#222526" stroke-width="3" stroke-miterlimit="10" stroke-linecap="round" stroke-linejoin="round"/>
<path d="M18.0767 108.76L26.4017 117.548L38.8892 103.21" stroke="#222526" stroke-width="3" stroke-miterlimit="10" stroke-linecap="round" stroke-linejoin="round"/>
<path d="M47.6767 110.379H88.8392" stroke="#222526" stroke-width="3" stroke-miterlimit="10" stroke-linecap="round" stroke-linejoin="round"/>
</svg>