<svg width="86" height="87" viewBox="0 0 86 87" fill="none" xmlns="http://www.w3.org/2000/svg">
<path d="M18.8659 62.2802C25.3759 62.2802 30.6533 57.4419 30.6533 51.4736C30.6533 45.5053 25.3759 40.667 18.8659 40.667C12.3559 40.667 7.07844 45.5053 7.07844 51.4736C7.07844 57.4419 12.3559 62.2802 18.8659 62.2802Z" stroke="#222526" stroke-width="2" stroke-miterlimit="10"/>
<path d="M36.454 70.1083V85.4422H1.27772C1.27772 85.4422 1.27772 75.3473 1.27772 69.7351C1.27772 69.7351 9.01284 62.2789 18.8671 62.2789C28.7177 62.2789 36.454 70.1083 36.454 70.1083Z" stroke="#222526" stroke-width="2" stroke-miterlimit="10" stroke-linejoin="round"/>
<path d="M65.9908 25.9966C71.4277 25.9966 75.8352 21.9561 75.8352 16.9718C75.8352 11.9876 71.4277 7.94711 65.9908 7.94711C60.554 7.94711 56.1465 11.9876 56.1465 16.9718C56.1465 21.9561 60.554 25.9966 65.9908 25.9966Z" stroke="#222526" stroke-width="2" stroke-miterlimit="10"/>
<path d="M80.6787 31.9089V43.4892H51.303C51.303 43.4892 51.303 35.8657 51.303 31.6274C51.303 31.6274 57.7622 25.9953 65.9921 25.9953C74.2182 25.9966 80.6787 31.9089 80.6787 31.9089Z" stroke="#222526" stroke-width="2" stroke-miterlimit="10" stroke-linejoin="round"/>
<path d="M26.7882 43.4892H84.7235V81.8982" stroke="#222526" stroke-width="2" stroke-miterlimit="10" stroke-linecap="round" stroke-linejoin="round"/>
<path d="M36.454 73.8605H83.4835" stroke="#222526" stroke-width="2" stroke-miterlimit="10" stroke-linecap="round" stroke-linejoin="round"/>
<path d="M9.70352 12.9753H30.6533" stroke="#222526" stroke-width="2" stroke-miterlimit="10" stroke-linecap="round" stroke-linejoin="round"/>
<path d="M9.70352 19.7953H23.315" stroke="#222526" stroke-width="2" stroke-miterlimit="10" stroke-linecap="round" stroke-linejoin="round"/>
<path d="M39.3122 23.9196C39.3122 27.2341 47.7554 29.9212 45.3535 29.9212H5.62268C3.22204 29.9212 1.27647 27.2341 1.27647 23.9196V7.04191C1.27647 3.72739 3.22204 1.04031 5.62268 1.04031H34.9648C37.3667 1.04031 39.3122 3.72739 39.3122 7.04191V23.9196Z" stroke="#222526" stroke-width="2" stroke-miterlimit="10"/>
</svg>