<svg width="88" height="87" viewBox="0 0 88 87" fill="none" xmlns="http://www.w3.org/2000/svg">
<path d="M19.077 24.4016H10.197V33.5591H19.077V24.4016Z" stroke="#222526" stroke-width="2" stroke-miterlimit="10" stroke-linecap="round" stroke-linejoin="round"/>
<path d="M47.0123 1.64662V16.0766H61.4423" stroke="#222526" stroke-width="2" stroke-miterlimit="10" stroke-linecap="round" stroke-linejoin="round"/>
<path d="M23.9798 27.1766H45.9023" stroke="#222526" stroke-width="2" stroke-miterlimit="10" stroke-linecap="round" stroke-linejoin="round"/>
<path d="M23.9798 31.6166H39.2423" stroke="#222526" stroke-width="2" stroke-miterlimit="10" stroke-linecap="round" stroke-linejoin="round"/>
<path d="M19.077 41.7454H10.197V50.9029H19.077V41.7454Z" stroke="#222526" stroke-width="2" stroke-miterlimit="10" stroke-linecap="round" stroke-linejoin="round"/>
<path d="M23.9798 44.5204H32.952" stroke="#222526" stroke-width="2" stroke-miterlimit="10" stroke-linecap="round" stroke-linejoin="round"/>
<path d="M23.9798 48.9604H32.952" stroke="#222526" stroke-width="2" stroke-miterlimit="10" stroke-linecap="round" stroke-linejoin="round"/>
<path d="M19.077 58.6729H10.197V67.8304H19.077V58.6729Z" stroke="#222526" stroke-width="2" stroke-miterlimit="10" stroke-linecap="round" stroke-linejoin="round"/>
<path d="M23.9798 61.4479H40.3523" stroke="#222526" stroke-width="2" stroke-miterlimit="10" stroke-linecap="round" stroke-linejoin="round"/>
<path d="M23.9798 65.8879H47.4475" stroke="#222526" stroke-width="2" stroke-miterlimit="10" stroke-linecap="round" stroke-linejoin="round"/>
<path d="M62.922 26.7604V16.0766L47.0123 1.64662H1.13269V85.8212H62.922V65.7491" stroke="#222526" stroke-width="2" stroke-miterlimit="10" stroke-linecap="round" stroke-linejoin="round"/>
<path d="M54.2273 66.767C65.5176 66.767 74.6702 57.6144 74.6702 46.3241C74.6702 35.0338 65.5176 25.8813 54.2273 25.8813C42.937 25.8813 33.7845 35.0338 33.7845 46.3241C33.7845 57.6144 42.937 66.767 54.2273 66.767Z" stroke="#222526" stroke-width="2" stroke-miterlimit="10" stroke-linecap="round" stroke-linejoin="round"/>
<path d="M54.2273 62.5112C63.1672 62.5112 70.4145 55.264 70.4145 46.3241C70.4145 37.3842 63.1672 30.137 54.2273 30.137C45.2874 30.137 38.0402 37.3842 38.0402 46.3241C38.0402 55.264 45.2874 62.5112 54.2273 62.5112Z" stroke="#222526" stroke-width="2" stroke-miterlimit="10" stroke-linecap="round" stroke-linejoin="round"/>
<path d="M52.1927 47.0179L56.8169 41.4212C56.8169 41.4212 59.1846 40.1392 60.5177 41.4212C62.9219 43.7334 61.4423 45.3062 61.4423 45.3062C61.4423 45.3062 53.6734 53.6312 52.1927 53.8166C50.7119 54.002 44.9777 48.452 44.9777 48.452C44.9777 48.452 43.4048 45.9545 47.0123 44.7523C49.5431 43.9087 52.1927 47.0179 52.1927 47.0179Z" stroke="#222526" stroke-width="2" stroke-miterlimit="10" stroke-linecap="round" stroke-linejoin="round"/>
<path d="M69.582 70.1891L77.1677 63.2516L85.8623 73.0563C85.8623 73.0563 87.4352 75.9234 84.7523 78.6063C82.0695 81.2891 78.3188 79.9016 78.3188 79.9016L69.582 70.1891Z" stroke="#222526" stroke-width="2" stroke-miterlimit="10" stroke-linecap="round" stroke-linejoin="round"/>
<path d="M70.7852 59.9216L74.6702 64.3616" stroke="#222526" stroke-width="2" stroke-miterlimit="10" stroke-linecap="round" stroke-linejoin="round"/>
<path d="M66.5294 63.3904L70.4144 67.8304" stroke="#222526" stroke-width="2" stroke-miterlimit="10" stroke-linecap="round" stroke-linejoin="round"/>
</svg>