<svg width="84" height="87" viewBox="0 0 84 87" fill="none" xmlns="http://www.w3.org/2000/svg">
<path d="M61.6434 51.9955V85.0754H1.08435V1.82953H46.9503L61.6434 15.0295V34.7955" stroke="#222526" stroke-width="2" stroke-miterlimit="10" stroke-linecap="round" stroke-linejoin="round"/>
<path d="M10.4111 49.4875H33.8138" stroke="#222526" stroke-width="2" stroke-miterlimit="10" stroke-linecap="round" stroke-linejoin="round"/>
<path d="M10.4111 56.9835H43.1986" stroke="#222526" stroke-width="2" stroke-miterlimit="10" stroke-linecap="round" stroke-linejoin="round"/>
<path d="M10.4111 64.6267H52.6951" stroke="#222526" stroke-width="2" stroke-miterlimit="10" stroke-linecap="round" stroke-linejoin="round"/>
<path d="M10.4111 72.1517H52.6951" stroke="#222526" stroke-width="2" stroke-miterlimit="10" stroke-linecap="round" stroke-linejoin="round"/>
<path d="M19.7281 26.5115C22.8451 26.5115 25.3718 24.1951 25.3718 21.3376C25.3718 18.48 22.8451 16.1636 19.7281 16.1636C16.6111 16.1636 14.0844 18.48 14.0844 21.3376C14.0844 24.1951 16.6111 26.5115 19.7281 26.5115Z" stroke="#222526" stroke-width="2" stroke-miterlimit="10"/>
<path d="M27.9593 37.6012V30.8535C27.9593 30.8535 24.5763 26.5105 19.7281 26.5105C19.7281 26.5105 11.1173 27.9864 11.1173 30.6739C11.1173 33.3614 11.1173 37.6002 11.1173 37.6002H27.9593V37.6012Z" stroke="#222526" stroke-width="2" stroke-miterlimit="10" stroke-linejoin="round"/>
<path d="M46.9503 1.82953V16.1647H61.6434" stroke="#222526" stroke-width="2" stroke-miterlimit="10" stroke-linecap="round" stroke-linejoin="round"/>
<path d="M46.9503 49.4875L74.1844 22.6125L82.4253 30.675L54.2969 58.0585L46.9503 49.4875Z" stroke="#222526" stroke-width="2" stroke-miterlimit="10" stroke-linecap="round" stroke-linejoin="round"/>
<path d="M68.2719 29.958L75.5174 37.4002" stroke="#222526" stroke-width="2" stroke-miterlimit="10"/>
<path d="M46.9503 49.4875L41.9344 61.85L54.2969 58.0585" stroke="#222526" stroke-width="2" stroke-miterlimit="10" stroke-linejoin="round"/>
</svg>