<svg width="122" height="22" viewBox="0 0 122 22" fill="none" xmlns="http://www.w3.org/2000/svg">
<path d="M7.74937 4.88481C6.29992 4.88481 5.19256 5.34341 4.4273 6.25979C3.66188 7.17633 3.2795 8.44767 3.2795 10.0736C3.2795 10.846 3.37096 11.5521 3.55373 12.193C3.73667 12.8337 4.00761 13.3816 4.36654 13.8364C4.72515 14.2908 5.17226 14.6461 5.70736 14.9008C6.24246 15.1561 6.86871 15.2833 7.58691 15.2833C8.03402 15.2833 8.42003 15.2661 8.74512 15.2314C9.07021 15.1976 9.32728 15.1522 9.51699 15.0975V9.94982H12.0773V16.8335C11.7248 16.9719 11.1289 17.1232 10.2892 17.2889C9.44929 17.4538 8.48079 17.5367 7.38383 17.5367C6.36794 17.5367 5.44006 17.3714 4.60033 17.0406C3.76028 16.7098 3.04587 16.2275 2.45678 15.5937C1.86752 14.9602 1.41018 14.1809 1.08509 13.2573C0.759997 12.3344 0.597534 11.2729 0.597534 10.0736C0.597534 8.87469 0.776838 7.81385 1.13594 6.89025C1.49455 5.96732 1.98573 5.18466 2.60884 4.54379C3.23161 3.90291 3.96319 3.41743 4.80325 3.08666C5.6428 2.75589 6.53685 2.59009 7.48521 2.59009C8.13539 2.59009 8.71441 2.63528 9.22244 2.72465C9.7303 2.81435 10.1672 2.91414 10.5329 3.02451C10.8987 3.13471 11.1999 3.25179 11.4372 3.37577C11.6741 3.49991 11.8398 3.58962 11.9349 3.64472L11.1628 5.77414C10.7564 5.52568 10.2517 5.31603 9.64907 5.1435C9.04627 4.97115 8.4131 4.88481 7.74937 4.88481Z" fill="#222526"/>
<path d="M15.0435 17.2474V2.92102H24.0851V5.13309H17.6038V8.66824H23.3739V10.8391H17.6038V15.0357H24.5727V17.2474H15.0435Z" fill="#222526"/>
<path d="M36.7636 2.92102V5.17425H32.4359V17.2474H29.8556V5.17425H25.5277V2.92102H36.7636Z" fill="#222526"/>
<path d="M44.22 12.5342C44.22 13.2367 44.1454 13.8912 43.9966 14.4978C43.8474 15.1044 43.5868 15.6347 43.2144 16.0898C42.8416 16.5442 42.3406 16.9032 41.7109 17.1643C41.081 17.4265 40.2851 17.5574 39.3235 17.5574C38.4293 17.5574 37.6538 17.4297 36.997 17.1749C36.3399 16.9199 35.8355 16.6482 35.4833 16.3586L36.3979 14.3118C36.7362 14.5464 37.1527 14.7703 37.6474 14.9838C38.1415 15.1976 38.6461 15.304 39.161 15.304C40.0278 15.304 40.6574 15.0837 41.0505 14.6424C41.4433 14.2015 41.6398 13.4435 41.6398 12.3687V2.9209H44.22V12.5342Z" fill="#3600F0"/>
<path d="M66.9822 17.4126C66.2371 17.4126 65.4852 17.3886 64.7267 17.3404C63.968 17.2918 63.3045 17.192 62.7355 17.0405V3.12792C63.0334 3.07299 63.3519 3.02125 63.6905 2.97236C64.0291 2.92432 64.3744 2.88635 64.7267 2.85897C65.0789 2.83142 65.4277 2.81076 65.7733 2.79698C66.1187 2.78338 66.4469 2.77649 66.7586 2.77649C67.6121 2.77649 68.4046 2.84184 69.1358 2.97236C69.8672 3.10373 70.5002 3.32111 71.0355 3.62348C71.5704 3.92721 71.9868 4.32668 72.285 4.82275C72.5827 5.31899 72.732 5.93231 72.732 6.66289C72.732 7.3382 72.5726 7.91726 72.2545 8.39922C71.9362 8.88201 71.4927 9.26772 70.9236 9.55733C71.777 9.84644 72.4069 10.2738 72.8132 10.8391C73.2195 11.4042 73.4228 12.1207 73.4228 12.9885C73.4228 14.4633 72.8944 15.5693 71.8379 16.3066C70.7816 17.0442 69.1629 17.4126 66.9822 17.4126ZM65.255 8.75048H67.0634C68.0387 8.75048 68.8038 8.60971 69.3594 8.32698C69.9144 8.04426 70.1923 7.53845 70.1923 6.8072C70.1923 6.11811 69.9044 5.62893 69.3288 5.33999C68.7529 5.05037 68.0047 4.90523 67.0837 4.90523C66.6906 4.90523 66.3421 4.91263 66.0375 4.9259C65.7327 4.94001 65.4718 4.96067 65.2552 4.98822V8.75048H65.255ZM65.255 10.7972V15.1591C65.5397 15.1866 65.8441 15.2076 66.1695 15.221C66.4946 15.2352 66.7922 15.2414 67.0634 15.2414C67.5916 15.2414 68.0826 15.2076 68.5363 15.1384C68.9902 15.0699 69.3828 14.9494 69.7148 14.7769C70.0467 14.6047 70.3107 14.3737 70.5072 14.0846C70.7035 13.7948 70.8019 13.4231 70.8019 12.9678C70.8019 12.1551 70.5103 11.5898 69.9282 11.2728C69.3457 10.9558 68.5395 10.7974 67.5102 10.7974H65.255V10.7972Z" fill="#3600F0"/>
<path d="M76.1454 17.2473V2.9209H85.0448V5.13297H78.7057V8.79175H84.3335V11.0038H78.7057V17.2473H76.1454Z" fill="#222526"/>
<path d="M95.732 17.2473C95.5418 16.6824 95.345 16.1241 95.1411 15.5726C94.9374 15.0218 94.7406 14.4563 94.5507 13.8776H88.6033C88.4131 14.4563 88.2196 15.0246 88.0226 15.5827C87.826 16.1411 87.6322 16.696 87.4423 17.2471H84.78C85.3076 15.7176 85.8086 14.3047 86.2823 13.0093C86.7559 11.7138 87.2194 10.487 87.6728 9.32935C88.126 8.17174 88.5761 7.06907 89.0227 6.022C89.4694 4.97477 89.9298 3.9408 90.4034 2.92078H92.8472C93.3214 3.9408 93.7818 4.97477 94.2289 6.022C94.6759 7.06907 95.1261 8.17191 95.5801 9.32935C96.0342 10.4868 96.5013 11.7136 96.9824 13.0093C97.463 14.3047 97.9677 15.7174 98.4961 17.2471H95.732V17.2473ZM91.577 5.6914C91.2653 6.42165 90.9097 7.31081 90.5103 8.35788C90.1107 9.40511 89.6942 10.5426 89.2609 11.7689H93.8933C93.4597 10.5426 93.0398 9.3989 92.6335 8.33738C92.2272 7.27637 91.8749 6.3941 91.577 5.6914Z" fill="#222526"/>
<path d="M103.96 15.3039C104.881 15.3039 105.552 15.1454 105.972 14.8285C106.392 14.5115 106.602 14.0639 106.602 13.4849C106.602 13.1403 106.531 12.8442 106.389 12.5957C106.246 12.3473 106.043 12.1242 105.779 11.9241C105.515 11.7247 105.193 11.5382 104.814 11.3655C104.435 11.1937 104.001 11.0245 103.514 10.8594C103.026 10.6805 102.555 10.4841 102.102 10.2701C101.648 10.0562 101.248 9.79149 100.903 9.47416C100.557 9.15717 100.28 8.77836 100.07 8.33722C99.8597 7.89642 99.7547 7.36558 99.7547 6.7452C99.7547 5.44967 100.195 4.43335 101.076 3.69605C101.956 2.95891 103.155 2.58984 104.672 2.58984C105.552 2.58984 106.334 2.69047 107.018 2.8897C107.702 3.08978 108.241 3.30665 108.634 3.54082L107.841 5.64958C107.381 5.38785 106.876 5.18778 106.328 5.05037C105.779 4.91262 105.213 4.84341 104.631 4.84341C103.94 4.84341 103.402 4.98821 103.016 5.27765C102.63 5.56676 102.437 5.97413 102.437 6.49725C102.437 6.81475 102.501 7.08655 102.63 7.31418C102.758 7.54146 102.941 7.74456 103.178 7.92414C103.415 8.10271 103.693 8.26868 104.011 8.4197C104.33 8.57173 104.678 8.7162 105.058 8.85395C105.721 9.1019 106.314 9.35372 106.836 9.60873C107.357 9.8639 107.797 10.1666 108.156 10.5184C108.515 10.8698 108.789 11.2831 108.979 11.7586C109.169 12.2342 109.264 12.8096 109.264 13.4849C109.264 14.7802 108.813 15.783 107.912 16.4925C107.012 17.2026 105.694 17.5572 103.961 17.5572C103.378 17.5572 102.846 17.5191 102.366 17.4434C101.885 17.3679 101.458 17.2747 101.086 17.1642C100.713 17.0543 100.391 16.9411 100.121 16.8233C99.8494 16.7066 99.633 16.5996 99.4705 16.5028L100.222 14.3737C100.588 14.5802 101.082 14.7871 101.706 14.9938C102.328 15.2005 103.08 15.3039 103.96 15.3039Z" fill="#222526"/>
<path d="M121.332 2.9209V5.17412H117.004V17.2473H114.424V5.17412H110.096V2.9209H121.332Z" fill="#222526"/>
<path d="M53.4906 17.3046C49.5694 17.3046 46.3791 14.0588 46.3791 10.0692C46.3791 6.07967 49.5694 2.83313 53.4906 2.83313C57.4119 2.83313 60.602 6.07967 60.602 10.0692C60.602 14.0588 57.4119 17.3046 53.4906 17.3046ZM53.4906 5.2525C50.8803 5.2525 48.7568 7.4135 48.7568 10.0694C48.7568 12.7251 50.8803 14.8856 53.4906 14.8856C56.1009 14.8856 58.2244 12.7251 58.2244 10.0694C58.2244 7.4135 56.1008 5.2525 53.4906 5.2525Z" fill="#3600F0"/>
<path d="M57.6995 6.82068C57.4563 6.82068 57.2128 6.72829 57.0241 6.54283C56.6375 6.16318 56.6268 5.53692 57 5.14349L58.8065 3.24069C59.18 2.8471 59.7952 2.83651 60.1817 3.2165C60.568 3.59632 60.5786 4.22241 60.2056 4.6155L58.3994 6.51881C58.2087 6.71972 57.9543 6.82068 57.6995 6.82068Z" fill="#3600F0"/>
<path d="M53.4903 11.0588C53.2471 11.0588 53.0038 10.9669 52.8151 10.7815C52.4285 10.4016 52.4177 9.77554 52.7906 9.38194L54.5969 7.47829C54.9699 7.0857 55.5854 7.07461 55.9722 7.4541C56.3584 7.83392 56.3695 8.46002 55.9963 8.85311L54.1904 10.7564C53.9995 10.9575 53.7451 11.0588 53.4903 11.0588Z" fill="#3600F0"/>
<path d="M54.79 1.99873C54.7876 1.99873 54.7853 1.99873 54.7826 1.99873L52.1825 1.97941C51.6456 1.97521 51.2132 1.5292 51.217 0.9829C51.2208 0.438618 51.6557 0 52.1895 0C52.1918 0 52.1941 0 52.1964 0L54.7933 0.019317C54.7935 0.019317 54.794 0.019317 54.794 0.019317H54.7985C55.3355 0.019317 55.7711 0.462136 55.7711 1.00894C55.7711 1.55591 55.3355 1.99873 54.7985 1.99873C54.7955 1.99873 54.793 1.99873 54.79 1.99873Z" fill="#3600F0"/>
<path d="M53.5273 5.14025C53.0032 5.14025 52.571 4.71608 52.5557 4.17936L52.4805 1.53523C52.4648 0.988761 52.8877 0.532672 53.4248 0.517049C53.9458 0.500755 54.4096 0.931141 54.4251 1.47761L54.4964 3.98953C54.5049 4.04195 54.5093 4.09604 54.5093 4.15064C54.5093 4.69744 54.0738 5.14025 53.5367 5.14025C53.5334 5.13992 53.5304 5.14025 53.5273 5.14025Z" fill="#3600F0"/>
<path d="M0.488403 21.1122V18.9114L121.351 20.0043L0.488403 21.1122Z" fill="#3600F0"/>
</svg>