<svg width="35" height="35" viewBox="0 0 35 35"  xmlns="http://www.w3.org/2000/svg">
<path fill-rule="evenodd" clip-rule="evenodd" d="M10.0818 24.7035L13.3553 23.8531L13.6712 24.0388C14.9991 24.8192 16.5213 25.2321 18.0733 25.2327H18.0768C22.8439 25.2327 26.7239 21.3901 26.7258 16.6671C26.7267 14.3784 25.8279 12.2264 24.195 10.6073C22.562 8.98821 20.3904 8.09613 18.0802 8.09534C13.3094 8.09534 9.42942 11.9375 9.42753 16.6602C9.42686 18.2787 9.88413 19.8549 10.7499 21.2186L10.9556 21.5427L10.0818 24.7035ZM22.9632 18.8865C23.1446 18.9733 23.267 19.0319 23.3193 19.1183C23.3843 19.2257 23.3843 19.7413 23.1677 20.3429C22.951 20.9443 21.9122 21.4933 21.4126 21.5672C20.9647 21.6335 20.3978 21.6612 19.775 21.4652C19.3973 21.3465 18.913 21.1881 18.2927 20.9227C15.8551 19.8804 14.2078 17.5407 13.8965 17.0985C13.8747 17.0675 13.8594 17.0458 13.8509 17.0346L13.8488 17.0318C13.7112 16.85 12.7892 15.6317 12.7892 14.3708C12.7892 13.1847 13.3776 12.563 13.6484 12.2769C13.6669 12.2572 13.684 12.2392 13.6993 12.2227C13.9376 11.9649 14.2193 11.9004 14.3926 11.9004C14.5659 11.9004 14.7395 11.902 14.891 11.9096C14.9096 11.9105 14.9291 11.9104 14.9492 11.9103C15.1007 11.9094 15.2896 11.9083 15.476 12.3516C15.5477 12.5222 15.6526 12.7751 15.7632 13.0419C15.9869 13.5813 16.2341 14.1773 16.2776 14.2636C16.3426 14.3925 16.386 14.5428 16.2993 14.7147C16.2863 14.7405 16.2743 14.7648 16.2628 14.7881C16.1977 14.9197 16.1498 15.0165 16.0393 15.1442C15.9959 15.1945 15.951 15.2486 15.9061 15.3028C15.8166 15.4107 15.7272 15.5185 15.6493 15.5954C15.5191 15.7238 15.3836 15.8631 15.5353 16.1209C15.687 16.3787 16.2088 17.2219 16.9817 17.9047C17.8126 18.6387 18.5348 18.9489 18.9009 19.1061C18.9723 19.1368 19.0302 19.1617 19.0727 19.1828C19.3326 19.3117 19.4843 19.2901 19.636 19.1183C19.7877 18.9465 20.286 18.3664 20.4593 18.1087C20.6326 17.851 20.806 17.8939 21.0443 17.9798C21.2827 18.0658 22.561 18.6887 22.821 18.8175C22.8718 18.8427 22.9192 18.8654 22.9632 18.8865Z" fill="black"/>
</svg>